<svg width="492" height="706" viewBox="0 0 492 706" fill="none" xmlns="http://www.w3.org/2000/svg">
<path d="M451.935 523.235C420.269 473.62 372.711 436.214 317.042 417.126V410.74C356.823 388.371 406.761 343.162 414.573 334.995C424.604 324.495 435.37 312.011 436.125 296.552C436.765 282.667 429.593 271.292 421.51 259.891H421.515C418.036 255.042 416.656 248.995 417.692 243.12C418.796 236.902 422.349 231.386 427.552 227.808C441.729 217.803 449.806 206.168 452.197 192.256C456.483 167.522 439.916 144.658 423.176 125.554C380.124 76.4603 320.978 18.247 245.176 3.48567C196.154 -5.86846 145.405 3.76693 103.229 30.4337C69.6302 51.8137 47.3742 82.179 42.2129 113.704C37.4577 142.694 46.3535 175.043 67.2395 204.735C75.4322 216.136 84.6302 226.787 94.7129 236.558C98.8274 240.573 101.249 246.021 101.478 251.771C101.708 257.521 99.7233 263.141 95.9369 267.474C82.6557 282.468 70.3222 298.276 59.0102 314.807C53.4373 323.005 48.2758 331.14 46.0883 340.619C43.4633 351.614 45.9113 362.728 52.4165 369.608C58.4842 376.025 67.3485 378.504 75.8951 380.489L75.9004 380.494C111.603 388.567 148.01 393.108 184.603 394.056V435.182C147.248 443.651 110.926 456.155 76.2804 472.485C56.999 481.615 37.2284 492.432 23.1977 509.673C9.81237 526.209 1.87502 548.787 0.333686 574.949C-1.09338 597.933 2.3181 621.063 5.6149 643.433L5.64615 643.755L5.63573 643.75C5.85448 645.177 7.08359 646.235 8.52639 646.229C8.67223 646.235 8.81807 646.224 8.96389 646.203C9.72952 646.089 10.417 645.672 10.8754 645.047C11.3389 644.422 11.5316 643.641 11.4118 642.875L11.3806 642.584C8.11496 620.505 4.76082 597.698 6.16175 575.297C7.18258 557.912 11.7607 533.062 27.7458 513.349C41.0166 497.016 60.1204 486.604 78.7564 477.765H78.7616C108.074 463.948 138.622 452.905 169.991 444.776C194.199 473.01 231.767 491.588 264.668 491.588C265.309 491.588 265.981 491.588 266.621 491.556C300.424 490.796 337.643 471.431 360.157 443.171C404.621 468.635 440.141 507.192 461.887 553.583C483.632 599.974 490.537 651.943 481.668 702.41C481.527 703.17 481.699 703.951 482.142 704.581C482.585 705.217 483.267 705.639 484.033 705.764C484.194 705.811 484.361 705.831 484.527 705.821C485.949 705.821 487.163 704.8 487.413 703.399C498.017 641.03 485.403 576.935 451.949 523.239L451.935 523.235ZM184.589 451.454C181.703 448.798 178.932 446.027 176.333 443.141C179.073 442.469 181.818 441.829 184.589 441.188V451.454ZM265.641 342.256C253.411 335.121 241.979 326.694 231.547 317.116C230.386 316.023 228.563 316.075 227.464 317.231C226.36 318.429 226.422 320.288 227.61 321.403C233 326.346 238.646 330.997 244.527 335.34C265.751 368.07 302.054 391.132 311.204 396.611V474.382C297.251 481.257 282.007 485.121 266.464 485.725C241.762 486.277 212.912 474.788 190.428 456.471V264.964C190.423 264.5 190.314 264.037 190.106 263.62L187.392 258.401C186.694 257.24 185.335 256.651 184.012 256.943C173.355 259.422 162.162 256.427 154.173 248.953C149.277 243.927 145.996 237.552 144.767 230.647C143.532 223.741 144.402 216.625 147.256 210.22C151.923 199.981 161.579 193.069 171.35 193.069C177.881 193.241 183.949 196.502 187.71 201.851C188.204 202.554 188.986 203.002 189.84 203.075C190.694 203.148 191.538 202.835 192.142 202.226C215.669 178.33 229.298 146.434 230.325 112.919C274.371 120.409 319.45 119.398 363.122 109.945C366.648 125.038 369.278 140.33 370.997 155.737C359.133 149.904 345.112 150.518 333.809 157.372C332.7 158.06 332.179 159.398 332.538 160.654C332.898 161.909 334.049 162.768 335.351 162.768C335.898 162.763 336.434 162.612 336.898 162.331C346.84 156.378 359.163 156.034 369.419 161.424C370.086 161.758 370.856 161.841 371.58 161.659C375.758 204.513 372.83 247.768 362.914 289.669C356.877 315.221 343.924 347.159 316.507 353.981C302.163 357.57 285.538 353.747 265.643 342.257L265.641 342.256ZM317.031 471.434L317.036 423.341C330.151 427.893 342.854 433.554 355.01 440.258C344.499 453.023 331.598 463.612 317.036 471.435L317.031 471.434Z" fill="black"/>
<path d="M321.762 225.448C320.148 225.339 318.757 226.558 318.648 228.172C318.544 229.782 319.762 231.172 321.372 231.282C321.757 231.303 322.143 231.318 322.538 231.318C327.601 231.235 332.45 229.261 336.126 225.777C340.288 222.193 342.71 217.001 342.778 211.511C342.85 206.022 340.559 200.761 336.491 197.074C333.382 194.001 329.371 191.996 325.043 191.35L326.345 159.741H326.351C326.413 158.131 325.163 156.777 323.554 156.709H323.429C321.866 156.709 320.58 157.939 320.512 159.501L319.09 193.991C319.054 194.808 319.361 195.6 319.939 196.173C320.517 196.746 321.309 197.053 322.121 197.027C325.955 196.975 329.647 198.48 332.361 201.188C335.075 203.902 336.575 207.595 336.528 211.428C336.476 215.267 334.882 218.918 332.101 221.563C329.319 224.204 325.59 225.61 321.757 225.465L321.762 225.448Z" fill="black"/>
<path d="M334.882 268.355L281.127 262.402C280.361 262.303 279.585 262.522 278.981 263.006C278.377 263.491 277.992 264.199 277.919 264.97C277.372 272.793 279.794 280.538 284.7 286.658C289.611 292.777 296.643 296.824 304.403 297.986C305.366 298.074 306.298 298.132 307.262 298.132C314.611 297.955 321.663 295.199 327.183 290.345C332.709 285.496 336.35 278.856 337.475 271.591C337.642 269.987 336.486 268.543 334.882 268.355Z" fill="black"/>
<path d="M298.335 160.262C299.101 160.46 299.913 160.34 300.585 159.929C301.257 159.517 301.736 158.85 301.913 158.08C302.085 157.309 301.939 156.502 301.507 155.84C301.075 155.184 300.392 154.725 299.616 154.574C282.236 150.725 264.048 153.35 248.46 161.955C247.773 162.324 247.262 162.955 247.044 163.705C246.825 164.455 246.919 165.262 247.299 165.944C247.679 166.627 248.32 167.127 249.07 167.335C249.825 167.538 250.627 167.439 251.304 167.049C265.632 159.132 282.357 156.72 298.335 160.262Z" fill="black"/>
<path d="M289.029 190.142C289.029 199.147 284.68 206.449 279.315 206.449C273.951 206.449 269.602 199.146 269.602 190.142C269.602 181.137 273.95 173.835 279.315 173.835C284.68 173.835 289.029 181.137 289.029 190.142Z" fill="black"/>
<path d="M366.482 190.142C366.482 199.147 362.133 206.449 356.769 206.449C351.404 206.449 347.05 199.146 347.05 190.142C347.05 181.137 351.404 173.835 356.769 173.835C362.133 173.835 366.482 181.137 366.482 190.142Z" fill="black"/>
</svg>
