<svg width="30" height="30" viewBox="0 0 30 30" fill="none" xmlns="http://www.w3.org/2000/svg">
<mask id="mask0_260_22" style="mask-type:alpha" maskUnits="userSpaceOnUse" x="0" y="0" width="30" height="30">
<path d="M22.5 2.5H18.75C17.0924 2.5 15.5027 3.15848 14.3306 4.33058C13.1585 5.50269 12.5 7.0924 12.5 8.75V12.5H8.75V17.5H12.5V27.5H17.5V17.5H21.25L22.5 12.5H17.5V8.75C17.5 8.41848 17.6317 8.10054 17.8661 7.86612C18.1005 7.6317 18.4185 7.5 18.75 7.5H22.5V2.5Z" stroke="#222222" stroke-width="2" stroke-linecap="round" stroke-linejoin="round"/>
</mask>
<g mask="url(#mask0_260_22)">
<path d="M-5.19995 8.4802C-5.19995 -2.45588 -2.85603 -4.7998 8.08005 -4.7998H21.5201C32.4561 -4.7998 34.8 -2.45588 34.8 8.4802V21.9202C34.8 32.8563 32.4561 35.2002 21.5201 35.2002H8.08005C-2.85603 35.2002 -5.19995 32.8563 -5.19995 21.9202V8.4802Z" fill="url(#paint0_linear_260_22)" style="mix-blend-mode:darken"/>
</g>
<defs>
<linearGradient id="paint0_linear_260_22" x1="-5.19995" y1="-3.13957" x2="41.4597" y2="8.49714" gradientUnits="userSpaceOnUse">
<stop stop-color="#A5FECB"/>
<stop offset="0.495695" stop-color="#20BDFF"/>
<stop offset="1" stop-color="#5433FF"/>
</linearGradient>
</defs>
</svg>
