<svg width="30" height="30" viewBox="0 0 30 30" fill="none" xmlns="http://www.w3.org/2000/svg">
<mask id="mask0_146_332" style="mask-type:alpha" maskUnits="userSpaceOnUse" x="0" y="0" width="30" height="30">
<path d="M22.5 2.5H18.75C17.0924 2.5 15.5027 3.15848 14.3306 4.33058C13.1585 5.50269 12.5 7.0924 12.5 8.75V12.5H8.75V17.5H12.5V27.5H17.5V17.5H21.25L22.5 12.5H17.5V8.75C17.5 8.41848 17.6317 8.10054 17.8661 7.86612C18.1005 7.6317 18.4185 7.5 18.75 7.5H22.5V2.5Z" stroke="#222222" stroke-width="2" stroke-linecap="round" stroke-linejoin="round"/>
</mask>
<g mask="url(#mask0_146_332)">
<path d="M-5.19995 8.47995C-5.19995 -2.45613 -2.85603 -4.80005 8.08005 -4.80005H21.5201C32.4561 -4.80005 34.8 -2.45613 34.8 8.47995V21.92C34.8 32.856 32.4561 35.2 21.5201 35.2H8.08005C-2.85603 35.2 -5.19995 32.856 -5.19995 21.92V8.47995Z" fill="url(#paint0_linear_146_332)" style="mix-blend-mode:darken"/>
</g>
<defs>
<linearGradient id="paint0_linear_146_332" x1="-5.19995" y1="-3.13982" x2="41.4597" y2="8.4969" gradientUnits="userSpaceOnUse">
<stop stop-color="#A5FECB"/>
<stop offset="0.495695" stop-color="#20BDFF"/>
<stop offset="1" stop-color="#5433FF"/>
</linearGradient>
</defs>
</svg>
