<svg width="30" height="30" viewBox="0 0 30 30" fill="none" xmlns="http://www.w3.org/2000/svg">
<mask id="mask0_146_320" style="mask-type:alpha" maskUnits="userSpaceOnUse" x="0" y="0" width="30" height="30">
<path d="M21.25 2.5H8.75C5.29822 2.5 2.5 5.29822 2.5 8.75V21.25C2.5 24.7018 5.29822 27.5 8.75 27.5H21.25C24.7018 27.5 27.5 24.7018 27.5 21.25V8.75C27.5 5.29822 24.7018 2.5 21.25 2.5Z" stroke="white" stroke-width="2" stroke-linecap="round" stroke-linejoin="round"/>
<path d="M20.0001 14.2124C20.1544 15.2527 19.9767 16.3152 19.4923 17.2487C19.0079 18.1822 18.2416 18.9392 17.3022 19.412C16.3628 19.8848 15.2982 20.0494 14.2599 19.8823C13.2215 19.7152 12.2623 19.225 11.5187 18.4813C10.775 17.7377 10.2848 16.7785 10.1177 15.7402C9.95063 14.7018 10.1152 13.6373 10.588 12.6979C11.0609 11.7585 11.8179 10.9921 12.7514 10.5077C13.6849 10.0233 14.7473 9.84562 15.7876 9.99989C16.8488 10.1572 17.8312 10.6517 18.5897 11.4103C19.3483 12.1688 19.8428 13.1512 20.0001 14.2124Z" stroke="white" stroke-width="2" stroke-linecap="round" stroke-linejoin="round"/>
<path d="M21.875 8.125H21.8875" stroke="white" stroke-width="2" stroke-linecap="round" stroke-linejoin="round"/>
</mask>
<g mask="url(#mask0_146_320)">
<path d="M-4.80005 8.08005C-4.80005 -2.85603 -2.45613 -5.19995 8.47995 -5.19995H21.92C32.856 -5.19995 35.2 -2.85603 35.2 8.08005V21.5201C35.2 32.4561 32.856 34.8 21.92 34.8H8.47995C-2.45613 34.8 -4.80005 32.4561 -4.80005 21.5201V8.08005Z" fill="url(#paint0_linear_146_320)" style="mix-blend-mode:darken"/>
</g>
<defs>
<linearGradient id="paint0_linear_146_320" x1="-4.80005" y1="-3.53972" x2="41.8596" y2="8.097" gradientUnits="userSpaceOnUse">
<stop stop-color="#A5FECB"/>
<stop offset="0.495695" stop-color="#20BDFF"/>
<stop offset="1" stop-color="#5433FF"/>
</linearGradient>
</defs>
</svg>
