<svg width="30" height="30" viewBox="0 0 30 30" fill="none" xmlns="http://www.w3.org/2000/svg">
<mask id="mask0_260_17" style="mask-type:alpha" maskUnits="userSpaceOnUse" x="0" y="0" width="30" height="30">
<path d="M28.7 3.61218C27.5029 4.45653 26.1776 5.10232 24.775 5.52468C24.0221 4.65907 23.0216 4.04554 21.9087 3.76709C20.7959 3.48863 19.6243 3.55867 18.5526 3.96775C17.4808 4.37682 16.5605 5.10518 15.9162 6.05432C15.2719 7.00347 14.9346 8.1276 14.95 9.27468V10.5247C12.7532 10.5816 10.5765 10.0944 8.61371 9.10649C6.65088 8.11853 4.96285 6.66047 3.69995 4.86218C3.69995 4.86218 -1.30005 16.1122 9.94995 21.1122C7.37561 22.8596 4.3089 23.7358 1.19995 23.6122C12.45 29.8622 26.2 23.6122 26.2 9.23718C26.1988 8.889 26.1653 8.54167 26.1 8.19968C27.3757 6.94155 28.276 5.35307 28.7 3.61218Z" stroke="#222222" stroke-width="2" stroke-linecap="round" stroke-linejoin="round"/>
</mask>
<g mask="url(#mask0_260_17)">
<path d="M-4.80005 8.07981C-4.80005 -2.85628 -2.45613 -5.2002 8.47995 -5.2002H21.92C32.856 -5.2002 35.2 -2.85628 35.2 8.07981V21.5198C35.2 32.4559 32.856 34.7998 21.92 34.7998H8.47995C-2.45613 34.7998 -4.80005 32.4559 -4.80005 21.5198V8.07981Z" fill="url(#paint0_linear_260_17)" style="mix-blend-mode:darken"/>
</g>
<defs>
<linearGradient id="paint0_linear_260_17" x1="-4.80005" y1="-3.53996" x2="41.8596" y2="8.09675" gradientUnits="userSpaceOnUse">
<stop stopColor="#A5FECB"/>
<stop offset="0.495695" stopColor="#20BDFF"/>
<stop offset="1" stopColor="#5433FF"/>
</linearGradient>
</defs>
</svg>
