<svg width="30" height="30" viewBox="0 0 30 30" fill="none" xmlns="http://www.w3.org/2000/svg">
<mask id="mask0_146_327" style="mask-type:alpha" maskUnits="userSpaceOnUse" x="0" y="0" width="30" height="30">
<path d="M28.7 3.61267C27.5029 4.45701 26.1776 5.1028 24.775 5.52517C24.0221 4.65956 23.0216 4.04603 21.9087 3.76757C20.7959 3.48912 19.6243 3.55916 18.5526 3.96823C17.4808 4.37731 16.5605 5.10567 15.9162 6.05481C15.2719 7.00396 14.9346 8.12809 14.95 9.27517V10.5252C12.7532 10.5821 10.5765 10.0949 8.61371 9.10697C6.65088 8.11902 4.96285 6.66096 3.69995 4.86267C3.69995 4.86267 -1.30005 16.1127 9.94995 21.1127C7.37561 22.8601 4.3089 23.7363 1.19995 23.6127C12.45 29.8627 26.2 23.6127 26.2 9.23767C26.1988 8.88948 26.1653 8.54216 26.1 8.20017C27.3757 6.94203 28.276 5.35356 28.7 3.61267Z" stroke="#222222" stroke-width="2" stroke-linecap="round" stroke-linejoin="round"/>
</mask>
<g mask="url(#mask0_146_327)">
<path d="M-4.80005 8.08005C-4.80005 -2.85603 -2.45613 -5.19995 8.47995 -5.19995H21.92C32.856 -5.19995 35.2 -2.85603 35.2 8.08005V21.5201C35.2 32.4561 32.856 34.8 21.92 34.8H8.47995C-2.45613 34.8 -4.80005 32.4561 -4.80005 21.5201V8.08005Z" fill="url(#paint0_linear_146_327)" style="mix-blend-mode:darken"/>
</g>
<defs>
<linearGradient id="paint0_linear_146_327" x1="-4.80005" y1="-3.53972" x2="41.8596" y2="8.097" gradientUnits="userSpaceOnUse">
<stop stop-color="#A5FECB"/>
<stop offset="0.495695" stop-color="#20BDFF"/>
<stop offset="1" stop-color="#5433FF"/>
</linearGradient>
</defs>
</svg>
