<?xml version="1.0" standalone="no"?>
<!DOCTYPE svg PUBLIC "-//W3C//DTD SVG 20010904//EN"
 "http://www.w3.org/TR/2001/REC-SVG-20010904/DTD/svg10.dtd">
<svg version="1.0" xmlns="http://www.w3.org/2000/svg"
 width="600.000000pt" height="155.000000pt" viewBox="0 0 600.000000 155.000000"
 preserveAspectRatio="xMidYMid meet">
<g transform="translate(0.000000,155.000000) scale(0.100000,-0.100000)"
fill="#000000" stroke="none">
<path d="M582 1521 c-218 -54 -405 -209 -506 -420 -54 -113 -69 -196 -64 -358
3 -118 8 -149 32 -218 84 -244 278 -429 523 -496 100 -28 285 -30 382 -4 311
81 532 338 571 663 46 375 -206 740 -574 832 -102 26 -261 26 -364 1z m421
-38 c114 -40 184 -83 268 -165 121 -117 194 -253 225 -414 61 -325 -105 -660
-401 -809 -198 -99 -456 -101 -651 -5 -127 62 -248 174 -323 299 -18 29 -46
94 -64 145 -29 85 -31 100 -32 231 0 119 4 151 23 215 86 273 288 464 557 526
38 8 106 12 185 11 110 -3 135 -6 213 -34z"/>
<path d="M685 1490 c-278 -30 -511 -223 -605 -500 -27 -82 -38 -257 -21 -354
27 -153 105 -293 224 -402 158 -145 346 -207 553 -184 180 20 301 78 429 205
91 91 144 175 182 290 23 69 27 97 27 210 1 154 -10 207 -69 330 -111 229
-310 374 -557 405 -45 5 -85 9 -88 9 -3 -1 -36 -5 -75 -9z m164 -21 c216 -27
426 -169 523 -355 65 -124 83 -200 83 -354 0 -122 -3 -142 -28 -215 -37 -104
-85 -182 -165 -267 -116 -123 -239 -184 -417 -209 -279 -38 -574 120 -700 376
-95 191 -101 426 -17 618 60 135 193 273 324 336 106 51 140 60 303 80 6 0 48
-4 94 -10z"/>
<path d="M830 1435 c-7 -8 -10 -22 -6 -30 4 -11 -1 -15 -17 -15 -21 -1 -21 -1
-4 -15 15 -10 18 -24 15 -61 -2 -31 1 -48 10 -51 8 -3 12 6 12 29 0 64 9 78
44 72 56 -10 57 -11 44 -39 -11 -24 -48 -36 -48 -15 0 6 9 10 21 10 11 0 17 5
14 10 -10 16 -42 12 -49 -6 -7 -19 21 -57 35 -48 5 3 9 -4 9 -15 0 -37 18 -22
35 30 16 47 19 50 44 44 39 -10 49 -25 15 -22 -26 2 -29 -1 -29 -28 -1 -38 12
-65 29 -65 8 0 16 -7 20 -15 9 -25 20 -18 45 30 13 25 27 45 32 45 20 0 18
-23 -6 -57 -25 -38 -32 -63 -16 -63 4 0 21 18 36 40 15 22 31 40 36 40 16 0
18 -18 4 -30 -18 -15 -20 -66 -2 -73 9 -4 9 -8 -2 -15 -8 -6 -11 -17 -7 -28 6
-15 13 -12 50 25 38 37 44 40 50 24 6 -13 -2 -26 -28 -48 -20 -16 -36 -38 -36
-48 0 -15 8 -12 47 18 l46 35 19 -30 c10 -17 18 -35 18 -40 0 -14 -22 -12 -44
5 -37 28 -59 -16 -35 -69 19 -42 59 -45 59 -6 0 11 9 24 20 30 17 9 20 7 26
-16 4 -17 10 -22 17 -15 6 6 -2 33 -26 80 -28 57 -34 79 -30 110 3 21 0 48 -6
60 -15 26 -48 27 -56 1 -6 -18 -9 -16 -42 16 -49 49 -144 109 -204 129 -27 9
-49 22 -49 29 0 23 -48 66 -73 66 -14 0 -30 -7 -37 -15z m74 -26 c37 -29 32
-38 -16 -27 -50 11 -50 11 -42 32 8 22 26 20 58 -5z m151 -143 c-11 -16 -26
-26 -41 -26 -30 0 -31 8 -1 20 l22 9 -22 7 c-13 3 -23 10 -23 15 0 13 24 11
38 -3 9 -9 13 -7 18 6 4 11 10 14 16 8 6 -6 4 -19 -7 -36z m152 -83 c5 -14
-34 -36 -48 -27 -7 4 -4 13 7 25 18 20 35 21 41 2z m73 -19 l0 -37 -21 27
c-21 27 -18 46 7 46 9 0 14 -11 14 -36z m-12 -156 c14 -14 16 -48 3 -48 -6 0
-17 10 -25 22 -22 31 -4 52 22 26z"/>
<path d="M623 1424 c-3 -9 -1 -25 6 -35 9 -16 8 -19 -10 -19 -25 0 -153 -50
-157 -62 -2 -4 -12 -8 -23 -8 -25 0 -25 -30 1 -37 19 -5 19 -6 -5 -25 -21 -16
-28 -18 -40 -8 -13 11 -13 14 2 25 10 8 15 17 11 21 -9 8 -111 -74 -154 -125
-31 -36 -84 -116 -84 -126 0 -17 21 0 39 31 l22 37 20 -22 c20 -21 19 -59 0
-46 -6 3 -7 13 -4 22 4 11 2 14 -8 11 -8 -2 -15 -14 -17 -26 -3 -19 1 -22 28
-22 17 0 33 6 36 14 3 8 12 12 19 10 30 -12 22 16 -13 42 -20 15 -39 29 -41
30 -2 2 9 20 24 40 19 25 30 33 38 25 8 -8 4 -18 -11 -34 -19 -20 -20 -26 -9
-36 8 -6 22 -9 31 -5 19 7 22 24 4 24 -9 0 -9 3 0 12 9 9 16 8 30 -5 38 -35
43 -15 7 29 -36 43 -36 46 -19 59 21 16 36 15 42 -3 2 -7 -3 -12 -12 -12 -17
0 -22 -15 -8 -24 5 -3 29 -8 53 -11 44 -5 44 -5 12 7 -45 18 -13 54 44 49 11
-1 24 3 28 8 9 16 25 13 25 -4 0 -8 7 -15 15 -15 19 0 19 -2 -6 55 -11 26 -17
51 -12 55 7 6 99 40 110 40 2 0 3 -6 3 -14 0 -9 -16 -18 -42 -23 -51 -10 -63
-41 -26 -67 36 -25 58 -20 26 7 -21 16 -25 26 -18 37 8 13 11 12 23 -4 13 -18
14 -18 20 5 7 28 24 17 29 -20 1 -14 9 -26 16 -29 11 -3 12 6 7 44 -4 27 -8
54 -9 59 0 6 6 10 14 10 11 0 16 -14 20 -49 3 -29 11 -51 18 -54 11 -3 12 7 7
52 -5 39 -4 56 4 56 6 0 11 5 11 10 0 6 -5 10 -11 10 -6 0 -20 11 -31 25 -22
29 -65 34 -75 9z m58 -14 c28 -16 23 -32 -8 -28 -17 2 -29 10 -31 21 -4 19 10
22 39 7z m-181 -134 c0 -13 -6 -28 -13 -35 -11 -8 -13 -4 -13 24 1 39 26 50
26 11z m-35 4 c3 -5 1 -10 -4 -10 -6 0 -11 5 -11 10 0 6 2 10 4 10 3 0 8 -4
11 -10z"/>
<path d="M625 1213 c-220 -79 -350 -290 -317 -514 19 -128 101 -254 209 -322
139 -88 340 -89 485 -4 91 53 179 171 208 276 15 57 15 184 0 241 -33 125
-137 247 -257 302 -59 27 -81 32 -173 35 -83 3 -116 0 -155 -14z m330 -48
c163 -81 246 -216 246 -400 0 -99 -19 -162 -72 -243 -33 -51 -44 -61 -55 -51
-11 9 -14 8 -15 -2 -2 -30 -28 69 -30 116 -1 28 -4 40 -6 28 -2 -13 -9 -23
-14 -23 -5 0 -6 -12 -3 -26 5 -19 4 -25 -5 -20 -6 4 -11 2 -11 -4 0 -7 -5 -6
-14 2 -10 9 -10 15 -3 20 8 5 5 13 -7 26 -13 15 -14 22 -5 28 7 4 10 3 7 -2
-3 -5 0 -15 8 -22 17 -16 16 -18 19 43 2 46 1 48 -10 22 -13 -33 -28 -25 -15
8 5 13 6 25 3 29 -3 3 -2 13 2 23 4 10 9 29 11 43 3 23 2 24 -11 7 -10 -14
-14 -15 -18 -5 -3 8 -6 6 -6 -5 -2 -31 -18 -9 -25 33 -3 22 -13 55 -22 74 -16
32 -16 35 7 66 35 47 33 132 -4 190 -80 119 -262 82 -297 -62 -13 -51 -2 -106
27 -140 14 -16 13 -18 -10 -29 -14 -6 -29 -25 -35 -43 -8 -24 -10 -26 -11 -9
-1 12 -6 25 -13 29 -8 5 -9 -5 -5 -34 4 -32 2 -42 -9 -42 -8 0 -14 5 -14 10 0
6 -4 10 -9 10 -4 0 -6 -11 -3 -25 2 -14 0 -25 -6 -25 -6 0 -10 -14 -10 -30 1
-17 -2 -33 -5 -37 -4 -3 -8 11 -8 33 -1 23 -4 30 -6 17 -2 -13 -8 -23 -13 -23
-11 0 -6 -62 8 -86 11 -19 11 -19 13 1 1 11 1 24 0 28 -1 4 5 15 13 22 11 11
15 12 19 2 3 -7 12 -2 26 16 22 27 46 37 39 16 -2 -6 -7 -10 -11 -9 -5 0 -17
-10 -28 -25 -12 -14 -24 -23 -29 -20 -4 3 -6 -4 -3 -14 6 -22 -19 -38 -53 -36
-18 2 -23 -5 -28 -33 -3 -19 -2 -40 2 -46 3 -6 5 -21 3 -34 -3 -23 26 -55 41
-46 5 3 8 1 8 -5 0 -6 7 -8 15 -5 9 4 18 -1 21 -11 4 -9 15 -15 28 -13 11 1
27 -1 34 -5 8 -6 12 -1 12 13 0 22 -9 27 -54 33 -17 2 -32 10 -34 18 -3 11 -1
11 7 -1 6 -8 11 -10 11 -5 0 15 -50 66 -59 60 -5 -2 -14 2 -21 10 -9 11 -9 15
-1 15 7 0 10 4 7 8 -2 4 0 14 5 22 8 12 12 12 16 2 4 -10 8 -9 18 5 15 20 29
14 19 -10 -3 -9 -14 -14 -28 -11 -16 3 -22 -1 -23 -18 -2 -15 1 -18 9 -10 8 8
16 5 28 -10 17 -21 17 -20 24 31 4 28 11 49 15 46 5 -3 7 3 4 14 -3 10 1 22 7
26 9 6 11 -2 6 -31 -11 -62 -16 -165 -7 -129 l9 30 1 -29 c1 -20 5 -27 15 -23
22 9 46 -25 39 -52 -4 -16 -2 -22 4 -18 6 4 14 0 17 -9 4 -9 9 -14 13 -11 3 4
1 12 -5 20 -6 7 -9 22 -7 32 2 11 4 26 4 33 1 7 10 20 21 29 26 23 26 43 -1
36 -16 -4 -17 -8 -7 -14 10 -7 9 -9 -4 -9 -11 0 -18 8 -18 20 0 11 7 20 15 20
13 0 14 4 5 21 -7 11 -9 23 -6 26 3 3 -2 11 -11 18 -11 8 -14 18 -8 31 7 17 8
17 15 -6 6 -17 8 -20 9 -7 1 10 6 15 11 12 6 -4 7 -12 3 -18 -15 -24 -12 -43
3 -22 14 19 15 18 12 -14 -2 -20 2 -36 10 -38 20 -8 14 56 -9 89 -17 23 -19
32 -10 41 9 9 11 8 6 -4 -8 -21 14 -36 26 -18 6 9 9 10 9 2 0 -6 -4 -15 -10
-18 -6 -4 -4 -15 5 -29 12 -18 13 -29 5 -51 -6 -16 -8 -35 -6 -42 10 -26 34 9
31 44 -2 18 1 30 6 27 5 -3 9 2 9 10 0 26 15 18 16 -9 1 -14 -2 -22 -8 -19 -6
4 -8 -1 -4 -13 4 -12 1 -25 -9 -33 -8 -7 -13 -16 -10 -20 3 -5 -8 -7 -25 -5
-21 3 -30 0 -30 -10 0 -8 -7 -15 -15 -15 -11 0 -15 -11 -15 -40 0 -22 5 -40
10 -40 16 0 12 -21 -7 -37 -10 -8 -13 -12 -6 -9 6 4 14 2 18 -4 7 -11 -5 -13
-29 -4 -9 3 -14 9 -11 14 2 4 -7 5 -20 2 -21 -4 -25 -1 -25 22 0 21 -5 26 -24
26 -13 0 -26 -5 -28 -11 -2 -5 -24 8 -48 31 -25 23 -55 51 -68 62 -39 35 -81
132 -94 213 -55 352 309 618 627 460z m-106 -13 c71 -52 92 -143 50 -211 l-21
-35 -14 34 c-8 19 -12 46 -9 61 9 38 -12 107 -35 119 -10 5 -37 10 -59 10 -54
0 -81 -34 -81 -104 -1 -28 -7 -64 -14 -81 l-13 -30 -16 32 c-42 81 -3 186 83
222 34 15 98 6 129 -17z m-123 -70 c-17 -16 -18 -16 -5 5 7 12 15 20 18 17 3
-2 -3 -12 -13 -22z m73 -19 l24 -16 -21 -8 c-23 -9 -29 -33 -11 -45 6 -3 16
-1 22 5 8 8 6 11 -7 11 -9 0 -14 5 -11 10 3 6 13 10 22 10 12 0 14 -7 10 -36
-12 -73 -61 -94 -100 -42 -25 33 -16 51 20 37 34 -13 38 -6 18 25 -19 28 -38
36 -29 11 4 -9 0 -15 -10 -15 -23 0 -20 13 10 44 31 31 33 31 63 9z m-97 -149
c-8 -14 -9 -13 -9 10 0 18 3 24 9 18 7 -7 7 -16 0 -28z m136 12 c-2 -3 6 -12
17 -20 37 -27 32 -226 -7 -226 -4 0 -8 9 -8 21 0 11 4 18 9 15 14 -9 21 21 20
82 l-1 57 -8 -50 c-4 -28 -15 -66 -24 -84 -13 -24 -14 -36 -6 -46 8 -10 6 -15
-9 -20 -11 -3 -22 -14 -24 -23 -4 -13 -5 -13 -6 3 0 12 4 26 11 33 7 7 8 12 2
12 -6 0 -15 -5 -22 -12 -9 -9 -12 -8 -12 8 0 10 9 25 20 32 11 7 20 17 20 22
0 16 -27 12 -34 -5 -4 -12 -11 -13 -31 -5 -28 11 -52 3 -75 -25 -13 -16 -15
-16 -21 2 -6 15 -8 14 -14 -9 -7 -28 -24 -38 -26 -15 0 6 -5 1 -11 -13 -10
-23 -11 -23 -16 -5 -5 21 38 65 63 65 8 0 29 9 47 20 27 17 43 19 91 14 49 -6
57 -4 57 10 0 10 -4 14 -10 11 -14 -9 -12 1 3 17 15 14 30 111 17 103 -4 -3
-13 2 -20 10 -8 10 -9 15 -2 15 6 0 10 6 8 13 -1 6 -1 9 1 5 3 -4 3 -10 1 -12z
m-87 -16 c13 -8 25 -7 39 0 18 10 20 8 20 -20 0 -27 -3 -30 -24 -24 -14 3 -29
0 -38 -10 -20 -19 -28 -11 -28 31 0 36 2 38 31 23z m-61 -35 c0 -9 9 -34 21
-56 11 -23 19 -42 17 -42 -2 -1 -18 -10 -36 -20 -38 -21 -48 -18 -33 11 15 27
24 85 12 78 -5 -4 -12 0 -14 6 -3 7 -6 -6 -6 -29 -1 -43 -11 -52 -39 -34 -19
12 -5 57 25 81 31 24 53 26 53 5z m145 -42 c-10 -43 -55 -61 -55 -23 0 11 -4
20 -10 20 -5 0 -10 -9 -10 -20 0 -11 -7 -20 -15 -20 -20 0 -19 13 4 41 18 22
22 23 42 10 20 -12 25 -12 34 3 15 23 18 20 10 -11z m84 -96 c1 -23 -3 -36 -9
-32 -6 4 -10 -5 -10 -20 0 -17 4 -24 11 -19 9 5 10 -4 5 -32 -10 -53 -31 -72
-23 -21 4 23 1 47 -6 57 -9 15 -8 23 6 38 17 19 23 37 10 29 -5 -3 -6 16 -4
41 4 40 5 43 12 22 4 -14 7 -42 8 -63z m-372 21 c-3 -8 -6 -5 -6 6 -1 11 2 17
5 13 3 -3 4 -12 1 -19z m70 16 c-3 -3 -12 -4 -19 -1 -8 3 -5 6 6 6 11 1 17 -2
13 -5z m180 0 c-3 -3 -12 -4 -19 -1 -8 3 -5 6 6 6 11 1 17 -2 13 -5z m-167
-23 c0 -5 -13 -11 -30 -13 -29 -4 -37 1 -23 15 10 10 53 8 53 -2z m-90 -22 c0
-6 -4 -7 -10 -4 -5 3 -10 11 -10 16 0 6 5 7 10 4 6 -3 10 -11 10 -16z m435 1
c-3 -5 -11 -10 -16 -10 -6 0 -7 5 -4 10 3 6 11 10 16 10 6 0 7 -4 4 -10z
m-231 -26 c20 -7 11 -24 -12 -24 -14 0 -14 2 -3 9 11 7 9 10 -10 14 -13 2 -16
5 -7 6 9 0 23 -2 32 -5z m203 -26 c-3 -8 -6 -5 -6 6 -1 11 2 17 5 13 3 -3 4
-12 1 -19z m-194 -28 c-8 -31 -23 -34 -23 -6 0 16 6 26 14 26 9 0 12 -7 9 -20z
m114 -3 c0 -7 -6 -18 -14 -25 -8 -9 -13 -9 -13 -2 0 6 -4 8 -10 5 -5 -3 -10
-15 -10 -26 0 -13 4 -18 12 -13 7 4 8 3 4 -5 -11 -17 -26 -3 -26 24 0 21 14
34 56 55 0 0 1 -6 1 -13z m-87 -7 c0 -5 -5 -10 -11 -10 -5 0 -7 5 -4 10 3 6 8
10 11 10 2 0 4 -4 4 -10z m-155 -31 c11 -17 -1 -21 -15 -4 -8 9 -8 15 -2 15 6
0 14 -5 17 -11z m318 -69 c-3 -14 -3 -22 1 -18 10 8 42 -24 50 -50 6 -17 2
-19 -34 -18 -48 1 -52 11 -7 21 26 7 28 9 11 12 -23 4 -45 59 -43 109 l1 29
13 -30 c8 -16 11 -41 8 -55z m-120 17 c8 -6 6 -7 -6 -3 -10 3 -22 6 -26 6 -4
0 -7 10 -5 23 4 34 4 34 15 7 6 -13 15 -28 22 -33z m-219 27 c10 -25 -1 -29
-14 -5 -6 12 -7 21 -1 21 5 0 12 -7 15 -16z m276 6 c0 -5 -7 -10 -16 -10 -8 0
-12 5 -9 10 3 6 10 10 16 10 5 0 9 -4 9 -10z m-27 -63 c-3 -15 -14 -32 -24
-38 -23 -12 -25 -2 -3 22 8 9 16 26 17 38 1 11 4 17 8 13 4 -4 5 -20 2 -35z
m-250 -7 c7 -29 -8 -25 -21 5 -16 34 -15 40 2 26 8 -6 16 -21 19 -31z m293 15
c-3 -9 -10 -13 -16 -10 -6 4 -5 11 3 20 15 16 22 11 13 -10z m-86 -17 c0 -7
-4 -19 -9 -26 -7 -11 -10 -10 -15 3 -10 26 -7 35 9 35 8 0 15 -6 15 -12z m206
-7 c0 -15 -3 -17 -13 -9 -7 6 -10 14 -7 19 9 15 20 10 20 -10z m-509 -30 c1
-10 -5 -18 -13 -18 -8 0 -13 6 -10 14 3 7 2 13 -3 13 -4 0 -8 6 -8 14 0 21 33
-2 34 -23z m406 2 c-3 -21 -10 -42 -14 -47 -12 -13 -11 -36 1 -36 6 0 10 6 10
14 0 22 19 29 37 14 9 -7 14 -8 11 -3 -3 6 5 11 18 11 27 2 30 -5 12 -26 -11
-12 -10 -12 5 0 10 7 16 19 13 27 -3 8 1 16 10 20 13 5 13 8 2 15 -10 8 -10 9
2 5 17 -4 20 -24 8 -49 -10 -20 -67 -53 -85 -50 -7 2 -13 -1 -13 -6 0 -5 -18
-14 -39 -19 -33 -9 -41 -8 -55 8 -9 11 -16 26 -16 35 0 8 -4 12 -10 9 -5 -3
-10 1 -10 9 0 9 5 16 11 16 6 0 9 9 6 19 -3 11 1 22 7 24 8 3 12 -4 12 -17 -1
-16 6 -22 27 -24 23 -3 27 0 28 22 1 14 3 31 4 36 1 6 3 15 4 20 0 6 5 10 10
10 6 0 7 -17 4 -37z m-39 -11 c-7 -25 -24 -30 -24 -7 0 8 4 15 10 15 5 0 7 8
3 18 -4 12 -3 14 5 7 6 -6 9 -20 6 -33z m-240 12 c3 -8 2 -12 -4 -9 -6 3 -10
10 -10 16 0 14 7 11 14 -7z m144 9 c-31 -66 -49 -78 -76 -51 -21 21 -13 32 11
12 12 -10 19 -15 16 -11 -4 5 3 19 15 32 20 22 41 33 34 18z m7 -63 c-9 -18
-13 -40 -9 -52 4 -14 2 -18 -5 -14 -6 4 -11 16 -11 27 0 23 29 83 36 76 3 -3
-2 -19 -11 -37z m-72 -50 c-7 -11 -9 -21 -3 -25 5 -3 11 -1 15 5 4 7 13 6 27
-1 18 -9 24 -8 35 7 12 17 14 17 27 -2 13 -17 12 -20 -7 -27 -30 -12 -108 -2
-118 14 -5 8 -2 20 7 30 10 11 12 19 5 24 -6 3 -11 11 -11 18 0 6 8 4 17 -6
15 -14 15 -21 6 -37z m-133 4 c0 -14 -3 -14 -15 -4 -8 7 -15 14 -15 16 0 2 7
4 15 4 8 0 15 -7 15 -16z"/>
<path d="M936 1137 c3 -10 9 -15 12 -12 3 3 0 11 -7 18 -10 9 -11 8 -5 -6z"/>
<path d="M566 1083 c-6 -14 -5 -15 5 -6 7 7 10 15 7 18 -3 3 -9 -2 -12 -12z"/>
<path d="M447 739 c7 -7 15 -10 18 -7 3 3 -2 9 -12 12 -14 6 -15 5 -6 -5z"/>
<path d="M415 720 c-3 -6 1 -7 9 -4 18 7 21 14 7 14 -6 0 -13 -4 -16 -10z"/>
<path d="M450 651 c0 -5 5 -13 10 -16 6 -3 10 -2 10 4 0 5 -4 13 -10 16 -5 3
-10 2 -10 -4z"/>
<path d="M516 432 c-3 -6 -1 -14 5 -17 14 -9 20 -2 10 14 -6 8 -11 9 -15 3z"/>
<path d="M766 964 c-18 -17 -13 -34 10 -34 8 0 14 10 14 25 0 29 -3 30 -24 9z"/>
<path d="M824 414 c3 -9 6 -20 6 -26 0 -6 6 -8 14 -5 10 4 14 0 11 -12 -3 -14
2 -17 23 -13 24 5 25 6 7 13 -20 8 -20 8 0 8 11 1 27 6 35 11 11 8 8 9 -12 4
-20 -4 -29 -2 -34 9 -3 9 -12 13 -20 10 -8 -3 -14 0 -14 6 0 6 -5 11 -11 11
-6 0 -8 -7 -5 -16z"/>
<path d="M123 810 c-26 -21 -30 -35 -8 -26 11 4 15 -2 15 -24 0 -21 -5 -30
-17 -30 -9 0 -13 -3 -9 -7 10 -10 76 -11 76 -1 0 4 -7 8 -14 8 -11 0 -16 14
-18 49 l-3 49 -22 -18z"/>
<path d="M202 814 c-26 -18 -27 -27 -6 -49 10 -10 24 -13 37 -9 20 6 20 5 8
-10 -9 -11 -21 -14 -35 -10 -18 6 -19 5 -7 -10 19 -23 38 -20 56 8 32 49 -10
111 -53 80z m38 -30 c0 -8 -7 -14 -15 -14 -15 0 -21 21 -9 33 10 9 24 -2 24
-19z"/>
<path d="M1255 809 c-10 -16 4 -24 17 -11 16 16 28 15 28 -3 0 -8 -7 -15 -15
-15 -23 0 -18 -17 7 -24 18 -4 20 -8 11 -17 -9 -9 -16 -9 -28 1 -8 7 -19 10
-23 6 -6 -7 24 -36 38 -36 3 0 15 6 26 14 16 13 17 18 7 35 -8 13 -9 22 -2 26
16 10 -10 35 -37 35 -12 0 -26 -5 -29 -11z"/>
<path d="M1346 804 c-13 -33 -7 -45 18 -38 27 6 44 -12 27 -29 -8 -8 -14 -8
-23 1 -14 14 -28 16 -28 2 0 -14 36 -31 54 -24 39 15 23 81 -16 70 -12 -3 -18
0 -15 7 2 7 14 11 25 9 12 -2 22 2 22 7 0 18 -57 13 -64 -5z"/>
<path d="M257 544 c-3 -5 -2 -16 4 -24 13 -21 11 -30 -5 -30 -8 0 -16 8 -18
18 -3 13 -8 10 -21 -15 -19 -36 -22 -53 -7 -53 6 0 10 9 10 20 0 27 19 25 29
-2 6 -16 4 -25 -5 -31 -8 -4 -14 -15 -14 -23 0 -13 7 -12 36 6 44 28 59 16 20
-15 -16 -12 -27 -28 -24 -35 2 -8 13 -4 33 12 17 14 36 23 43 21 18 -7 15 5
-12 40 -14 18 -33 52 -44 77 -10 24 -21 39 -25 34z m25 -96 c-13 -13 -26 8
-17 30 6 16 7 16 17 -1 7 -13 7 -22 0 -29z"/>
<path d="M1215 528 c-4 -10 -13 -18 -21 -18 -17 0 -71 -46 -63 -54 3 -4 18 5
34 19 41 39 42 23 2 -42 -37 -60 -97 -122 -155 -163 -31 -21 -37 -22 -72 -10
-50 16 -74 8 -68 -25 3 -13 0 -26 -6 -29 -6 -2 -4 -5 5 -5 9 -1 19 -16 25 -38
5 -20 15 -39 23 -41 11 -4 12 1 7 19 -20 63 -19 66 13 77 17 6 33 7 36 2 3 -4
-7 -11 -21 -14 -17 -5 -24 -12 -22 -24 2 -13 15 -17 50 -18 l47 -2 -19 39
c-12 23 -16 40 -10 44 14 9 32 -4 24 -17 -4 -6 0 -14 7 -19 10 -6 20 -1 31 14
15 18 20 19 27 8 5 -8 7 -20 4 -28 -7 -19 8 -16 23 4 7 10 16 14 21 10 12 -12
-35 -47 -63 -47 -13 0 -24 -4 -24 -10 0 -35 103 21 108 59 3 20 0 23 -17 18
-15 -4 -28 3 -46 26 l-24 32 31 32 c17 18 34 30 37 28 2 -3 -8 -19 -24 -35
l-29 -30 25 1 c13 1 29 1 34 -1 25 -6 39 2 18 10 -15 6 -21 15 -17 25 6 14 8
14 25 -1 13 -12 23 -14 30 -7 7 7 5 14 -6 23 -17 14 -20 40 -5 40 6 0 10 -7
10 -15 0 -8 5 -15 10 -15 6 0 10 9 10 20 0 22 -29 27 -48 8 -23 -23 -23 1 0
36 25 39 43 48 33 16 -4 -14 -2 -20 8 -20 17 0 47 31 47 49 0 7 4 10 9 7 5 -3
14 1 20 8 10 12 5 17 -23 27 -19 7 -37 20 -39 28 -3 14 -5 13 -12 -1z m23 -74
l3 -29 -16 29 c-18 34 -19 39 -2 34 6 -3 13 -18 15 -34z m-175 -189 c8 -19
-13 -31 -23 -14 -9 14 -4 29 10 29 4 0 10 -7 13 -15z m-118 -24 c-6 -5 -20
-12 -32 -16 -17 -5 -23 -2 -23 9 0 11 10 16 32 16 19 0 28 -4 23 -9z m35 -50
c0 -5 -7 -11 -15 -15 -15 -5 -20 5 -8 17 9 10 23 9 23 -2z"/>
<path d="M404 365 c-5 -13 -9 -13 -22 -3 -14 11 -15 10 -9 -6 6 -14 0 -27 -19
-47 -14 -15 -23 -32 -19 -38 4 -7 16 0 32 19 29 35 30 35 62 11 21 -16 23 -21
10 -33 -15 -16 -39 -13 -39 4 0 6 7 8 15 4 8 -3 15 -1 15 3 0 15 -33 22 -42 9
-12 -19 -10 -27 11 -40 10 -6 17 -17 14 -24 -11 -29 16 -20 33 11 21 40 20 39
54 20 l25 -15 -27 6 c-20 4 -28 2 -28 -8 0 -10 11 -13 40 -11 43 2 49 -6 24
-31 -18 -18 -30 -20 -39 -6 -3 5 2 10 11 10 14 0 15 3 7 11 -14 14 -46 4 -41
-13 4 -12 68 -52 73 -46 1 2 7 16 12 32 13 41 39 49 28 10 -11 -44 -11 -56 1
-61 7 -2 15 12 18 32 4 19 11 35 16 35 24 0 6 20 -27 30 -66 21 -134 62 -128
78 8 23 -24 71 -48 72 -4 0 -10 -7 -13 -15z m46 -41 c0 -18 -14 -18 -30 1 -16
19 -3 40 16 24 8 -6 14 -18 14 -25z"/>
<path d="M1046 362 c-3 -5 1 -9 9 -9 8 0 12 4 9 9 -3 4 -7 8 -9 8 -2 0 -6 -4
-9 -8z"/>
<path d="M670 201 c0 -6 9 -11 20 -11 11 0 20 -4 20 -10 0 -5 -7 -10 -15 -10
-8 0 -15 -4 -15 -8 0 -14 23 -32 41 -32 9 0 19 -7 23 -15 12 -32 23 -13 18 30
-4 36 -2 45 11 45 11 0 17 -12 19 -42 4 -61 25 -60 24 2 l-1 50 -50 0 c-27 0
-60 3 -72 6 -14 4 -23 2 -23 -5z m70 -31 c0 -11 -2 -20 -4 -20 -2 0 -11 -3
-20 -6 -13 -5 -13 -2 -3 20 14 31 27 34 27 6z"/>
<path d="M1796 1064 c-22 -53 -45 -98 -53 -101 -28 -11 -12 -28 27 -28 37 0
56 18 29 27 -7 2 -9 13 -5 26 10 31 72 32 81 1 4 -12 3 -24 -2 -28 -5 -3 -13
-15 -16 -25 -6 -16 -5 -17 8 -6 8 7 32 10 55 8 28 -2 40 0 40 9 0 7 -4 13 -9
13 -5 0 -28 45 -51 100 -23 55 -47 100 -54 100 -6 0 -29 -43 -50 -96z m42 -32
c-28 -5 -31 1 -16 33 l12 28 12 -29 c11 -26 10 -29 -8 -32z m47 -2 c3 -5 1
-10 -4 -10 -6 0 -11 5 -11 10 0 6 2 10 4 10 3 0 8 -4 11 -10z"/>
<path d="M1940 1123 c0 -36 15 -44 23 -13 3 13 14 20 29 20 23 0 23 -2 20 -85
-2 -47 -8 -85 -13 -85 -5 0 -9 -6 -9 -12 0 -9 17 -13 50 -13 33 0 50 4 50 13
0 6 -7 12 -15 12 -12 0 -15 16 -14 86 l1 85 26 -3 c15 -2 27 -9 27 -15 0 -27
20 -16 23 12 l3 30 -101 0 -100 0 0 -32z"/>
<path d="M2181 1074 c-19 -48 -42 -95 -52 -105 -28 -28 -24 -34 21 -34 37 0
56 18 29 27 -7 2 -9 13 -5 26 11 33 69 31 84 -3 10 -21 9 -25 -3 -25 -8 0 -15
-6 -15 -12 0 -9 16 -12 57 -9 49 3 55 5 40 16 -9 7 -35 55 -56 106 -22 52 -46
95 -53 97 -8 1 -26 -30 -47 -84z m59 -36 c0 -5 -11 -8 -24 -8 -24 0 -24 2 -14
31 l11 32 13 -24 c7 -13 13 -27 14 -31z"/>
<path d="M2353 1147 c-2 -4 3 -10 11 -13 13 -5 16 -23 16 -88 0 -50 -5 -87
-12 -94 -9 -9 6 -12 69 -12 79 0 81 1 87 26 4 15 5 29 2 31 -8 8 -26 -7 -26
-23 0 -9 -11 -14 -35 -14 l-35 0 0 85 c0 69 3 85 15 85 8 0 15 6 15 13 0 13
-98 18 -107 4z"/>
<path d="M2613 1147 c-2 -4 3 -10 11 -13 24 -9 23 -169 0 -178 -27 -10 -8 -18
46 -20 34 -1 50 3 50 12 0 6 -7 12 -15 12 -12 0 -15 16 -15 85 0 69 3 85 15
85 8 0 15 6 15 13 0 13 -98 18 -107 4z"/>
<path d="M2735 1152 c-10 -10 -5 -22 10 -22 12 0 15 -16 15 -85 0 -69 -3 -85
-15 -85 -33 0 -12 -18 25 -22 26 -2 40 1 40 8 0 7 -4 14 -9 16 -5 2 -11 32
-13 67 l-4 64 24 -29 c142 -170 142 -170 142 -35 0 79 3 100 15 105 29 11 15
21 -30 22 -32 1 -45 -3 -45 -13 0 -7 7 -13 15 -13 12 0 15 -13 15 -61 l0 -61
-58 72 c-48 60 -64 73 -90 75 -17 1 -34 0 -37 -3z m119 -102 c5 -8 -6 1 -25
20 -19 19 -33 39 -31 43 3 7 26 -19 56 -63z m54 -65 c-3 -3 -9 2 -12 12 -6 14
-5 15 5 6 7 -7 10 -15 7 -18z"/>
<path d="M3044 1141 c-59 -36 -70 -129 -21 -178 28 -29 110 -40 146 -21 22 12
28 38 6 29 -34 -14 -72 -11 -97 8 -48 39 -45 113 6 146 33 22 80 8 84 -23 5
-35 22 -25 22 12 0 26 -5 35 -22 40 -43 11 -93 6 -124 -13z"/>
<path d="M3200 1147 c0 -4 7 -10 15 -13 12 -5 15 -25 15 -89 0 -92 6 -102 64
-112 81 -13 116 29 116 138 0 33 4 59 10 59 6 0 10 6 10 13 0 8 -14 12 -40 12
-26 0 -40 -4 -40 -12 0 -7 7 -13 15 -13 12 0 15 -14 15 -69 0 -76 -13 -101
-54 -101 -37 0 -46 19 -46 96 0 57 3 73 16 78 9 4 14 9 10 13 -9 9 -106 10
-106 0z"/>
<path d="M3440 1143 c0 -7 7 -13 15 -13 12 0 15 -16 15 -84 0 -47 -4 -88 -10
-91 -24 -15 -5 -20 58 -15 38 3 76 11 85 19 24 19 22 78 -3 91 -19 10 -19 11
0 30 23 23 24 30 7 53 -16 22 -167 31 -167 10z m118 -40 c-2 -17 -10 -29 -20
-31 -14 -3 -18 3 -18 27 0 25 4 31 21 31 16 0 20 -5 17 -27z m10 -92 c4 -25
-14 -51 -34 -51 -10 0 -14 13 -14 45 0 42 1 44 23 36 12 -4 23 -18 25 -30z"/>
<path d="M3730 1134 c-36 -94 -73 -174 -81 -174 -5 0 -9 -6 -9 -13 0 -9 12
-11 40 -9 37 4 58 22 25 22 -18 0 -18 5 -5 31 15 27 66 26 80 -2 9 -17 8 -23
-6 -34 -16 -11 -11 -13 39 -16 38 -3 57 0 57 7 0 7 -6 14 -13 17 -7 2 -30 48
-52 101 -22 53 -46 96 -53 96 -7 0 -17 -12 -22 -26z m24 -66 c9 -35 8 -38 -15
-38 -15 0 -19 4 -15 16 3 9 6 22 6 30 0 22 17 16 24 -8z m41 -56 c-3 -3 -11 0
-18 7 -9 10 -8 11 6 5 10 -3 15 -9 12 -12z"/>
<path d="M3850 1123 c0 -18 5 -33 10 -33 6 0 10 9 10 20 0 15 7 20 25 20 25 0
25 -1 25 -85 0 -69 -3 -85 -15 -85 -8 0 -15 -6 -15 -12 0 -9 18 -13 55 -13 37
0 55 4 55 13 0 6 -7 12 -15 12 -12 0 -15 16 -15 85 0 84 0 85 25 85 18 0 25
-5 25 -20 0 -11 5 -20 10 -20 6 0 10 15 10 33 l0 32 -95 0 -95 0 0 -32z"/>
<path d="M4053 1147 c-2 -4 3 -10 11 -13 23 -9 24 -174 1 -174 -8 0 -15 -4
-15 -9 0 -5 25 -11 55 -13 39 -2 55 1 55 10 0 6 -7 12 -15 12 -12 0 -15 16
-15 85 0 69 3 85 15 85 8 0 15 6 15 14 0 9 -14 13 -51 12 -28 -1 -53 -4 -56
-9z"/>
<path d="M4224 1141 c-59 -36 -68 -135 -17 -183 19 -18 36 -23 79 -23 47 0 57
4 86 33 29 28 33 39 33 83 0 45 -4 54 -33 80 -39 35 -100 39 -148 10z m106
-23 c14 -16 20 -35 20 -72 0 -58 -20 -86 -61 -86 -38 0 -59 33 -59 92 0 78 55
114 100 66z"/>
<path d="M4420 1143 c0 -7 7 -13 15 -13 12 0 15 -16 15 -85 0 -69 -3 -85 -15
-85 -8 0 -15 -6 -15 -12 0 -8 15 -13 40 -13 24 0 40 5 40 12 0 6 -4 13 -8 15
-5 2 -12 32 -15 68 l-6 65 31 -40 c48 -60 114 -125 127 -125 7 0 11 32 11 99
0 82 3 100 16 105 25 10 8 20 -36 22 -29 2 -40 -2 -40 -12 0 -8 7 -14 15 -14
12 0 15 -13 15 -61 l0 -62 -59 73 c-52 63 -64 73 -95 75 -25 1 -36 -2 -36 -12z
m67 -20 c-4 -3 -1 -13 6 -22 11 -14 10 -14 -5 -2 -16 12 -16 31 -1 31 4 0 3
-3 0 -7z m117 -139 c7 -19 2 -18 -19 6 -16 17 -16 20 -3 15 9 -4 19 -13 22
-21z"/>
<path d="M4814 1145 c-40 -20 -59 -56 -57 -105 2 -53 18 -79 58 -96 58 -24
131 -11 143 24 3 11 0 12 -16 3 -61 -33 -132 7 -132 74 0 47 15 73 47 86 35
13 62 3 75 -29 l11 -27 10 33 c5 18 7 35 3 39 -14 15 -112 13 -142 -2z"/>
<path d="M4970 1143 c0 -7 5 -13 10 -13 13 0 13 -167 0 -175 -23 -14 2 -20 77
-17 l79 3 2 30 c3 33 -13 40 -21 9 -4 -15 -14 -20 -41 -20 -35 0 -36 1 -36 40
0 36 3 40 25 40 16 0 25 -6 25 -15 0 -8 6 -15 14 -15 9 0 13 13 13 40 0 27 -4
40 -13 40 -8 0 -14 -7 -14 -15 0 -9 -9 -15 -25 -15 -22 0 -25 4 -25 35 0 33 2
35 35 35 24 0 35 -5 35 -15 0 -8 5 -15 10 -15 6 0 10 9 10 20 0 11 0 23 0 26
0 4 -36 7 -80 8 -58 1 -80 -2 -80 -11z"/>
<path d="M5150 1149 c0 -5 7 -12 15 -15 12 -5 15 -25 15 -90 0 -68 -3 -84 -15
-84 -33 0 -12 -18 25 -22 28 -2 40 0 40 9 0 7 -4 13 -9 13 -5 0 -11 29 -13 65
-1 36 -1 65 2 65 3 0 13 -12 22 -27 24 -40 112 -133 126 -133 8 0 12 29 12 99
0 82 3 100 16 105 24 9 10 18 -31 21 -38 2 -54 -9 -31 -22 13 -7 28 -124 16
-122 -3 0 -30 33 -61 72 -50 65 -59 72 -92 74 -20 1 -37 -3 -37 -8z m71 -36
c13 -16 12 -17 -3 -4 -10 7 -18 15 -18 17 0 8 8 3 21 -13z m33 -29 c3 -8 2
-12 -4 -9 -6 3 -10 10 -10 16 0 14 7 11 14 -7z m61 -74 c3 -5 1 -10 -4 -10 -6
0 -11 5 -11 10 0 6 2 10 4 10 3 0 8 -4 11 -10z m29 -26 c3 -8 2 -12 -4 -9 -6
3 -10 10 -10 16 0 14 7 11 14 -7z"/>
<path d="M5407 1127 c-4 -33 12 -48 20 -18 3 14 13 21 29 21 23 0 24 -2 24
-85 0 -69 -3 -85 -15 -85 -8 0 -15 -6 -15 -12 0 -17 103 -15 108 1 2 6 -3 11
-12 11 -13 0 -16 14 -16 85 0 80 1 85 21 85 12 0 23 -8 26 -20 8 -31 23 -23
23 13 l0 32 -94 0 -94 0 -5 -28z"/>
<path d="M5610 1143 c0 -7 7 -13 15 -13 12 0 15 -16 15 -85 0 -69 -3 -85 -15
-85 -8 0 -15 -6 -15 -12 0 -9 17 -13 50 -13 33 0 50 4 50 13 0 6 -4 12 -9 12
-5 0 -11 18 -13 40 -2 22 -1 40 2 40 3 0 19 -22 37 -49 24 -37 39 -50 62 -53
21 -3 31 0 31 8 0 7 -4 14 -8 16 -5 2 -20 21 -35 43 -27 39 -27 39 -7 60 23
25 26 58 6 74 -20 16 -166 20 -166 4z m125 -24 c12 -18 -4 -56 -25 -62 -18 -4
-20 0 -20 34 0 32 4 39 19 39 11 0 23 -5 26 -11z"/>
<path d="M5823 1147 c-2 -4 3 -10 11 -13 13 -5 16 -23 16 -88 0 -50 -5 -87
-12 -94 -9 -9 6 -12 69 -12 l81 0 4 30 c5 33 -11 42 -19 10 -4 -15 -14 -20
-39 -20 -33 0 -34 1 -34 40 0 36 3 40 25 40 16 0 25 -6 25 -15 0 -8 6 -15 13
-15 7 0 12 15 12 40 1 26 -3 40 -12 40 -7 0 -13 -7 -13 -15 0 -9 -9 -15 -25
-15 -22 0 -25 4 -25 35 0 33 2 35 35 35 24 0 35 -5 35 -15 0 -8 5 -15 11 -15
6 0 9 12 7 26 -3 25 -5 26 -81 27 -44 1 -81 -1 -84 -6z"/>
<path d="M4710 1136 c0 -2 7 -7 16 -10 8 -3 12 -2 9 4 -6 10 -25 14 -25 6z"/>
<path d="M1865 791 l-60 -6 57 -8 c82 -10 3978 -9 3978 2 0 5 -21 11 -47 14
-66 7 -3854 4 -3928 -2z"/>
<path d="M4040 673 c0 -7 6 -13 13 -13 8 0 36 -54 66 -129 35 -86 59 -131 70
-134 15 -4 28 19 71 125 29 72 59 132 67 135 31 12 11 28 -37 28 -33 0 -50 -4
-50 -12 0 -7 7 -13 15 -13 21 0 19 -21 -10 -92 -14 -34 -25 -67 -25 -75 0 -7
-4 -13 -10 -13 -5 0 -10 6 -10 14 0 7 -13 46 -30 86 -16 40 -30 74 -30 76 0 2
9 4 21 4 11 0 19 5 17 11 -5 16 -138 18 -138 2z m85 -41 c-3 -3 0 -11 6 -19
13 -15 1 -17 -21 -3 -13 9 -13 11 0 20 10 6 11 10 3 10 -7 0 -13 5 -13 11 0 8
5 7 15 -1 9 -7 13 -15 10 -18z m28 -78 c13 -25 13 -31 2 -31 -7 0 -11 6 -8 14
3 7 0 13 -6 13 -6 0 -11 10 -11 22 0 25 2 23 23 -18z m34 -71 c-4 -3 1 -11 9
-18 14 -10 14 -12 2 -12 -9 0 -20 9 -27 19 -9 15 -8 18 6 18 9 0 13 -3 10 -7z"/>
<path d="M1720 670 c0 -7 9 -14 20 -17 19 -5 20 -14 20 -119 0 -69 -4 -114
-10 -114 -5 0 -10 -5 -10 -11 0 -7 28 -10 86 -8 79 4 87 6 110 32 13 15 24 41
24 56 0 32 -32 66 -54 58 -9 -4 -18 -1 -22 5 -4 6 -3 8 3 5 14 -9 63 38 63 61
0 10 -6 27 -14 38 -12 16 -29 20 -115 22 -73 3 -101 1 -101 -8z m158 -58 c3
-27 -1 -34 -23 -42 -14 -6 -28 -10 -31 -10 -2 0 -4 21 -4 46 0 44 1 45 28 42
22 -2 28 -8 30 -36z m52 4 c0 -3 -4 -8 -10 -11 -5 -3 -10 -1 -10 4 0 6 5 11
10 11 6 0 10 -2 10 -4z m-128 -60 c2 -10 -4 -21 -12 -23 -13 -4 -13 -3 0 6 8
6 10 11 5 11 -6 0 -11 10 -12 21 -2 26 14 13 19 -15z m69 -26 c13 -7 19 -21
19 -43 0 -39 -15 -57 -47 -57 -21 0 -23 4 -23 55 0 59 9 67 51 45z m-71 -40
c0 -16 -2 -30 -4 -30 -2 0 -6 14 -8 30 -3 17 -1 30 4 30 4 0 8 -13 8 -30z
m132 -16 c-13 -23 -25 -1 -16 28 6 19 7 19 16 5 5 -10 5 -23 0 -33z"/>
<path d="M2046 535 c-21 -53 -44 -102 -52 -110 -21 -21 -17 -25 26 -25 22 0
40 5 40 10 0 6 -7 10 -14 10 -12 0 -13 6 -5 28 8 24 14 27 43 24 24 -3 37 -11
45 -28 8 -19 8 -24 -4 -24 -8 0 -15 -4 -15 -10 0 -5 25 -10 55 -10 30 0 55 5
55 10 0 6 -6 10 -12 10 -7 0 -33 47 -57 105 -24 58 -49 105 -56 105 -6 0 -29
-43 -49 -95z m49 25 c-3 -10 -1 -28 5 -40 9 -18 8 -20 -15 -20 -25 0 -25 0
-10 36 8 20 15 38 15 40 0 2 3 4 6 4 3 0 3 -9 -1 -20z"/>
<path d="M2224 618 c-3 -4 4 -12 15 -17 17 -9 18 -19 14 -93 -3 -46 -9 -84
-14 -86 -23 -9 -5 -22 31 -22 22 0 40 5 40 10 0 6 -7 10 -15 10 -12 0 -15 14
-15 69 0 39 5 73 11 76 6 5 4 12 -8 22 -16 13 -16 13 5 3 19 -9 21 -14 11 -26
-9 -11 0 -27 46 -84 52 -63 81 -90 99 -90 3 0 6 47 6 105 0 89 2 105 16 105 9
0 14 5 12 11 -5 16 -88 18 -88 2 0 -7 7 -13 15 -13 12 0 15 -14 15 -62 l0 -63
-35 40 c-19 22 -45 54 -57 72 -17 24 -31 32 -61 35 -21 2 -41 0 -43 -4z m186
-160 c0 -5 4 -7 8 -4 5 3 9 -1 9 -9 0 -11 -5 -10 -24 2 -27 18 -28 20 -8 20 8
0 15 -4 15 -9z"/>
<path d="M2582 613 c-5 -10 -24 -56 -42 -101 -18 -46 -39 -86 -46 -89 -28 -10
-13 -23 26 -23 37 0 55 13 29 22 -7 2 -9 13 -5 25 5 15 17 22 41 25 28 3 36 0
44 -20 14 -30 14 -32 -4 -32 -8 0 -15 -4 -15 -10 0 -5 25 -10 55 -10 49 0 73
12 44 22 -6 2 -30 48 -54 103 -43 102 -57 119 -73 88z m17 -83 c9 -28 8 -30
-14 -30 -22 0 -23 2 -12 30 6 17 12 30 13 30 1 0 7 -13 13 -30z m55 -56 c3 -8
2 -12 -4 -9 -6 3 -10 10 -10 16 0 14 7 11 14 -7z"/>
<path d="M2766 609 c-19 -15 -26 -30 -26 -54 0 -39 11 -49 66 -64 46 -12 59
-30 40 -56 -17 -24 -68 -16 -81 13 -14 31 -25 28 -25 -8 0 -24 6 -33 28 -41
60 -23 132 18 132 77 0 38 -16 53 -64 61 -20 3 -41 12 -48 20 -10 13 -8 19 10
33 26 22 62 15 62 -11 0 -11 7 -19 15 -19 10 0 15 10 15 29 0 21 -6 30 -22 35
-42 11 -75 6 -102 -15z"/>
<path d="M3178 623 c-27 -2 -48 -8 -48 -14 0 -5 5 -9 10 -9 6 0 10 -37 10 -90
0 -73 -3 -90 -15 -90 -8 0 -15 -4 -15 -10 0 -5 25 -10 55 -10 52 0 72 11 41
23 -8 3 -13 20 -12 42 1 37 1 37 49 40 l47 2 0 -43 c0 -32 -4 -44 -15 -44 -8
0 -15 -4 -15 -10 0 -6 38 -10 95 -10 52 0 95 4 95 9 0 5 -5 11 -11 13 -7 2 -9
13 -5 25 5 15 17 22 41 25 28 3 36 0 44 -20 14 -30 14 -32 -4 -32 -8 0 -15 -4
-15 -10 0 -5 25 -10 55 -10 57 0 65 5 41 24 -8 6 -32 54 -54 106 -21 52 -45
95 -52 95 -7 0 -31 -44 -54 -100 -37 -90 -44 -100 -69 -103 l-27 -3 0 90 c0
76 3 91 16 91 9 0 14 5 12 11 -5 16 -108 18 -108 2 0 -7 7 -13 15 -13 10 0 15
-11 15 -35 l0 -35 -49 0 -49 0 0 35 c0 23 5 35 14 35 8 0 14 7 14 15 0 8 -1
14 -2 13 -2 -1 -24 -3 -50 -5z m321 -93 c9 -28 8 -30 -14 -30 -22 0 -23 2 -12
30 6 17 12 30 13 30 1 0 7 -13 13 -30z m65 -86 c3 -8 2 -12 -4 -9 -6 3 -10 10
-10 16 0 14 7 11 14 -7z"/>
<path d="M3630 613 c0 -7 7 -13 15 -13 12 0 15 -17 15 -90 0 -53 -4 -90 -10
-90 -5 0 -10 -4 -10 -10 0 -6 34 -10 83 -10 l82 0 2 35 c3 37 -12 48 -22 16
-5 -18 -58 -35 -70 -23 -3 3 -5 43 -5 89 0 67 3 83 15 83 8 0 15 6 15 13 0 8
-18 12 -55 12 -37 0 -55 -4 -55 -12z"/>
<path d="M3820 613 c0 -7 7 -13 15 -13 12 0 15 -17 15 -90 0 -73 -3 -90 -15
-90 -8 0 -15 -4 -15 -10 0 -5 25 -10 55 -10 30 0 55 5 55 10 0 6 -7 10 -15 10
-12 0 -15 17 -15 90 0 73 3 90 15 90 8 0 15 6 15 13 0 8 -18 12 -55 12 -37 0
-55 -4 -55 -12z"/>
<path d="M4350 620 c0 -5 7 -10 15 -10 12 0 15 -17 15 -95 0 -78 -3 -95 -15
-95 -8 0 -15 -4 -15 -10 0 -5 25 -10 55 -10 53 0 72 11 40 24 -12 4 -15 24
-15 91 0 67 3 87 15 91 32 13 13 24 -40 24 -30 0 -55 -4 -55 -10z"/>
<path d="M4470 621 c0 -6 7 -11 15 -11 12 0 15 -17 15 -93 0 -59 -4 -97 -12
-105 -18 -18 123 -16 167 2 65 27 88 129 41 183 -23 27 -29 28 -125 31 -69 3
-101 0 -101 -7z m173 -39 c45 -50 20 -141 -43 -153 -19 -4 -38 -5 -42 -3 -5 3
-8 43 -8 90 l0 84 38 0 c25 0 45 -7 55 -18z m52 -83 c-3 -12 -7 -24 -10 -27
-3 -3 -3 5 -1 19 6 30 5 29 10 29 3 0 3 -10 1 -21z"/>
<path d="M4748 623 c-23 -6 -23 -15 2 -31 34 -21 70 -88 70 -132 0 -29 -4 -40
-15 -40 -8 0 -15 -4 -15 -10 0 -5 25 -10 55 -10 52 0 72 11 40 24 -26 10 -12
80 29 141 42 63 42 65 18 65 -12 0 -26 -17 -42 -50 -22 -48 -40 -64 -40 -37 0
7 -11 29 -25 50 -25 35 -38 40 -77 30z m107 -111 c-3 -3 -11 0 -18 7 -9 10 -8
11 6 5 10 -3 15 -9 12 -12z"/>
<path d="M5016 535 c-21 -53 -44 -102 -52 -110 -21 -21 -17 -25 26 -25 22 0
40 5 40 10 0 6 -7 10 -15 10 -18 0 -18 2 -3 35 8 19 19 25 43 25 24 0 35 -6
43 -25 15 -33 15 -35 -3 -35 -8 0 -15 -4 -15 -10 0 -5 25 -10 55 -10 49 0 73
12 44 22 -6 2 -30 48 -53 103 -24 55 -50 101 -58 103 -10 2 -26 -27 -52 -93z
m64 45 c0 -5 -5 -10 -11 -10 -5 0 -7 5 -4 10 3 6 8 10 11 10 2 0 4 -4 4 -10z
m-11 -50 c9 -28 8 -30 -14 -30 -22 0 -23 2 -14 30 6 17 12 30 14 30 2 0 8 -13
14 -30z m46 -40 c3 -5 1 -10 -4 -10 -6 0 -11 5 -11 10 0 6 2 10 4 10 3 0 8 -4
11 -10z"/>
<path d="M5200 621 c0 -5 7 -11 15 -15 12 -4 15 -24 15 -91 0 -67 -3 -87 -15
-91 -32 -13 -13 -24 40 -24 30 0 55 5 55 10 0 6 -7 10 -15 10 -12 0 -15 16
-15 88 0 49 3 92 6 95 4 3 15 2 25 -4 26 -14 25 -59 -1 -66 -28 -7 -19 -29 11
-25 26 2 69 45 69 68 0 8 -9 23 -20 34 -16 16 -33 20 -95 20 -41 0 -75 -4 -75
-9z"/>
<path d="M5400 621 c0 -5 7 -11 15 -15 12 -4 15 -24 15 -91 0 -67 -3 -87 -15
-91 -32 -13 -13 -24 40 -24 30 0 55 5 55 10 0 6 -7 10 -15 10 -12 0 -15 17
-15 95 0 78 3 95 15 95 8 0 15 5 15 10 0 6 -25 10 -55 10 -30 0 -55 -4 -55 -9z"/>
<path d="M5520 594 c0 -21 4 -33 10 -29 6 3 10 13 10 21 0 9 10 14 28 14 l27
0 -3 -90 c-3 -70 -7 -90 -18 -90 -8 0 -14 -4 -14 -10 0 -6 27 -10 60 -10 33 0
60 4 60 10 0 6 -7 10 -15 10 -12 0 -15 17 -15 90 0 89 0 90 25 90 18 0 25 -5
25 -20 0 -11 5 -20 10 -20 6 0 10 13 10 29 0 24 3 28 20 24 18 -5 20 -14 20
-99 0 -77 -3 -94 -15 -94 -8 0 -15 -4 -15 -10 0 -5 25 -10 55 -10 30 0 55 5
55 10 0 6 -7 10 -15 10 -11 0 -15 12 -15 45 l0 45 50 0 50 0 0 -45 c0 -33 -4
-45 -15 -45 -8 0 -15 -4 -15 -10 0 -5 25 -10 55 -10 30 0 55 5 55 10 0 6 -7
10 -15 10 -12 0 -15 17 -15 95 0 78 3 95 15 95 8 0 15 5 15 10 0 6 -25 10 -55
10 -30 0 -55 -4 -55 -10 0 -5 7 -10 15 -10 11 0 15 -11 15 -40 l0 -40 -50 0
-50 0 0 40 c0 29 4 40 15 40 8 0 15 5 15 10 0 6 -60 10 -160 10 l-160 0 0 -36z
m277 -79 c0 -8 -4 -12 -9 -9 -5 3 -6 10 -3 15 9 13 12 11 12 -6z"/>
<path d="M2920 590 c0 -34 15 -40 23 -10 3 12 14 20 26 20 20 0 21 -5 21 -90
0 -73 -3 -90 -15 -90 -8 0 -15 -4 -15 -10 0 -5 25 -10 55 -10 30 0 55 5 55 10
0 6 -7 10 -15 10 -12 0 -15 17 -15 90 0 71 3 90 14 90 27 0 45 -12 39 -26 -3
-8 1 -14 11 -14 11 0 16 9 16 30 l0 30 -100 0 -100 0 0 -30z"/>
<path d="M4750 401 c0 -6 4 -13 10 -16 6 -3 7 1 4 9 -7 18 -14 21 -14 7z"/>
<path d="M4926 377 c3 -10 9 -15 12 -12 3 3 0 11 -7 18 -10 9 -11 8 -5 -6z"/>
<path d="M5370 356 c0 -2 8 -10 18 -17 15 -13 16 -12 3 4 -13 16 -21 21 -21
13z"/>
<path d="M2560 298 c0 -30 -9 -41 -42 -55 -15 -7 -34 -26 -43 -43 -24 -47 -1
-68 37 -33 18 16 18 16 12 0 -3 -9 -2 -17 2 -17 13 1 44 26 44 35 0 4 -7 2
-15 -5 -20 -17 -19 -12 10 66 29 78 29 74 10 74 -9 0 -15 -9 -15 -22z m-46
-109 c-15 -16 -29 -27 -32 -25 -5 6 15 41 35 62 30 30 28 -5 -3 -37z"/>
<path d="M2670 304 c0 -10 -10 -44 -22 -76 -15 -41 -18 -62 -11 -69 17 -17 53
0 74 34 10 18 19 28 19 22 0 -5 5 -3 10 5 7 11 10 3 10 -28 0 -52 -15 -83 -35
-76 -9 4 -15 0 -15 -10 0 -22 16 -20 40 6 47 50 86 138 61 138 -6 0 -11 -10
-11 -22 0 -13 -5 -30 -10 -38 -7 -11 -10 -8 -10 16 0 38 -9 48 -27 32 -11 -9
-17 -9 -23 3 -8 11 -13 12 -30 1 -24 -15 -24 -12 -5 35 8 19 15 37 15 39 0 2
-7 4 -15 4 -8 0 -15 -7 -15 -16z m40 -70 c0 -13 -35 -64 -47 -68 -20 -8 -16
18 8 48 19 24 39 34 39 20z"/>
<path d="M3202 313 c-6 -2 -10 -9 -7 -13 3 -5 -4 -38 -17 -74 -12 -36 -20 -68
-16 -71 9 -9 48 13 48 27 0 7 -5 6 -15 -2 -8 -7 -15 -10 -15 -8 0 5 33 102 45
131 7 17 1 20 -23 10z"/>
<path d="M1798 299 c-24 -14 -23 -52 2 -74 25 -22 26 -51 3 -59 -11 -5 -23 1
-35 16 l-18 23 0 -22 c0 -26 43 -42 69 -26 25 16 26 69 2 83 -25 13 -28 45 -5
54 19 7 37 -2 29 -15 -4 -5 -1 -9 5 -9 6 0 10 8 8 18 -4 20 -36 26 -60 11z"/>
<path d="M2958 297 c-7 -8 -31 -39 -52 -70 -22 -32 -45 -57 -53 -57 -7 0 -13
-4 -13 -10 0 -5 13 -10 30 -10 22 0 28 4 24 15 -8 20 13 45 37 45 12 0 19 -7
19 -20 0 -11 -4 -20 -10 -20 -5 0 -10 -4 -10 -10 0 -5 14 -10 31 -10 27 0 30
2 19 15 -9 11 -10 34 -5 80 7 68 5 74 -17 52z m-2 -49 c-3 -13 -5 -25 -5 -27
-1 -3 -6 0 -13 7 -8 8 -8 15 2 27 17 21 21 19 16 -7z"/>
<path d="M3308 298 c11 -11 -21 -121 -37 -126 -23 -8 -10 -22 21 -22 23 0 29
3 21 11 -12 12 18 121 36 127 23 8 10 21 -19 20 -19 -1 -27 -5 -22 -10z"/>
<path d="M4256 301 c-4 -5 -2 -11 4 -13 13 -4 -27 -108 -48 -125 -15 -11 -13
-12 16 -13 29 0 44 13 24 22 -4 2 0 23 9 48 l17 45 7 -40 c3 -22 7 -47 8 -55
1 -8 20 9 41 38 21 29 40 51 42 49 7 -7 -21 -79 -33 -84 -24 -9 -13 -23 17
-23 17 0 30 5 30 10 0 6 -4 10 -8 10 -5 0 -2 27 7 60 9 34 21 60 28 60 7 0 13
4 13 9 0 6 -9 9 -20 8 -11 -1 -35 -23 -57 -54 -21 -29 -41 -53 -45 -53 -5 0
-8 25 -8 55 0 48 -3 55 -19 55 -11 0 -22 -4 -25 -9z"/>
<path d="M4990 300 c0 -6 4 -10 9 -10 12 0 -24 -113 -38 -118 -21 -7 -11 -22
15 -22 19 0 25 4 20 15 -7 19 15 105 26 105 4 0 8 -6 9 -12 0 -7 10 -35 23
-63 l23 -50 23 70 c13 39 30 75 39 82 14 11 11 12 -16 13 -30 0 -45 -13 -25
-22 4 -1 2 -25 -6 -53 l-14 -49 -22 58 c-17 45 -28 60 -44 63 -12 1 -22 -2
-22 -7z"/>
<path d="M5165 292 c8 -20 -24 -114 -44 -129 -14 -11 -11 -12 18 -13 25 0 32
4 28 15 -9 21 22 117 42 131 14 11 11 13 -17 12 -25 -1 -32 -5 -27 -16z"/>
<path d="M5226 293 c-9 -23 -7 -28 6 -15 19 19 50 15 44 -5 -2 -10 -10 -37
-17 -60 -7 -24 -18 -43 -26 -43 -7 0 -13 -4 -13 -10 0 -5 16 -10 36 -10 31 0
35 2 25 14 -18 22 16 126 41 126 10 0 18 -6 18 -12 0 -8 7 -4 15 6 10 13 18
17 25 10 12 -12 -15 -103 -36 -120 -21 -17 -17 -24 16 -24 17 0 30 5 30 10 0
6 -4 10 -9 10 -15 0 26 111 46 125 13 10 -4 12 -90 13 -85 0 -107 -3 -111 -15z"/>
<path d="M5519 240 c-28 -38 -55 -70 -60 -70 -5 0 -9 -4 -9 -10 0 -5 12 -10
26 -10 14 0 22 4 19 10 -11 18 15 50 40 50 29 0 31 -7 9 -38 -15 -21 -14 -22
16 -22 22 0 29 4 23 13 -4 6 -6 42 -4 80 1 37 0 67 -3 67 -3 0 -29 -31 -57
-70z m30 -11 c-20 -12 -22 -4 -8 23 12 21 13 21 17 4 2 -10 -2 -22 -9 -27z"/>
<path d="M3940 290 c0 -5 5 -10 10 -10 6 0 10 5 10 10 0 6 -4 10 -10 10 -5 0
-10 -4 -10 -10z"/>
<path d="M4450 284 c0 -8 5 -12 10 -9 6 3 10 10 10 16 0 5 -4 9 -10 9 -5 0
-10 -7 -10 -16z"/>
<path d="M4622 289 c2 -6 8 -10 13 -10 5 0 11 4 13 10 2 6 -4 11 -13 11 -9 0
-15 -5 -13 -11z"/>
<path d="M2358 251 c-9 -10 -14 -21 -12 -24 2 -2 -1 -18 -7 -36 -6 -18 -9 -34
-6 -37 7 -7 47 18 47 30 0 4 -7 3 -15 -4 -18 -15 -19 -9 -3 25 6 14 17 25 25
25 7 0 13 5 13 11 0 5 -4 8 -9 4 -5 -3 -11 2 -13 10 -2 13 -6 13 -20 -4z"/>
<path d="M3035 258 c-4 -10 -15 -18 -24 -18 -12 0 -13 -2 -3 -8 9 -7 10 -16 1
-41 -15 -42 -4 -51 24 -21 12 13 14 18 5 11 -21 -15 -22 -12 -8 23 5 14 16 26
25 26 8 0 15 5 15 11 0 5 -4 8 -9 4 -5 -3 -11 3 -14 12 -4 17 -4 17 -12 1z"/>
<path d="M3868 251 c-9 -10 -14 -21 -12 -24 2 -2 -1 -18 -7 -36 -6 -18 -9 -34
-6 -37 8 -8 47 15 47 28 0 7 -5 6 -15 -2 -18 -15 -19 -9 -3 25 8 18 18 25 29
22 12 -3 16 0 12 9 -3 8 -9 12 -13 9 -5 -3 -10 2 -12 10 -2 13 -6 13 -20 -4z"/>
<path d="M2000 250 c0 -5 -7 -10 -15 -10 -8 0 -15 -5 -15 -11 0 -5 5 -7 10 -4
14 8 13 5 -11 -59 -12 -31 -26 -56 -30 -56 -5 0 -9 -4 -9 -9 0 -5 12 -8 26 -8
17 0 24 4 20 13 -7 19 3 44 18 44 18 0 56 44 56 65 0 10 -8 24 -17 31 -22 16
-33 17 -33 4z m30 -39 c0 -10 -9 -26 -20 -36 -23 -20 -25 -12 -9 33 11 33 29
34 29 3z"/>
<path d="M2100 250 c0 -5 -7 -10 -15 -10 -8 0 -15 -5 -15 -11 0 -5 5 -7 12 -3
8 5 9 2 4 -12 -5 -10 -15 -38 -23 -61 -8 -24 -19 -43 -24 -43 -5 0 -9 -4 -9
-9 0 -5 11 -8 25 -7 16 0 23 6 20 14 -6 17 5 42 19 42 18 0 56 44 56 65 0 10
-8 24 -17 31 -22 16 -33 17 -33 4z m30 -39 c0 -10 -9 -26 -20 -36 -23 -20 -25
-12 -9 33 11 33 29 34 29 3z"/>
<path d="M3113 244 c-35 -17 -68 -73 -52 -88 6 -6 13 -6 21 2 9 9 9 12 0 12
-9 0 -8 8 3 30 9 17 22 30 31 30 12 0 13 -4 2 -22 -27 -49 -10 -82 22 -43 11
13 10 14 -4 9 -15 -6 -15 -3 0 31 20 49 15 57 -23 39z"/>
<path d="M3821 253 c-1 -7 -7 -10 -14 -7 -7 2 -25 -8 -39 -23 -30 -32 -40 -68
-19 -68 9 0 15 11 15 28 2 26 19 46 39 47 9 0 1 -16 -22 -44 -12 -14 -12 -17
-2 -11 11 6 13 4 8 -8 -8 -22 16 -23 33 -2 11 13 10 14 -4 9 -15 -6 -15 -3 0
31 8 20 13 42 10 48 -3 9 -5 9 -5 0z"/>
<path d="M5680 251 c0 -6 -6 -8 -14 -5 -7 3 -25 -9 -40 -26 -36 -44 -34 -94 2
-58 10 10 15 10 22 -2 8 -13 12 -13 27 3 17 17 17 18 0 11 -18 -6 -18 -4 2 34
13 25 17 43 11 47 -6 3 -10 2 -10 -4z m-19 -39 c-5 -10 -17 -24 -25 -32 -23
-18 -22 7 1 32 21 23 37 23 24 0z"/>
<path d="M1869 233 c-12 -14 -12 -16 0 -8 11 6 13 4 8 -9 -25 -65 -16 -85 19
-44 19 22 19 22 0 8 -18 -14 -19 -13 -13 3 23 62 16 87 -14 50z"/>
<path d="M1931 231 c-17 -30 -25 -81 -13 -81 5 0 17 10 28 22 15 19 16 20 2 9
-20 -15 -23 -9 -7 20 5 11 9 28 7 37 -3 14 -6 13 -17 -7z"/>
<path d="M2181 224 c-41 -52 -6 -99 39 -54 25 25 24 73 -1 78 -9 2 -26 -9 -38
-24z m23 -42 c-16 -23 -19 -24 -22 -9 -2 10 4 30 14 45 16 23 19 24 22 9 2
-10 -4 -30 -14 -45z"/>
<path d="M2267 243 c-11 -10 -8 -25 4 -18 5 4 3 -10 -6 -31 -8 -20 -12 -40 -9
-43 4 -3 8 -1 10 4 12 31 46 75 54 70 6 -3 10 1 10 9 0 19 -11 21 -28 4 -9 -9
-12 -9 -12 0 0 13 -13 16 -23 5z"/>
<path d="M2411 224 c-11 -15 -21 -35 -21 -46 0 -26 28 -34 48 -13 16 16 16 17
-5 10 -34 -10 -28 12 8 30 16 9 28 22 26 28 -7 22 -35 18 -56 -9z m34 -3 c-3
-6 -11 -11 -17 -11 -6 0 -6 6 2 15 14 17 26 13 15 -4z"/>
<path d="M3350 235 c-11 -13 -10 -14 4 -9 14 6 15 3 1 -30 -17 -41 -18 -46 -6
-46 5 0 14 13 21 29 11 26 50 72 50 59 0 -3 -7 -22 -15 -41 -8 -20 -15 -39
-15 -42 0 -12 29 -4 41 12 12 15 12 16 -4 10 -16 -6 -16 -5 -1 24 21 41 4 61
-27 33 -20 -17 -22 -17 -16 -1 8 22 -15 23 -33 2z"/>
<path d="M3459 233 c-12 -15 -12 -16 3 -10 15 5 15 3 2 -28 -16 -40 -17 -45
-6 -45 11 0 35 49 38 78 3 26 -18 29 -37 5z"/>
<path d="M3510 235 c-11 -13 -10 -14 4 -9 16 6 16 4 2 -31 -9 -21 -16 -39 -16
-41 0 -9 17 -3 36 12 16 13 17 15 1 10 -16 -5 -16 -3 -2 24 8 16 15 34 15 40
0 15 -26 12 -40 -5z"/>
<path d="M3581 224 c-25 -32 -27 -62 -4 -71 21 -8 65 42 61 71 -4 31 -33 31
-57 0z m23 -42 c-16 -23 -19 -24 -22 -9 -2 10 4 30 14 45 16 23 19 24 22 9 2
-10 -4 -30 -14 -45z"/>
<path d="M3660 235 c-11 -13 -10 -14 4 -9 14 6 15 3 1 -29 -17 -40 -7 -54 25
-37 32 17 64 90 40 90 -5 0 -10 -11 -10 -23 0 -21 -27 -57 -43 -57 -3 0 0 15
8 34 18 44 2 64 -25 31z"/>
<path d="M3925 240 c-3 -5 -4 -10 0 -10 3 0 -2 -16 -10 -37 -8 -20 -13 -38
-11 -40 7 -7 46 17 46 29 0 6 -6 5 -17 -3 -15 -13 -15 -12 0 18 10 18 17 37
17 43 0 13 -17 13 -25 0z"/>
<path d="M3981 224 c-27 -34 -24 -68 6 -72 43 -6 74 88 32 96 -9 2 -26 -9 -38
-24z m29 -43 c-6 -12 -16 -21 -21 -21 -13 0 -3 48 14 69 10 12 13 11 15 -7 2
-11 -2 -30 -8 -41z"/>
<path d="M4073 243 c-7 -2 -13 -9 -13 -14 0 -6 5 -7 10 -4 13 8 13 4 -5 -39
-20 -48 -7 -45 28 5 32 47 42 47 26 0 -14 -39 -5 -51 19 -26 10 10 11 15 3 10
-11 -6 -13 -4 -6 11 25 60 12 83 -27 47 -18 -16 -18 -16 -12 0 6 17 0 20 -23
10z"/>
<path d="M4434 238 c-5 -7 -9 -19 -9 -28 -1 -8 -5 -25 -9 -37 -8 -24 0 -29 24
-13 9 5 19 5 27 -2 21 -17 46 10 39 44 -4 22 -2 28 11 28 13 0 14 3 5 12 -9
10 -16 8 -29 -5 -14 -13 -15 -21 -5 -42 10 -22 9 -25 -8 -25 -11 0 -20 5 -20
11 0 8 -5 8 -15 -1 -13 -11 -13 -8 0 23 8 20 15 39 15 42 0 10 -19 5 -26 -7z"/>
<path d="M4551 236 c-7 -8 -9 -25 -5 -42 6 -23 4 -26 -10 -21 -10 4 -16 1 -16
-8 0 -20 24 -19 40 0 10 12 10 21 2 40 -11 24 -10 25 22 22 l33 -2 -15 -32
c-20 -42 -8 -54 21 -23 14 15 15 19 4 10 -18 -14 -18 -13 -3 24 19 45 16 52
-13 37 -13 -7 -22 -8 -26 -1 -9 14 -20 12 -34 -4z"/>
<path d="M4671 229 c-25 -27 -27 -67 -4 -76 11 -4 24 3 40 22 44 50 9 102 -36
54z m23 -47 c-16 -23 -19 -24 -22 -9 -2 10 4 30 14 45 16 23 19 24 22 9 2 -10
-4 -30 -14 -45z"/>
<path d="M4749 233 c-12 -15 -12 -16 3 -10 15 5 15 3 2 -28 -16 -40 -17 -45
-5 -45 5 0 14 13 21 29 11 28 50 72 50 57 0 -4 -7 -23 -15 -43 -18 -43 -18
-43 -1 -43 7 0 20 8 27 17 12 15 12 16 -4 10 -16 -6 -16 -5 -1 24 21 41 4 61
-27 33 -20 -17 -22 -17 -16 -1 8 22 -16 23 -34 0z"/>
<path d="M5712 238 c-7 -7 -12 -17 -12 -22 0 -6 5 -4 10 4 8 13 10 12 11 -5 4
-63 -13 -108 -36 -99 -9 4 -15 0 -15 -10 0 -21 12 -20 37 3 44 41 89 141 64
141 -6 0 -11 -10 -11 -22 0 -13 -5 -30 -10 -38 -7 -11 -10 -7 -10 17 0 36 -11
48 -28 31z"/>
<path d="M5801 224 c-25 -32 -27 -62 -4 -71 21 -8 65 42 61 71 -4 31 -33 31
-57 0z m23 -42 c-16 -23 -19 -24 -22 -9 -2 10 4 30 14 45 16 23 19 24 22 9 2
-10 -4 -30 -14 -45z"/>
<path d="M5886 229 c-9 -13 -13 -33 -10 -49 4 -17 0 -31 -10 -39 -36 -30 1
-59 50 -41 31 12 30 27 -1 56 -29 26 -31 42 -11 70 21 28 32 9 11 -22 -11 -17
-13 -25 -4 -22 7 2 17 13 23 23 6 11 18 25 26 32 13 10 9 12 -22 13 -27 0 -41
-6 -52 -21z m32 -106 c2 -8 -6 -13 -22 -13 -25 0 -33 10 -19 24 10 10 36 3 41
-11z"/>
<path d="M4859 185 c-1 -6 -1 -14 0 -19 1 -4 -4 -15 -11 -24 -11 -13 -11 -14
1 -11 24 8 37 37 23 51 -6 6 -13 8 -13 3z"/>
<path d="M2303 135 c0 -8 4 -12 9 -9 5 3 6 10 3 15 -9 13 -12 11 -12 -6z"/>
<path d="M4995 131 c-3 -5 -2 -12 3 -15 5 -3 9 1 9 9 0 17 -3 19 -12 6z"/>
<path d="M1176 78 c3 -5 10 -6 15 -3 13 9 11 12 -6 12 -8 0 -12 -4 -9 -9z"/>
</g>
</svg>
