<?xml version="1.0" standalone="no"?>
<!DOCTYPE svg PUBLIC "-//W3C//DTD SVG 20010904//EN"
 "http://www.w3.org/TR/2001/REC-SVG-20010904/DTD/svg10.dtd">
<svg version="1.0" xmlns="http://www.w3.org/2000/svg"
 width="600.000000pt" height="98.000000pt" viewBox="0 0 600.000000 98.000000"
 preserveAspectRatio="xMidYMid meet">
<g transform="translate(0.000000,98.000000) scale(0.100000,-0.100000)"
fill="#000000" stroke="none">
<path d="M10 490 c0 -429 2 -490 15 -490 13 0 15 61 15 490 0 429 -2 490 -15
490 -13 0 -15 -61 -15 -490z"/>
<path d="M815 856 c-19 -20 -20 -35 -20 -302 0 -225 3 -286 14 -308 9 -16 20
-25 28 -21 8 2 11 0 8 -5 -9 -15 8 -12 31 4 16 13 20 32 25 148 10 200 -1 475
-19 490 -23 19 -46 17 -67 -6z m58 -18 c-2 -5 -3 -138 -3 -298 0 -283 0 -290
-20 -290 -20 0 -20 7 -20 301 l0 300 23 -3 c12 -2 21 -6 20 -10z"/>
<path d="M4390 860 c-19 -19 -20 -34 -20 -311 0 -180 4 -298 10 -310 13 -23
54 -22 77 3 14 15 17 45 17 172 1 143 2 155 21 167 24 15 91 18 94 4 1 -5 4
-80 7 -165 6 -165 16 -200 56 -200 11 0 30 10 40 23 19 20 20 33 15 184 -4
153 -6 165 -31 208 -15 25 -31 43 -37 40 -5 -4 -9 -2 -9 4 0 14 -88 25 -113
14 -40 -18 -47 -6 -47 77 0 50 -4 81 -12 87 -28 21 -49 22 -68 3z m51 -118
c-1 -56 0 -102 2 -102 3 0 24 7 47 15 79 28 139 14 168 -39 13 -24 17 -68 20
-198 l4 -168 -26 0 -26 0 0 149 c0 84 -5 162 -11 180 -19 53 -78 62 -152 24
l-28 -14 3 -170 3 -169 -22 0 -23 0 0 300 0 300 21 -3 c21 -3 22 -9 20 -105z"/>
<path d="M5663 861 c-18 -13 -22 -29 -25 -88 l-3 -73 -44 0 c-55 0 -115 -18
-141 -42 -11 -10 -20 -14 -20 -9 0 15 -79 53 -96 47 -7 -3 -16 -1 -19 3 -3 5
-22 5 -42 0 -21 -4 -46 -6 -57 -3 -11 4 -16 2 -12 -4 3 -6 -1 -8 -11 -6 -24 7
-52 -16 -58 -45 -6 -32 26 -60 62 -54 54 9 110 6 141 -8 18 -8 32 -16 33 -19
0 -3 2 -14 4 -24 6 -30 -5 -39 -25 -21 -13 12 -29 14 -61 10 -125 -17 -171
-61 -176 -162 -1 -35 2 -63 7 -63 6 0 10 -7 10 -15 0 -8 5 -15 12 -15 6 0 9
-3 5 -6 -3 -3 6 -16 21 -29 23 -19 36 -22 96 -20 62 2 72 5 93 29 28 33 29 48
4 70 -16 15 -28 16 -63 10 -41 -7 -68 -7 -77 2 -8 8 -2 67 8 77 5 5 21 10 35
10 14 0 26 4 26 9 0 5 4 6 10 3 5 -3 23 1 40 10 32 17 36 12 30 -39 -1 -10 2
-16 7 -13 4 3 9 -5 9 -17 2 -35 43 -116 62 -123 9 -4 23 -12 29 -19 8 -7 39
-12 75 -12 69 1 91 6 83 19 -3 4 8 3 25 -3 24 -8 37 -7 56 2 l24 13 0 299 c0
226 -3 302 -12 312 -23 22 -44 24 -65 7z m47 -312 c0 -292 0 -299 -20 -299
-11 0 -20 7 -20 15 0 14 -3 14 -30 0 -48 -25 -112 -30 -151 -11 -56 27 -72 65
-79 191 -6 124 -16 150 -67 171 -33 14 -110 13 -165 -2 -13 -4 -18 0 -18 14 0
24 18 32 96 39 70 6 123 -7 155 -42 l23 -23 18 23 c33 42 135 57 201 30 17 -7
18 -1 17 86 -1 52 -1 96 -1 99 1 3 10 6 21 7 20 2 20 -4 20 -298z m-370 -69
c0 -20 -6 -23 -82 -35 -45 -7 -68 -36 -68 -85 0 -62 17 -74 93 -68 60 5 67 4
67 -12 0 -13 -13 -21 -50 -30 -91 -22 -144 7 -156 86 -8 54 10 107 42 129 13
8 50 20 82 24 31 5 60 9 65 10 4 0 7 -8 7 -19z"/>
<path d="M5543 620 c-18 -4 -40 -13 -48 -20 -25 -21 -37 -83 -34 -173 4 -74 7
-89 28 -111 30 -31 91 -35 146 -9 l35 17 0 143 c0 106 -3 145 -12 147 -31 10
-86 12 -115 6z m71 -32 c-3 -4 2 -8 10 -8 14 0 16 -18 16 -116 0 -79 -4 -119
-12 -127 -7 -7 -37 -14 -65 -15 -48 -4 -54 -2 -62 20 -15 40 -16 160 -1 200
11 29 21 39 49 46 43 11 71 11 65 0z"/>
<path d="M524 853 c3 -3 -9 -13 -26 -22 -36 -19 -84 -83 -94 -126 -4 -16 -9
-85 -11 -152 -6 -158 12 -227 75 -290 23 -24 48 -44 55 -44 56 -7 197 -5 197
2 0 5 6 9 14 9 28 0 40 56 18 82 -11 13 -25 16 -66 12 -47 -5 -73 -6 -111 -2
-18 2 -47 34 -63 70 -14 33 -14 291 0 282 5 -3 8 0 6 7 -1 8 6 26 16 42 14 20
24 26 39 21 11 -3 17 -2 14 3 -5 8 87 2 133 -9 7 -2 22 12 32 30 19 31 19 34
3 58 -10 15 -22 23 -31 20 -8 -3 -14 -1 -14 3 0 5 -43 9 -96 9 -53 0 -93 -2
-90 -5z m170 -29 c42 -6 46 -9 46 -35 0 -26 -2 -28 -26 -19 -42 16 -151 12
-180 -6 -47 -31 -58 -68 -61 -209 -6 -226 27 -271 185 -261 76 5 82 4 82 -14
0 -26 -6 -28 -96 -35 -70 -6 -84 -4 -124 17 -31 16 -53 37 -70 68 -24 43 -25
53 -25 205 0 144 2 164 21 200 47 87 106 108 248 89z"/>
<path d="M955 843 c-33 -33 -9 -113 33 -113 40 0 71 83 40 107 -24 19 -58 22
-73 6z m59 -48 c0 -25 -4 -30 -24 -30 -21 0 -25 5 -26 33 -2 30 1 33 24 30 22
-2 26 -8 26 -33z"/>
<path d="M2621 829 c-18 -30 -15 -569 3 -595 13 -17 28 -19 143 -20 151 0 157
1 173 32 13 23 13 23 30 4 10 -11 25 -20 34 -20 10 0 14 -5 11 -10 -4 -7 3 -9
22 -5 23 5 25 4 13 -5 -13 -10 -12 -11 5 -5 10 3 38 9 62 12 24 3 43 9 43 13
0 9 51 0 67 -12 18 -15 60 2 72 29 12 25 4 45 -24 65 -6 4 -10 65 -10 147 l0
139 -31 43 c-18 25 -41 44 -55 46 -13 2 -25 7 -27 12 -3 9 -61 5 -111 -9 -19
-5 -37 -7 -41 -5 -11 7 -50 -34 -50 -54 0 -31 31 -50 75 -45 22 3 54 6 71 8
41 5 53 -4 57 -40 4 -28 2 -30 -32 -32 -76 -4 -111 -14 -137 -40 -33 -34 -56
-86 -52 -121 l3 -26 -107 -3 -108 -3 0 243 c-1 182 -4 247 -13 260 -18 22 -71
20 -86 -3z m67 -267 l2 -262 115 0 115 0 0 -25 0 -25 -140 0 -140 0 0 288 0
289 23 -2 22 -2 3 -261z m507 86 c35 -31 44 -79 45 -226 0 -115 1 -124 20
-129 27 -7 28 -53 1 -53 -10 0 -29 8 -41 18 -22 17 -24 17 -74 0 -75 -25 -110
-23 -147 10 -27 24 -33 37 -36 83 -3 42 0 61 16 86 22 35 53 46 154 58 l57 6
0 39 c0 22 -8 47 -19 61 -17 21 -27 24 -82 22 -34 -1 -73 -4 -86 -7 -18 -5
-23 -2 -23 14 0 25 42 38 127 39 51 1 67 -3 88 -21z"/>
<path d="M3097 450 c-65 -11 -87 -32 -87 -85 0 -75 37 -93 138 -66 l42 12 0
74 c0 85 5 81 -93 65z m60 -72 c-2 -46 -7 -52 -34 -49 -7 1 -13 -2 -13 -6 0
-13 -47 -8 -64 6 -29 24 -1 81 41 81 13 0 22 4 19 8 -2 4 8 8 24 7 29 0 29 -1
27 -47z"/>
<path d="M2064 820 c-25 -10 -45 -54 -42 -93 2 -22 -5 -34 -25 -49 -34 -25
-34 -50 0 -82 27 -25 28 -30 33 -158 3 -76 10 -142 17 -154 7 -12 10 -24 7
-26 -2 -3 2 -11 11 -18 8 -7 15 -9 15 -6 0 4 7 0 16 -9 9 -9 23 -14 31 -11 8
3 24 1 35 -5 15 -8 19 -8 14 0 -4 6 -3 11 3 11 5 0 11 -5 13 -11 5 -14 54 32
62 59 6 17 10 19 21 9 7 -6 11 -15 9 -18 -9 -15 80 -41 148 -44 95 -4 128 12
128 63 0 12 -7 25 -15 28 -8 4 -12 10 -9 15 3 6 -8 7 -28 3 -100 -18 -168 5
-168 58 0 20 4 20 132 18 72 -1 78 0 94 25 13 20 16 40 12 93 -6 75 -17 101
-68 148 -32 31 -38 33 -101 30 -71 -2 -84 -9 -133 -63 -36 -39 -37 -46 -43
-200 l-4 -122 -34 3 c-61 6 -65 15 -65 147 0 116 1 119 23 120 12 1 29 2 37 3
31 2 60 27 60 51 0 35 -26 55 -71 55 -21 0 -39 3 -40 8 -1 4 -2 21 -3 37 -5
66 -33 99 -72 85z m38 -95 l-4 -65 61 0 c54 0 61 -2 61 -20 0 -18 -7 -20 -61
-20 l-61 0 3 -155 c4 -176 4 -175 82 -175 40 0 47 -3 45 -18 -2 -9 -10 -20
-18 -24 -24 -11 -77 -9 -104 3 -42 20 -51 60 -49 222 l1 147 -29 0 c-22 0 -29
5 -29 20 0 16 7 20 31 20 l30 0 -4 65 c-5 65 -5 65 22 65 26 0 26 0 23 -65z
m379 -71 c42 -21 69 -84 69 -159 l0 -60 -126 4 -127 3 6 -23 c4 -13 7 -34 7
-47 0 -13 14 -37 30 -54 31 -30 32 -30 115 -26 83 4 85 4 85 -18 0 -20 -6 -23
-65 -29 -79 -9 -124 -1 -160 27 -42 33 -55 76 -55 181 0 76 4 101 23 137 36
73 126 102 198 64z"/>
<path d="M2370 619 c-31 -11 -55 -51 -63 -101 l-6 -38 105 0 c66 0 104 4 104
11 0 30 -24 100 -39 113 -23 21 -70 28 -101 15z m86 -44 c8 -10 14 -29 14 -42
0 -22 -4 -23 -65 -23 -65 0 -66 0 -62 26 2 15 11 32 20 39 9 6 15 14 12 17 -3
2 11 4 31 3 23 0 41 -8 50 -20z"/>
<path d="M1193 687 c-3 -5 -23 -5 -45 -2 -30 5 -44 3 -58 -10 -16 -15 -18 -36
-19 -221 -1 -153 1 -204 10 -204 7 0 9 -3 6 -7 -4 -3 1 -11 10 -18 20 -15 63
-7 63 11 0 8 5 14 10 14 6 0 10 62 10 165 0 91 3 165 8 166 15 1 40 7 60 13
39 13 47 -19 47 -188 0 -119 3 -157 13 -161 7 -3 11 -9 8 -14 -3 -5 5 -11 19
-13 14 -3 26 0 29 8 3 8 12 14 21 14 8 0 14 3 14 8 -1 4 -1 79 0 167 l1 161
31 11 c21 8 38 9 49 3 10 -5 20 -7 23 -4 3 3 6 -70 6 -163 1 -135 4 -170 16
-179 8 -6 11 -15 7 -19 -4 -5 1 -5 11 -2 10 4 17 1 17 -6 0 -8 4 -6 10 3 9 13
10 13 10 0 1 -10 7 -8 21 9 19 23 20 36 17 195 -3 150 -6 175 -23 205 -26 45
-80 73 -125 67 -76 -9 -94 -14 -98 -25 -2 -7 -17 -4 -43 9 -39 20 -125 24
-136 7z m130 -37 c25 -20 25 -20 69 0 52 24 116 26 146 4 43 -30 52 -74 52
-245 l0 -159 -25 0 -25 0 0 154 c0 85 -4 166 -10 180 -16 42 -49 51 -112 32
l-53 -17 3 -175 4 -174 -27 0 -26 0 1 133 c2 203 2 195 -25 223 -28 28 -60 27
-117 -2 l-28 -15 0 -169 0 -170 -25 0 -25 0 0 205 0 205 26 0 c19 0 25 -4 20
-15 -7 -19 -8 -19 39 5 50 26 105 26 138 0z"/>
<path d="M1715 692 c-55 -12 -76 -79 -31 -100 14 -6 35 -9 48 -6 90 19 131 9
126 -33 -3 -24 -8 -27 -53 -30 -62 -5 -135 -36 -135 -57 0 -9 -4 -16 -9 -16
-5 0 -12 -10 -16 -22 -24 -69 -7 -141 42 -185 40 -37 60 -40 148 -18 73 17 78
18 70 5 -3 -5 0 -10 8 -10 8 0 29 -3 47 -7 22 -4 31 -3 27 4 -4 6 0 13 8 17
19 7 13 65 -8 81 -11 8 -16 43 -20 151 -3 77 -11 152 -18 166 -17 40 -86 69
-155 66 -33 -1 -68 -3 -79 -6z m187 -51 l33 -29 3 -157 c4 -145 5 -158 23
-162 12 -4 19 -14 19 -30 0 -22 -3 -24 -27 -18 -16 3 -34 13 -42 20 -12 12
-19 12 -43 -1 -42 -22 -118 -28 -148 -12 -54 29 -75 129 -38 188 16 25 78 50
126 50 67 0 82 9 82 46 0 47 -18 81 -47 89 -23 5 -85 1 -141 -11 -20 -4 -23
-1 -20 18 3 26 34 34 130 37 51 1 62 -3 90 -28z"/>
<path d="M1800 450 c-63 -10 -90 -35 -90 -85 0 -69 56 -94 144 -65 l36 12 0
74 c0 83 7 78 -90 64z m60 -76 c0 -40 -3 -54 -12 -51 -7 2 -23 0 -35 -4 -13
-5 -34 -4 -47 1 -21 8 -24 14 -21 45 2 20 5 38 7 39 1 1 26 7 53 13 28 6 51
11 53 12 1 0 2 -24 2 -55z"/>
<path d="M3816 689 c2 -5 -22 -6 -55 -3 -53 5 -61 3 -71 -15 -6 -13 -11 -94
-11 -215 0 -197 5 -228 39 -241 8 -3 10 0 6 6 -4 7 0 9 14 5 32 -11 39 15 45
183 6 145 16 189 38 175 5 -3 9 -2 9 3 0 12 66 12 69 -1 2 -6 6 -86 9 -178 6
-151 9 -169 27 -182 24 -18 35 -19 55 -6 8 5 11 10 6 10 -6 0 -2 6 7 13 15 10
16 33 14 177 -2 139 -5 170 -20 193 -9 15 -15 27 -12 27 12 0 -38 42 -60 50
-30 11 -117 11 -109 -1z m115 -29 c43 -24 53 -65 57 -242 l4 -168 -26 0 -26 0
0 143 c0 225 -19 257 -130 220 l-55 -19 0 -172 0 -172 -25 0 -25 0 0 205 0
205 27 0 c20 0 26 -4 22 -15 -5 -12 2 -11 37 5 48 21 109 26 140 10z"/>
<path d="M4166 689 c3 -5 -1 -6 -9 -3 -21 8 -75 -48 -98 -100 -16 -36 -19 -62
-16 -148 4 -116 19 -157 67 -187 17 -10 28 -20 25 -23 -10 -10 69 -17 130 -12
64 4 85 19 85 60 0 32 -22 45 -76 43 -86 -2 -93 -1 -109 31 -15 30 -21 116
-11 170 2 14 5 31 5 37 2 30 113 52 149 29 6 -4 19 5 28 20 16 23 16 29 3 52
-8 14 -17 23 -20 21 -3 -2 -13 2 -21 9 -17 14 -141 15 -132 1z m123 -25 c24
-5 31 -12 31 -29 0 -21 -2 -22 -47 -14 -61 11 -101 0 -127 -35 -17 -22 -22
-46 -24 -120 -6 -146 21 -181 134 -174 61 4 64 3 64 -18 0 -20 -7 -23 -56 -30
-143 -17 -201 53 -192 237 3 61 10 95 24 120 33 58 104 81 193 63z"/>
<path d="M4885 691 c2 -5 -19 -7 -47 -5 -91 7 -89 17 -88 -320 1 -271 3 -293
20 -314 41 -49 94 10 89 99 -2 27 -1 50 2 53 4 4 97 16 132 17 9 0 15 4 12 10
-4 5 0 9 8 9 19 0 52 39 72 85 13 30 17 65 16 139 -2 130 -16 162 -96 224 -14
11 -127 13 -120 3z m132 -45 c39 -33 53 -85 53 -197 0 -105 -15 -148 -63 -183
-24 -17 -43 -21 -105 -20 l-77 1 3 -93 4 -94 -26 0 -26 0 0 300 0 300 25 0
c18 0 23 -4 19 -15 -8 -19 -6 -19 41 5 55 28 116 26 152 -4z"/>
<path d="M4855 602 l-30 -17 0 -140 c0 -82 4 -143 10 -147 6 -4 37 -8 71 -8
50 0 64 4 82 23 46 48 53 208 12 275 -18 29 -24 32 -67 32 -27 -1 -61 -9 -78
-18z m125 -35 c15 -24 15 -182 0 -222 -7 -20 -15 -22 -62 -21 l-53 1 -3 123
-3 123 32 13 c39 16 71 10 89 -17z"/>
<path d="M952 668 c-6 -13 -14 -110 -17 -216 l-7 -193 26 -24 c33 -31 37 -31
64 -2 21 22 22 32 22 224 0 170 -2 204 -16 217 -23 23 -59 20 -72 -6z m58
-213 l0 -205 -22 0 -23 0 0 205 0 205 23 0 22 0 0 -205z"/>
<path d="M3327 672 c-14 -16 -17 -42 -17 -163 1 -164 11 -223 44 -254 45 -41
87 -51 156 -35 28 7 55 8 70 2 20 -7 28 -4 48 19 l23 29 -7 200 c-8 222 -10
230 -67 214 l-32 -10 -3 -172 c-1 -109 -6 -171 -12 -167 -6 3 -10 1 -10 -5 0
-6 -4 -9 -9 -5 -5 3 -12 1 -15 -4 -7 -10 -44 -3 -63 12 -10 7 -13 53 -13 168
0 152 -1 158 -22 173 -29 21 -51 20 -71 -2z m63 -161 c0 -145 8 -197 33 -213
19 -12 75 -9 112 6 l35 15 0 170 c0 171 0 171 23 171 l22 0 0 -205 0 -205 -22
0 c-13 0 -23 6 -23 15 0 11 -8 11 -42 -5 -51 -23 -89 -25 -127 -6 -47 25 -54
56 -59 239 l-4 167 26 0 26 0 0 -149z"/>
</g>
</svg>
