<?xml version="1.0" standalone="no"?>
<!DOCTYPE svg PUBLIC "-//W3C//DTD SVG 20010904//EN"
 "http://www.w3.org/TR/2001/REC-SVG-20010904/DTD/svg10.dtd">
<svg version="1.0" xmlns="http://www.w3.org/2000/svg"
 width="600.000000pt" height="208.000000pt" viewBox="0 0 600.000000 208.000000"
 preserveAspectRatio="xMidYMid meet">
<g transform="translate(0.000000,208.000000) scale(0.100000,-0.100000)"
fill="#000000" stroke="none">
<path d="M5992 2050 c0 -19 2 -27 5 -17 2 9 2 25 0 35 -3 9 -5 1 -5 -18z"/>
<path d="M2221 1929 c-79 -32 -120 -97 -121 -192 0 -113 73 -197 173 -197 26
0 39 -8 67 -45 34 -43 37 -44 90 -45 l54 0 -48 49 -49 50 33 27 c18 16 41 46
51 69 35 77 17 199 -37 247 -48 43 -153 61 -213 37z m189 -57 c37 -37 50 -68
50 -125 0 -67 -18 -111 -60 -152 -35 -34 -38 -57 -10 -85 13 -13 15 -20 7 -20
-7 0 -31 18 -52 40 -27 28 -34 40 -23 40 22 0 75 46 93 81 9 16 15 55 15 91 0
51 -5 70 -25 101 -14 20 -30 37 -35 37 -6 0 -10 4 -10 10 0 12 30 1 50 -18z
m-199 2 c-12 -9 -32 -37 -42 -62 -32 -75 -12 -164 47 -211 17 -14 21 -21 12
-21 -22 0 -66 37 -83 70 -9 17 -15 56 -15 93 0 51 5 70 22 93 29 37 49 53 68
54 9 0 6 -6 -9 -16z m159 -32 c53 -53 50 -160 -6 -213 -19 -18 -37 -24 -71
-24 -38 0 -49 5 -73 32 -52 58 -52 153 0 205 23 23 37 28 75 28 38 0 52 -5 75
-28z"/>
<path d="M2520 1925 c0 -5 18 -77 40 -160 23 -82 45 -167 51 -188 10 -38 10
-38 56 -35 l47 3 32 125 c18 69 34 132 36 140 2 8 14 -26 26 -77 12 -50 29
-114 38 -143 l15 -51 46 3 46 3 48 180 c26 99 50 187 53 195 5 13 -2 15 -38
15 l-44 0 -26 -110 c-14 -60 -30 -128 -34 -150 l-8 -40 -7 30 c-4 17 -22 83
-39 148 l-32 117 -41 0 -41 0 -34 -137 c-35 -142 -50 -179 -50 -128 0 17 -11
73 -24 125 -13 52 -26 106 -29 120 -5 22 -12 25 -47 25 -22 0 -40 -4 -40 -10z
m69 -62 c5 -21 18 -74 29 -119 30 -125 48 -148 76 -96 l15 27 1 -27 c0 -43
-20 -78 -46 -78 -18 0 -25 7 -30 28 -3 15 -8 34 -11 42 -10 33 -63 240 -63
249 0 26 20 7 29 -26z m225 0 c4 -21 10 -47 13 -58 4 -15 0 -13 -17 8 -21 27
-23 27 -41 11 -18 -16 -19 -16 -19 4 0 72 53 101 64 35z m196 25 c0 -7 -14
-65 -31 -128 -16 -63 -35 -132 -40 -152 -8 -31 -14 -38 -34 -38 -20 0 -26 8
-40 58 -10 31 -19 73 -21 92 -4 29 -1 26 15 -19 10 -29 26 -60 34 -68 13 -14
17 -13 30 8 8 13 27 77 42 142 14 64 31 117 36 117 5 0 9 -6 9 -12z m-287
-188 c-3 -12 -8 -19 -11 -16 -5 6 5 36 12 36 2 0 2 -9 -1 -20z"/>
<path d="M3110 1935 c0 0 -1 -89 -3 -198 l-2 -197 126 0 c123 0 127 1 133 23
12 46 10 47 -84 47 l-90 0 0 56 0 56 75 -4 75 -3 0 33 0 32 -74 0 -74 0 -4 45
-3 45 87 0 88 0 0 33 0 32 -125 0 c-69 0 -125 0 -125 0z m60 -55 c-15 -28 -12
-93 5 -117 13 -18 13 -22 0 -33 -22 -18 -20 -118 2 -143 17 -18 17 -19 -12
-15 l-29 3 -1 155 c0 85 1 160 3 166 2 7 12 10 22 7 15 -4 17 -9 10 -23z"/>
<path d="M3430 1738 l0 -198 40 0 40 0 0 198 0 197 -40 0 -40 0 0 -197z m50
-3 c0 -179 -17 -230 -22 -67 -4 133 1 232 12 232 6 0 10 -67 10 -165z"/>
<path d="M3590 1935 c0 0 -1 -89 -3 -198 l-2 -197 40 0 40 0 -3 147 -3 148 88
-147 87 -148 48 0 48 0 0 194 0 194 -41 4 -40 4 3 -144 c2 -79 0 -138 -5 -130
-4 7 -41 70 -82 140 l-76 126 -49 4 c-28 1 -50 3 -50 3z m102 -67 c25 -36 75
-117 98 -162 8 -15 25 -39 38 -53 18 -20 26 -23 37 -13 12 10 15 40 15 139 0
69 4 121 8 114 4 -6 6 -73 6 -150 -2 -187 -1 -175 -25 -171 -15 2 -45 43 -104
138 -46 74 -90 136 -98 138 -25 5 -37 -48 -34 -143 2 -49 0 -101 -4 -115 -9
-33 -11 -17 -11 115 0 202 -1 195 26 195 16 0 33 -11 48 -32z"/>
<path d="M2665 1358 c-198 -71 -251 -324 -99 -471 70 -68 198 -96 279 -63 19
8 35 11 35 7 0 -4 11 -20 25 -35 20 -22 32 -26 80 -26 l56 0 -42 59 -41 58 30
42 c133 183 -2 443 -228 440 -36 0 -78 -5 -95 -11z m173 -30 c60 -15 145 -96
161 -153 19 -69 14 -140 -14 -195 -13 -27 -29 -51 -35 -55 -15 -9 -12 -58 5
-81 37 -49 6 -59 -42 -12 l-32 31 -55 -13 c-64 -15 -130 -8 -184 19 -173 88
-186 329 -22 430 68 42 133 51 218 29z"/>
<path d="M2725 1303 c-60 -12 -104 -47 -144 -113 -28 -46 -28 -135 -1 -194 40
-89 143 -141 222 -114 37 13 44 41 19 82 -25 40 -26 46 -4 46 9 0 29 -14 44
-31 18 -20 34 -29 44 -25 24 9 55 85 55 136 0 50 -36 135 -68 162 -50 40 -116
61 -167 51z m115 -48 c77 -39 116 -167 74 -247 l-16 -30 -26 31 c-23 26 -36
32 -85 36 l-59 5 46 -65 c25 -36 46 -68 46 -70 0 -11 -103 -4 -134 9 -70 29
-118 135 -97 214 31 113 149 168 251 117z"/>
<path d="M3052 1349 c-53 -21 -53 -21 -35 -42 10 -12 19 -23 19 -25 1 -2 15 3
31 11 82 42 193 25 262 -41 39 -37 40 -37 62 -19 l22 18 -32 33 c-78 81 -219
109 -329 65z"/>
<path d="M3093 1255 c-30 -13 -31 -15 -21 -44 11 -27 13 -28 32 -15 11 8 42
14 68 14 38 0 54 -6 82 -30 31 -27 37 -29 55 -18 26 16 26 19 0 47 -50 54
-150 75 -216 46z"/>
<path d="M3452 1211 c-8 -4 -37 -68 -67 -142 l-53 -133 -50 106 c-41 88 -55
108 -77 114 -18 4 -32 1 -45 -11 -19 -18 -68 -113 -89 -176 -6 -19 -20 -45
-30 -58 -18 -24 -18 -25 8 -62 14 -21 29 -38 34 -39 4 0 18 25 32 55 14 30 36
80 50 111 l26 56 45 -93 c25 -52 53 -102 61 -111 21 -23 66 -23 85 0 8 9 49
101 91 205 l76 187 -42 0 c-23 0 -48 -4 -55 -9z m48 -29 c0 -20 -130 -326
-142 -334 -27 -17 -44 0 -88 85 -55 105 -73 125 -94 108 -8 -7 -31 -47 -51
-89 -43 -89 -41 -86 -54 -78 -15 10 84 233 110 247 22 11 35 -5 87 -112 23
-48 49 -90 57 -93 20 -7 38 22 86 145 22 57 45 109 51 116 12 15 38 18 38 5z"/>
<path d="M5991 1134 c0 -11 3 -14 6 -6 3 7 2 16 -1 19 -3 4 -6 -2 -5 -13z"/>
<path d="M5992 770 c0 -14 2 -19 5 -12 2 6 2 18 0 25 -3 6 -5 1 -5 -13z"/>
<path d="M2090 595 c0 -13 109 -15 920 -15 811 0 920 2 920 15 0 13 -109 15
-920 15 -811 0 -920 -2 -920 -15z"/>
<path d="M2573 405 c-37 -16 -73 -68 -73 -105 0 -32 32 -85 61 -100 12 -7 36
-12 55 -12 24 0 35 -5 39 -19 4 -10 15 -19 26 -19 22 0 23 4 8 32 -6 12 -7 23
-2 27 22 15 43 58 43 89 0 47 -24 87 -64 106 -41 19 -51 19 -93 1z m87 -35
c28 -15 44 -71 29 -104 -15 -31 -25 -33 -32 -6 -3 11 -12 20 -21 20 -19 0 -20
-13 -6 -41 10 -17 7 -19 -19 -19 -37 0 -71 40 -71 83 0 59 66 96 120 67z"/>
<path d="M2100 300 c0 -91 3 -110 15 -110 8 0 15 4 15 9 0 6 12 4 26 -4 31
-16 79 -3 94 25 37 69 -29 148 -95 114 l-27 -14 4 45 c3 38 0 45 -14 45 -16 0
-18 -12 -18 -110z m110 0 c11 -11 20 -27 20 -35 0 -17 -35 -55 -50 -55 -15 0
-50 38 -50 55 0 17 35 55 50 55 6 0 19 -9 30 -20z"/>
<path d="M3110 300 c0 -91 3 -110 15 -110 12 0 15 19 15 110 0 91 -3 110 -15
110 -12 0 -15 -19 -15 -110z"/>
<path d="M2290 269 c15 -39 32 -74 39 -78 18 -12 -17 -53 -40 -46 -13 4 -19 2
-19 -9 0 -20 34 -30 58 -17 12 6 31 45 50 98 17 48 34 96 37 106 5 12 2 17
-12 17 -15 0 -24 -15 -39 -62 l-20 -63 -20 60 c-16 45 -26 61 -41 63 -21 3
-21 1 7 -69z"/>
<path d="M2750 282 c0 -44 5 -63 18 -74 27 -24 48 -27 76 -13 14 8 26 10 26 4
0 -5 7 -9 15 -9 12 0 15 15 15 75 0 68 -2 75 -20 75 -18 0 -20 -7 -20 -55 0
-43 -4 -56 -19 -65 -37 -19 -51 -3 -51 61 0 52 -2 59 -20 59 -18 0 -20 -7 -20
-58z"/>
<path d="M2940 318 c-40 -44 -13 -130 40 -129 14 0 42 1 63 1 l37 1 0 73 0 74
-60 1 c-49 0 -63 -3 -80 -21z m88 -20 c7 -7 12 -21 12 -33 0 -47 -62 -63 -81
-21 -22 47 33 90 69 54z"/>
<path d="M3181 314 c-25 -32 -27 -61 -5 -92 22 -32 57 -43 94 -31 24 9 28 14
19 25 -7 9 -17 11 -27 5 -36 -20 -70 16 -60 66 3 14 13 18 43 19 57 1 55 28
-1 32 -35 3 -45 -1 -63 -24z"/>
<path d="M3321 314 c-28 -36 -27 -75 4 -104 35 -33 81 -31 112 4 28 34 29 65
2 100 -16 20 -29 26 -59 26 -30 0 -43 -6 -59 -26z m100 -25 c8 -16 8 -28 0
-46 -9 -19 -17 -24 -42 -21 -36 3 -51 30 -38 66 11 30 64 31 80 1z"/>
<path d="M3487 269 c-15 -40 -25 -74 -22 -77 12 -13 34 11 46 52 7 25 16 46
19 46 3 0 14 -22 24 -50 24 -68 48 -68 71 0 9 28 20 48 24 45 5 -2 14 -25 21
-50 10 -37 17 -45 33 -43 15 2 26 17 37 50 9 26 19 50 21 53 3 3 13 -20 23
-50 24 -76 47 -75 74 3 l19 57 18 -57 c14 -44 23 -58 38 -58 11 0 17 5 14 13
-2 6 -15 40 -27 75 -19 52 -27 62 -44 60 -14 -2 -25 -16 -36 -50 -8 -27 -17
-48 -20 -48 -3 0 -12 21 -20 48 -12 34 -21 48 -37 50 -17 3 -24 -6 -39 -50
l-17 -53 -18 40 c-10 22 -18 46 -18 53 -1 8 -10 12 -23 10 -17 -2 -26 -15 -38
-50 -8 -27 -17 -48 -20 -48 -3 0 -12 21 -20 48 -11 33 -22 48 -36 50 -17 2
-25 -9 -47 -69z"/>
</g>
</svg>
