<?xml version="1.0" standalone="no"?>
<!DOCTYPE svg PUBLIC "-//W3C//DTD SVG 20010904//EN"
 "http://www.w3.org/TR/2001/REC-SVG-20010904/DTD/svg10.dtd">
<svg version="1.0" xmlns="http://www.w3.org/2000/svg"
 width="600.000000pt" height="248.000000pt" viewBox="0 0 600.000000 248.000000"
 preserveAspectRatio="xMidYMid meet">
<g transform="translate(0.000000,248.000000) scale(0.100000,-0.100000)"
fill="#000000" stroke="none">
<path d="M3241 2460 c121 -64 198 -253 170 -417 -14 -79 -32 -101 -24 -29 4
30 -1 57 -15 88 -36 83 -116 122 -272 134 l-92 7 35 -49 c19 -27 46 -72 60
-100 57 -114 122 -159 219 -152 32 2 58 3 58 1 0 -2 -12 -21 -26 -43 -29 -44
-87 -91 -214 -172 -109 -71 -173 -136 -213 -218 -29 -60 -32 -73 -32 -170 0
-93 3 -111 27 -162 56 -121 158 -188 294 -196 72 -4 89 -1 135 20 74 34 110
67 143 130 29 56 22 50 -30 -25 -22 -31 -49 -53 -88 -72 -48 -24 -65 -27 -123
-23 -117 7 -209 71 -265 186 -28 57 -33 77 -33 142 0 65 5 85 32 140 40 82
118 161 243 250 146 104 192 169 213 301 14 90 -2 187 -43 274 -40 83 -134
174 -180 174 -8 0 1 -8 21 -19z m-23 -270 c94 -25 142 -82 142 -167 l0 -53
-49 0 c-27 0 -60 4 -73 9 -29 11 -70 51 -88 88 -8 15 -27 50 -42 76 -16 26
-28 52 -28 57 0 11 85 5 138 -10z m-219 -634 c-18 -25 -35 -44 -37 -41 -5 5
61 95 66 90 2 -1 -11 -23 -29 -49z m-36 -376 c3 -11 1 -18 -4 -14 -5 3 -9 12
-9 20 0 20 7 17 13 -6z m37 -60 c0 -5 -2 -10 -4 -10 -3 0 -8 5 -11 10 -3 6 -1
10 4 10 6 0 11 -4 11 -10z"/>
<path d="M1333 2255 c-67 -29 -92 -118 -53 -183 67 -110 240 -61 240 68 0 98
-94 156 -187 115z m117 -35 c50 -35 58 -96 20 -141 -36 -43 -104 -52 -144 -18
-35 31 -46 97 -22 134 31 47 99 59 146 25z"/>
<path d="M1865 2244 c-38 -13 -98 -29 -132 -35 -42 -7 -63 -16 -63 -25 0 -8
10 -14 24 -14 14 0 38 -11 53 -24 l28 -24 3 -528 c2 -361 -1 -545 -8 -581 -13
-60 -59 -123 -91 -123 -11 0 -19 -7 -19 -17 0 -17 16 -18 205 -18 218 0 241 6
168 42 -89 43 -96 110 -91 836 1 295 1 537 -2 536 -3 0 -36 -11 -75 -25z m49
-541 c-4 -558 2 -688 36 -758 11 -23 20 -44 20 -48 0 -4 -52 -7 -117 -7 -111
0 -115 1 -100 18 24 26 45 81 52 137 10 81 6 1017 -5 1054 -5 18 -16 44 -25
57 -12 19 -13 25 -3 28 7 3 40 13 73 24 33 11 63 20 66 21 4 0 5 -236 3 -526z"/>
<path d="M2400 2250 c-25 -10 -82 -26 -127 -36 -85 -18 -107 -37 -55 -47 45
-9 61 -29 72 -86 13 -69 13 -920 0 -1020 -12 -94 -35 -141 -80 -163 -67 -34
-44 -39 170 -39 209 0 243 7 178 34 -18 8 -40 23 -49 33 -43 51 -44 60 -47
714 -1 344 -6 626 -10 626 -4 1 -27 -6 -52 -16z m34 -82 c-5 -108 -3 -1092 1
-1118 11 -66 29 -117 52 -142 15 -17 10 -18 -107 -18 l-122 0 17 26 c46 71 49
102 48 584 -2 665 1 602 -28 643 -13 20 -21 38 -17 40 4 3 32 10 62 17 30 7
62 16 70 21 25 14 26 11 24 -53z"/>
<path d="M5373 1909 c-17 -5 -43 -23 -57 -39 -92 -109 21 -267 152 -214 52 20
82 66 82 124 0 55 -25 96 -75 120 -45 22 -55 23 -102 9z m119 -48 c29 -26 33
-35 33 -81 0 -46 -4 -55 -33 -81 -74 -67 -188 -14 -185 86 3 94 114 139 185
76z"/>
<path d="M5350 1780 c0 -70 2 -80 18 -80 15 0 17 6 14 35 -3 27 0 35 11 35 8
0 25 -16 37 -35 12 -19 28 -35 37 -35 13 0 12 5 -4 33 -18 31 -18 33 -1 50 40
39 9 77 -63 77 l-49 0 0 -80z m95 35 c0 -15 -8 -21 -32 -23 -30 -3 -33 -1 -33
23 0 24 3 26 33 23 24 -2 32 -8 32 -23z"/>
<path d="M3065 1834 c-185 -40 -342 -166 -394 -317 -52 -150 -24 -317 71 -426
60 -70 199 -151 258 -151 10 0 21 -5 23 -10 3 -6 5 -5 3 2 -1 7 -44 34 -96 59
-150 73 -222 157 -250 292 -12 58 -8 145 9 202 36 126 146 238 286 290 86 33
99 31 44 -4 -112 -70 -179 -183 -201 -334 -20 -140 8 -256 90 -369 39 -55 91
-92 167 -119 27 -10 48 -19 45 -19 -3 -1 -14 -4 -25 -6 -11 -3 -56 -6 -100 -7
-65 -2 -91 -7 -137 -30 -126 -62 -133 -184 -14 -238 23 -10 56 -19 74 -19 17
0 32 -4 32 -10 0 -5 -14 -10 -31 -10 -45 0 -175 -46 -223 -79 -92 -64 -126
-124 -126 -218 0 -73 25 -128 81 -182 48 -46 160 -105 227 -120 68 -14 47 9
-35 41 -93 35 -175 90 -210 140 -39 57 -45 157 -13 223 29 60 133 131 220 149
14 3 35 8 48 12 33 10 27 -3 -11 -21 -96 -45 -156 -130 -165 -230 -4 -56 -1
-72 22 -119 48 -97 141 -158 291 -191 92 -20 285 -16 388 9 57 13 58 13 40 -6
-17 -19 -17 -19 12 -13 182 41 318 133 372 251 50 110 26 254 -55 326 -85 74
-212 111 -512 147 -187 23 -267 43 -292 73 -44 51 33 86 217 99 155 11 226 27
323 75 136 67 219 175 244 320 37 219 -92 421 -326 509 l-63 24 -16 -29 -17
-28 45 -22 c164 -79 231 -353 144 -586 -16 -42 -39 -75 -79 -116 -48 -48 -68
-60 -130 -79 -153 -46 -325 11 -409 137 -105 159 -89 419 34 570 40 48 133 99
198 109 33 5 46 13 59 36 l17 29 -42 -1 c-23 0 -73 -7 -112 -15z m439 -92
c187 -98 273 -286 221 -485 -34 -132 -173 -264 -305 -292 l-35 -7 40 27 c22
15 45 35 52 44 47 60 67 98 89 161 22 62 25 89 25 185 -2 180 -54 304 -156
375 -80 55 -45 51 69 -8z m-534 -856 c0 -7 -7 -19 -15 -26 -33 -27 -9 -77 52
-109 30 -15 137 -39 208 -46 33 -3 71 -7 85 -10 14 -2 48 -6 75 -10 214 -26
325 -65 396 -135 42 -42 48 -54 58 -116 14 -81 1 -143 -42 -211 -41 -65 -143
-134 -239 -163 -38 -12 -35 -4 6 15 91 43 166 148 166 230 0 151 -127 254
-359 291 -99 16 -308 18 -349 3 -37 -14 -72 -18 -72 -9 0 5 6 10 13 13 23 9
-8 42 -56 57 -25 8 -59 25 -76 38 -26 19 -31 29 -31 63 0 51 35 87 112 116 66
26 68 26 68 9z m393 -321 c149 -26 232 -66 291 -138 28 -35 31 -45 31 -111 0
-62 -4 -78 -28 -114 -77 -117 -267 -180 -512 -169 -258 12 -405 113 -405 279
1 122 91 215 248 252 77 19 270 19 375 1z m144 -521 c-3 -3 -12 -4 -19 -1 -8
3 -5 6 6 6 11 1 17 -2 13 -5z"/>
<path d="M1451 1823 c-35 -15 -121 -37 -183 -48 -48 -8 -50 -31 -3 -39 65 -13
67 -23 63 -404 -3 -317 -4 -339 -24 -377 -13 -25 -34 -47 -57 -58 -73 -36 -50
-42 168 -42 218 0 239 5 168 42 -21 11 -45 35 -56 56 -29 57 -40 240 -34 579
3 164 3 299 -1 301 -4 2 -22 -2 -41 -10z m15 -310 c-5 -249 2 -446 19 -529 3
-11 16 -37 29 -57 l25 -37 -126 0 -126 0 21 23 c46 49 52 100 52 433 0 314 -3
349 -37 386 -13 15 -13 18 -2 22 57 16 106 30 117 32 8 1 16 5 20 8 3 3 7 6 9
6 2 0 1 -129 -1 -287z"/>
<path d="M0 1798 c0 -4 13 -14 28 -22 16 -8 44 -32 64 -54 46 -51 49 -56 370
-669 73 -139 137 -253 143 -253 5 0 43 64 84 143 327 629 412 774 480 822 23
15 41 30 41 34 0 3 -79 6 -175 6 -125 0 -175 -3 -175 -11 0 -6 12 -14 28 -17
15 -3 40 -16 56 -28 27 -21 28 -26 23 -78 -5 -45 -34 -112 -149 -348 -79 -160
-145 -292 -148 -292 -5 -1 -189 326 -302 538 -37 69 -68 138 -68 153 0 31 23
58 51 58 10 0 19 6 19 13 0 9 -44 12 -185 12 -102 0 -185 -3 -185 -7z m274
-58 c-7 -41 30 -118 235 -485 124 -222 157 -268 172 -243 5 7 9 9 9 4 0 -10
-68 -147 -80 -159 -7 -8 -29 30 -167 293 -280 531 -301 569 -337 599 -9 8 -16
16 -16 20 0 3 43 6 95 6 l94 0 -5 -35z m845 24 c3 -2 -7 -17 -21 -32 -37 -40
-101 -138 -137 -212 -18 -36 -39 -72 -48 -80 -8 -8 -3 10 12 40 40 80 75 177
75 208 0 15 -8 41 -18 57 l-19 30 76 -3 c42 -2 78 -6 80 -8z m-215 -359 c-4
-8 -10 -15 -15 -15 -4 0 -6 7 -3 15 4 8 10 15 15 15 4 0 6 -7 3 -15z m-53 -92
c-11 -21 -20 -35 -21 -31 0 12 33 78 38 74 2 -2 -6 -21 -17 -43z"/>
<path d="M3930 1788 c-30 -11 -82 -26 -115 -32 -41 -9 -61 -18 -63 -29 -3 -13
4 -17 27 -17 20 0 36 -8 51 -27 21 -26 21 -33 18 -367 -3 -387 -5 -394 -79
-425 -21 -9 -39 -20 -39 -26 0 -6 75 -10 205 -10 150 0 205 3 205 12 0 6 -13
14 -30 18 -41 9 -77 56 -87 113 -4 26 -8 135 -8 242 0 216 12 281 61 340 52
61 137 79 187 40 14 -11 30 -20 35 -20 5 0 26 44 46 97 40 111 38 117 -39 108
-111 -13 -228 -100 -278 -206 -12 -27 -25 -48 -28 -49 -4 0 -4 56 -2 124 3 68
2 125 -3 128 -5 3 -34 -4 -64 -14z m404 -16 c5 -8 -26 -101 -41 -125 -3 -4
-11 -3 -18 3 -24 20 -108 23 -148 6 l-37 -15 17 25 c39 61 207 138 227 106z
m-364 -116 c0 -94 2 -106 20 -119 19 -13 20 -19 10 -61 -5 -25 -11 -139 -12
-254 -1 -212 7 -275 38 -307 9 -9 14 -18 11 -21 -5 -6 -207 -11 -207 -6 0 2 7
16 15 33 29 56 36 135 36 417 0 269 -7 352 -31 367 -20 13 -9 25 38 39 85 26
82 30 82 -88z"/>
<path d="M4644 1785 c-105 -28 -204 -95 -276 -186 -140 -175 -121 -447 42
-610 66 -66 133 -103 238 -130 189 -48 386 1 525 131 149 139 187 346 99 534
-56 120 -196 226 -343 261 -79 18 -217 18 -285 0z m281 -59 c93 -42 168 -141
194 -257 16 -67 13 -236 -5 -304 -42 -163 -153 -263 -299 -273 -139 -9 -236
44 -294 159 -90 181 -79 421 28 587 37 56 44 62 136 102 60 27 165 21 240 -14z
m135 -21 c73 -37 151 -119 191 -200 33 -67 34 -73 33 -185 0 -101 -4 -122 -26
-171 -42 -93 -110 -162 -209 -214 -37 -19 -69 -35 -72 -35 -3 0 18 24 47 53
91 91 135 213 136 377 0 142 -42 266 -120 348 -58 61 -55 65 20 27z m-520 -24
c-96 -136 -133 -343 -90 -513 25 -101 59 -165 115 -222 26 -25 44 -46 41 -46
-17 0 -86 34 -86 42 0 5 -4 7 -10 3 -17 -10 -134 117 -165 180 -26 53 -30 73
-33 172 -4 118 15 219 45 230 7 3 11 8 8 13 -7 11 51 84 92 116 78 61 118 73
83 25z"/>
<path d="M5991 1194 c0 -11 3 -14 6 -6 3 7 2 16 -1 19 -3 4 -6 -2 -5 -13z"/>
<path d="M5280 553 c-8 -3 -26 -10 -40 -15 l-25 -10 23 -9 c18 -7 22 -16 22
-49 0 -23 -4 -49 -9 -58 -5 -9 -12 -57 -15 -107 l-7 -90 61 -3 c96 -4 140 32
140 114 0 26 -8 44 -29 65 -31 31 -51 35 -82 19 -20 -11 -28 3 -9 15 6 3 10
35 10 71 0 65 -4 70 -40 57z m70 -188 c23 -28 24 -88 2 -115 -32 -38 -56 -18
-60 50 -2 29 -1 59 2 66 7 18 40 18 56 -1z"/>
<path d="M5525 548 c-41 -15 -42 -16 -17 -34 22 -15 22 -21 18 -117 -3 -56 -5
-117 -5 -134 -1 -22 -6 -33 -16 -33 -8 0 -15 -4 -15 -10 0 -6 28 -10 65 -10
61 0 84 11 50 24 -12 4 -15 32 -15 166 0 177 2 172 -65 148z m39 -85 c2 -36
-2 -70 -10 -84 -11 -21 -12 -15 -7 47 4 47 2 74 -5 78 -6 4 -8 14 -5 22 11 29
24 -2 27 -63z"/>
<path d="M5086 511 c-29 -32 5 -72 45 -51 25 14 25 46 0 60 -25 13 -25 13 -45
-9z"/>
<path d="M4063 407 c-43 -16 -48 -24 -24 -37 19 -10 21 -20 21 -115 0 -95 -2
-105 -21 -115 -30 -17 -19 -21 55 -23 47 -2 66 2 66 11 0 6 -9 12 -20 12 -16
0 -20 7 -20 35 0 33 2 35 34 35 68 0 120 74 102 145 -15 59 -76 83 -126 48
-22 -16 -23 -16 -17 0 7 20 -4 21 -50 4z m121 -49 c21 -29 20 -92 0 -112 -18
-19 -20 -19 -45 -6 -15 9 -19 22 -19 69 0 32 3 61 7 64 13 14 42 6 57 -15z
m-87 -130 c-3 -8 -6 -5 -6 6 -1 11 2 17 5 13 3 -3 4 -12 1 -19z"/>
<path d="M4378 405 c-36 -20 -48 -44 -48 -95 0 -93 110 -135 182 -71 28 25 33
36 33 75 0 36 -6 51 -26 72 -33 33 -101 42 -141 19z m92 -41 c22 -56 5 -134
-29 -134 -37 0 -66 94 -42 139 17 31 59 28 71 -5z"/>
<path d="M4652 404 c-18 -12 -22 -24 -20 -52 3 -33 8 -39 48 -59 29 -14 45
-28 45 -40 0 -29 -39 -28 -63 1 -27 35 -44 34 -36 -1 9 -36 20 -43 70 -43 46
0 84 31 84 68 0 27 -34 59 -71 67 -35 8 -45 21 -29 40 17 21 27 19 54 -10 24
-26 36 -24 36 6 0 38 -77 52 -118 23z"/>
<path d="M4886 399 c-15 -12 -26 -30 -26 -45 0 -26 32 -64 53 -64 7 0 23 -7
35 -16 18 -13 21 -19 11 -30 -18 -22 -47 -17 -65 11 -22 33 -34 32 -34 -4 0
-33 14 -41 69 -41 55 0 83 24 79 68 -3 33 -8 39 -50 60 -49 23 -62 47 -31 59
10 4 24 -3 39 -20 29 -34 34 -34 34 2 0 46 -66 58 -114 20z"/>
<path d="M5120 413 c-8 -3 -26 -10 -40 -15 -22 -8 -23 -10 -7 -19 23 -13 25
-136 2 -145 -34 -13 -11 -24 50 -24 64 0 86 12 44 23 -21 6 -22 9 -15 96 7 94
5 99 -34 84z"/>
<path d="M5727 400 c-54 -43 -56 -138 -4 -175 34 -24 101 -19 134 9 20 18 25
28 17 36 -8 8 -14 7 -24 -5 -29 -35 -88 -11 -105 43 -6 21 -4 23 14 17 11 -3
41 -3 66 1 53 7 60 30 20 69 -30 31 -82 33 -118 5z m71 -12 c20 -20 13 -36
-18 -40 -38 -6 -44 2 -24 30 17 25 25 27 42 10z"/>
<path d="M5970 276 c-16 -20 -9 -60 11 -64 13 -2 17 6 17 37 1 43 -7 51 -28
27z"/>
</g>
</svg>
