<svg width="603" height="632" viewBox="0 0 603 632" fill="none" xmlns="http://www.w3.org/2000/svg">
<path d="M289.979 353.605C291.589 353.599 292.886 352.287 292.88 350.678C292.875 349.063 291.563 347.766 289.953 347.771H289.922C285.828 347.688 281.938 345.959 279.125 342.985C276.313 340.006 274.813 336.021 274.959 331.928C275.104 327.834 276.891 323.975 279.912 321.204C282.927 318.438 286.932 316.995 291.026 317.204C291.813 317.276 292.599 317.016 293.193 316.485C293.787 315.959 294.141 315.219 294.172 314.427L296.448 262.151L296.453 262.146C296.521 260.537 295.276 259.177 293.667 259.105C292.073 259.079 290.735 260.303 290.625 261.896L288.469 311.391C283.802 311.818 279.401 313.75 275.927 316.896C271.75 320.719 269.281 326.063 269.078 331.724C268.88 337.386 270.959 342.891 274.849 347.006C278.745 351.12 284.13 353.495 289.792 353.605L289.979 353.605Z" fill="black"/>
<path d="M330.499 272.845C336.963 268.496 344.728 266.511 352.488 267.225C360.249 267.938 367.519 271.308 373.082 276.761C374.202 277.923 376.051 277.954 377.207 276.834C378.368 275.714 378.4 273.871 377.28 272.709C370.728 266.282 362.154 262.319 353.02 261.475C343.879 260.636 334.728 262.975 327.113 268.095C325.801 269.032 325.493 270.85 326.431 272.162C327.363 273.475 329.187 273.782 330.499 272.845Z" fill="black"/>
<path d="M264.726 266.765C257.242 262.098 248.622 259.593 239.805 259.515C230.992 259.436 222.326 261.796 214.763 266.327C213.493 267.207 213.133 268.936 213.946 270.254C214.758 271.572 216.461 272.025 217.821 271.285C224.446 267.317 232.034 265.254 239.753 265.322C247.471 265.39 255.018 267.587 261.57 271.666C262.039 271.968 262.586 272.129 263.143 272.129C264.435 272.129 265.575 271.275 265.94 270.03C266.305 268.785 265.805 267.452 264.711 266.754L264.726 266.765Z" fill="black"/>
<path d="M325.873 385.858C326.894 384.613 326.711 382.775 325.467 381.754C324.217 380.733 322.383 380.915 321.357 382.16C317.097 387.238 311.524 391.051 305.248 393.186C298.972 395.322 292.227 395.696 285.753 394.275C284.186 393.91 282.613 394.884 282.248 396.457C281.883 398.025 282.863 399.592 284.43 399.957C287.383 400.639 290.399 400.983 293.425 400.978C305.941 400.972 317.816 395.442 325.873 385.858Z" fill="black"/>
<path d="M601.566 599.991L581.181 579.663H581.175C556.998 555.319 524.077 541.679 489.769 541.773H380.279C372.16 541.767 365.586 535.189 365.577 527.075V503.07C374.702 502.565 383.603 500.065 391.655 495.747C401.338 490.409 409.473 482.638 415.249 473.206C424.65 475.466 434.379 476.039 443.978 474.893C459.817 473.247 474.254 465.081 483.822 452.352C488.52 445.623 491.312 437.753 491.9 429.571C499.681 429.93 507.4 427.992 514.094 423.998C526.661 415.961 535.38 403.123 538.219 388.476C540.026 379.768 540.479 370.836 539.557 361.992C547.969 358.487 555.167 352.596 560.265 345.044C568.76 331.596 571.698 315.378 568.463 299.81C566.932 291.768 564.281 283.982 560.588 276.679C567.979 269.726 573.286 260.856 575.906 251.054C578.531 241.251 578.364 230.914 575.432 221.204C570.76 207.516 560.786 196.283 547.754 190.022C557.369 173.73 557.676 153.579 548.572 136.995C542.718 127.016 533.692 119.282 522.932 115.036C523.661 105.437 521.422 95.8429 516.515 87.5576C507.672 73.6883 493.578 63.9949 477.463 60.6976C470.995 59.2861 464.39 58.6091 457.775 58.682C453.15 43.7393 442.953 31.146 429.297 23.5153C415.641 15.8851 399.573 13.8071 384.422 17.7028C372.542 6.59346 356.958 0.286789 340.693 0.00945613C324.433 -0.266584 308.641 5.50945 296.395 16.2175C283.302 9.59772 268.245 7.96226 254.035 11.6237C239.822 15.28 227.431 23.9831 219.161 36.1077C201.354 31.3421 182.358 34.4099 166.953 44.5348C152.739 54.4307 143.031 69.5561 139.947 86.5975C123.297 87.7693 108.005 96.1808 98.0981 109.613C88.1918 123.04 84.6714 140.14 88.4678 156.389C73.6078 162.962 62.5931 175.993 58.5985 191.744C55.1922 207.26 58.6714 223.493 68.1349 236.249C62.1349 241.166 57.6922 247.723 55.3641 255.119C51.5203 269.207 53.4995 284.244 60.8433 296.859C64.9995 304.239 70.1402 311.02 76.1299 317.015C71.0206 323.27 67.7497 330.821 66.6769 338.827C65.1405 355.28 71.2238 371.529 83.1875 382.931C91.4479 390.681 101.433 396.352 112.324 399.467C111.735 408.42 113.751 417.357 118.131 425.191C129.417 445.607 154.152 457.8 177.834 454.972C179.386 468.967 186.526 481.743 197.64 490.399C208.75 499.055 222.886 502.857 236.838 500.935V527.071C236.838 530.967 235.291 534.707 232.53 537.467C229.775 540.222 226.035 541.769 222.134 541.769H112.645C78.3383 541.769 45.437 555.4 21.1757 579.66L0.84766 599.988C-0.282553 601.123 -0.282553 602.962 0.84766 604.097C1.38933 604.644 2.12371 604.951 2.88927 604.946C3.66531 604.962 4.41526 604.655 4.96219 604.097L25.3222 583.769C48.4729 560.619 79.8742 547.608 112.614 547.603H177.281C179.5 594.181 234.125 631.633 301.005 631.633C367.885 631.633 422.541 594.185 424.76 547.603H489.77C522.53 547.53 553.958 560.55 577.068 583.769L597.453 604.129C598 604.676 598.745 604.983 599.515 604.978C600.291 604.973 601.031 604.655 601.568 604.098C602.114 603.562 602.416 602.827 602.411 602.056C602.427 601.28 602.12 600.53 601.568 599.989L601.566 599.991ZM412.913 273.725C417.574 274.365 421.923 276.438 425.366 279.647C428.808 282.86 431.173 287.058 432.131 291.662C433.985 301.37 431.517 311.402 425.366 319.135C422.376 323.052 418.84 326.516 414.866 329.432C414.824 310.802 413.642 292.187 411.34 273.698C411.861 273.677 412.387 273.688 412.913 273.725ZM187.193 329.782C178.411 323.949 169.11 315.49 165.495 306.479C161.178 295.719 162.756 283.291 169.376 275.562H169.37C172.198 272.375 175.86 270.046 179.943 268.843C184.027 267.635 188.365 267.598 192.469 268.739C189.188 288.927 187.422 309.332 187.193 329.78L187.193 329.782ZM221.141 431.022C203.729 406.667 194.015 374.058 193.026 336.667C192.208 304.845 197.516 272.703 202.359 244.178C220.531 239.688 237.318 230.798 251.239 218.282C259.422 227.167 270.578 232.751 282.594 233.97C294.099 234.996 305.605 232.033 315.173 225.574C323.162 231.433 332.594 234.996 342.459 235.881C352.324 236.767 362.246 234.934 371.147 230.59C372.085 234.824 373.428 238.954 375.173 242.928C379.027 252.35 386.152 260.064 395.236 264.658C398.22 266.079 401.429 266.975 404.715 267.309C409.324 305.314 412.913 348.861 401.038 388.877H401.043C394.049 414.142 379.522 436.679 359.393 453.481C341.747 467.803 321.914 475.065 304.705 475.705C273.642 476.903 241.647 459.783 221.142 431.022H221.141ZM301.001 625.795C237.361 625.795 185.355 590.973 183.11 547.598H222.137H222.131C227.579 547.593 232.793 545.426 236.642 541.577C240.491 537.728 242.658 532.509 242.668 527.067V517.718C251.751 516.738 281.423 511.098 322.725 478.775V478.77C336.132 475.176 348.709 468.989 359.741 460.567V527.067C359.752 532.51 361.918 537.729 365.767 541.578C369.616 545.427 374.83 547.593 380.278 547.599H418.923C416.673 590.968 364.673 625.796 301.002 625.796L301.001 625.795Z" fill="black"/>
<path d="M351.993 281.111C346.659 281.111 342.336 289.195 342.336 299.169C342.336 309.143 346.659 317.231 351.993 317.231C357.326 317.231 361.649 309.148 361.649 299.169C361.654 289.195 357.326 281.111 351.993 281.111Z" fill="black"/>
<path d="M239.726 281.111C234.393 281.111 230.07 289.195 230.07 299.169C230.07 309.143 234.393 317.231 239.726 317.231C245.059 317.231 249.382 309.148 249.382 299.169C249.382 289.195 245.065 281.111 239.726 281.111Z" fill="black"/>
</svg>
