<svg width="722" height="681" viewBox="0 0 722 681" fill="none" xmlns="http://www.w3.org/2000/svg">
<path d="M344.844 249.276C347.214 250.562 349.865 251.25 352.563 251.265C354.73 251.276 356.865 250.786 358.803 249.828C360.246 249.104 360.824 247.349 360.1 245.906C359.376 244.468 357.621 243.89 356.178 244.614C353.454 245.828 350.319 245.671 347.725 244.208C345.131 242.739 343.386 240.125 343.027 237.166C342.662 234.208 343.725 231.255 345.886 229.203C348.048 227.151 351.053 226.244 353.99 226.76C354.834 226.953 355.72 226.76 356.402 226.229C357.084 225.703 357.501 224.896 357.537 224.036L358.641 196.484C358.704 194.875 357.454 193.521 355.845 193.453C355.069 193.406 354.303 193.677 353.735 194.208C353.162 194.734 352.829 195.474 352.813 196.25L351.829 220.75C348.11 220.948 344.579 222.448 341.85 224.984C338.001 228.125 336.032 233.021 336.641 237.948C337.246 242.88 340.339 247.151 344.834 249.266L344.844 249.276Z" fill="black"/>
<path d="M326.511 270.622C325.824 270.268 325.022 270.2 324.287 270.429C323.548 270.664 322.933 271.185 322.579 271.872C321.839 273.299 322.397 275.06 323.824 275.804C346.021 286.981 372.345 286.257 393.897 273.883C395.241 273.044 395.668 271.289 394.866 269.924C394.059 268.565 392.314 268.091 390.934 268.862C371.122 280.242 346.911 280.903 326.511 270.622Z" fill="black"/>
<path d="M331.844 153.076C332.589 153.305 333.402 153.227 334.089 152.857C334.777 152.487 335.287 151.857 335.506 151.107C335.725 150.352 335.631 149.544 335.251 148.862C334.871 148.18 334.23 147.68 333.475 147.477C313.152 141.648 291.281 145.299 273.953 157.414C273.313 157.857 272.87 158.534 272.735 159.305C272.594 160.07 272.771 160.862 273.224 161.497C273.672 162.138 274.36 162.565 275.125 162.695C275.896 162.82 276.683 162.638 277.318 162.18C293.239 151.206 313.219 147.868 331.844 153.076Z" fill="black"/>
<path d="M382.391 152.262C391.62 149.002 401.563 148.314 411.151 150.288C420.74 152.257 429.61 156.804 436.807 163.439C437.364 163.981 438.12 164.283 438.901 164.267C439.682 164.247 440.427 163.918 440.963 163.351C441.5 162.783 441.786 162.028 441.755 161.247C441.729 160.465 441.391 159.726 440.812 159.2C432.823 151.83 422.968 146.778 412.323 144.59C401.672 142.403 390.626 143.163 380.375 146.788C378.865 147.34 378.089 149.017 378.646 150.533C379.203 152.043 380.881 152.819 382.391 152.262Z" fill="black"/>
<path d="M406.311 185.102C401.139 185.102 396.947 192.608 396.947 201.868C396.947 211.128 401.139 218.638 406.311 218.638C411.483 218.638 415.681 211.133 415.681 201.868C415.676 192.607 411.483 185.102 406.311 185.102Z" fill="black"/>
<path d="M307.338 185.102C302.166 185.102 297.973 192.608 297.973 201.868C297.973 211.128 302.166 218.638 307.338 218.638C312.51 218.638 316.707 211.133 316.707 201.868C316.702 192.607 312.51 185.102 307.338 185.102Z" fill="black"/>
<path d="M721.285 676.569C697.681 618.705 660.555 567.334 613.025 526.756C565.494 486.182 508.937 457.584 448.078 443.349C444.333 442.469 441.698 439.115 441.719 435.271V318.255C448.349 309.385 453.864 299.739 458.14 289.525C460.067 284.947 461.728 280.338 463.244 275.671C466.275 276.228 469.348 276.509 472.431 276.515C480.03 276.572 487.525 274.749 494.249 271.207C506.936 264.509 515.103 251.567 515.686 237.229C515.79 230.093 513.717 223.093 509.743 217.166C505.764 211.239 500.077 206.671 493.431 204.067C487.39 202.004 480.859 201.864 474.734 203.656C475.114 197.062 475.375 190.416 475.609 183.734L475.843 176.265V176.271C480.708 160.525 484.125 144.369 486.052 128C488.765 100.964 484.536 76.5212 473.833 57.3026C461.234 34.7292 438.306 16.8492 409.344 6.93324C382.13 -2.36889 355.5 -2.31156 334.354 7.11032V7.10511C317.985 14.4488 305.136 27.9118 298.568 44.6158C292.724 42.6574 286.724 41.2147 280.63 40.298C258.901 37.147 238.516 43.0116 226.089 55.9914C213.141 69.4647 208.062 90.5221 210.953 118.585V118.58C214.083 148.225 223.109 176.94 237.494 203.049C231.395 202.877 225.406 204.663 220.401 208.153C215.099 212.221 211.104 217.762 208.922 224.085C206.739 230.403 206.458 237.231 208.125 243.705C211.63 256.486 220.766 266.976 232.942 272.2C240.489 275.517 248.65 277.189 256.89 277.101C258.552 277.101 260.244 277.012 261.906 276.898C264.661 284.189 267.895 291.294 271.588 298.158C275.197 304.793 279.374 311.095 284.072 317.002V433.376C284.031 437.194 281.312 440.454 277.567 441.194C220.302 452.621 166.062 475.907 118.327 509.554C70.5979 543.199 30.4366 586.461 0.42594 636.554C-0.412607 637.929 0.0249033 639.726 1.40512 640.564C2.78005 641.398 4.57698 640.96 5.41551 639.585C55.4315 556.075 133.353 492.932 225.416 461.319C240.842 507.548 294.598 539.6 357.483 539.6C420.161 539.6 473.858 507.693 489.462 461.668C540.312 479.971 586.744 508.756 625.756 546.157C664.761 583.564 695.469 628.745 715.886 678.783C716.501 680.272 718.204 680.986 719.694 680.376C721.183 679.762 721.897 678.059 721.282 676.569H721.285ZM488.978 225.449C483.019 225.892 477.296 227.97 472.442 231.454C473.286 224.34 473.9 217.162 474.369 209.927H474.364C479.853 207.813 485.911 207.677 491.489 209.552C496.994 211.724 501.703 215.532 504.989 220.454C508.275 225.381 509.973 231.193 509.864 237.115C509.244 249.313 502.286 260.303 491.515 266.074C483.348 270.282 474.015 271.678 464.973 270.042C467.734 260.245 469.838 250.282 471.275 240.204C475.942 235.032 482.411 231.839 489.358 231.282C490.967 231.172 492.191 229.782 492.082 228.172C491.978 226.563 490.587 225.34 488.978 225.449ZM470.691 175.194H470.431L470.342 175.106L470.691 175.194ZM235.345 266.892C224.803 262.392 216.875 253.345 213.793 242.304C212.412 236.96 212.621 231.324 214.397 226.096C216.178 220.866 219.444 216.273 223.798 212.877C228.845 209.46 235.032 208.153 241.032 209.231C243.163 212.788 245.376 216.319 247.71 219.762C248.553 225.158 249.459 230.497 250.512 235.803C245.532 229.329 238.548 224.694 230.652 222.616C229.089 222.225 227.501 223.168 227.105 224.731C226.714 226.293 227.657 227.882 229.219 228.277C238.886 230.783 246.75 237.798 250.339 247.116C250.772 248.257 251.86 249.007 253.079 249.012C253.188 249.007 253.298 248.991 253.402 248.955C255.209 256.507 257.339 263.944 259.85 271.179H259.844C251.454 271.705 243.063 270.235 235.345 266.892ZM276.73 295.361C259.173 262.954 253.657 225.273 249.167 186.278H249.172C253.761 154.664 269.808 125.836 294.26 105.284C299.318 110.45 305.526 114.346 312.375 116.659C323.927 120.507 336.178 120.653 348.015 120.773C352.567 120.83 357.291 120.888 361.838 121.153L361.843 121.148C405.682 124.393 445.54 147.784 469.76 184.471C468.479 220.46 466.146 255.403 452.787 287.252C436.631 325.752 404.402 352.325 370.683 354.949C329.819 358.126 294.058 327.324 276.735 295.361L276.73 295.361ZM357.49 533.761C298.078 533.761 245.459 502.668 230.938 459.474H230.943C246.604 454.334 262.558 450.136 278.719 446.901C285.193 445.63 289.875 439.969 289.917 433.371V397.516C323.666 392.089 355.677 378.833 383.386 358.808C403.917 353.376 422.261 341.715 435.886 325.423V435.267C435.834 441.824 440.345 447.537 446.74 449.007C459.397 451.981 471.803 455.559 483.959 459.741C469.323 502.788 416.735 533.762 357.495 533.762L357.49 533.761Z" fill="black"/>
</svg>
