<svg width="602" height="706" viewBox="0 0 602 706" fill="none" xmlns="http://www.w3.org/2000/svg">
<path d="M168.336 298.348C167.57 298.244 166.794 298.452 166.179 298.921C165.565 299.395 165.164 300.087 165.06 300.853C164.846 302.452 165.971 303.921 167.565 304.129C173.268 305.025 178.502 307.79 182.45 311.999C186.398 316.207 188.825 321.608 189.351 327.353C189.455 328.885 190.732 330.072 192.268 330.067H192.471C193.242 330.015 193.961 329.661 194.471 329.077C194.976 328.494 195.237 327.734 195.179 326.963C194.534 319.885 191.539 313.223 186.674 308.042C181.815 302.859 175.357 299.447 168.336 298.348Z" fill="black"/>
<path d="M290.669 222.534C291.357 222.534 292.023 222.295 292.549 221.852C298.987 216.592 306.789 213.274 315.044 212.279C323.299 211.29 331.669 212.665 339.169 216.248C340.612 216.967 342.362 216.378 343.081 214.935C343.8 213.493 343.211 211.743 341.768 211.024C333.242 206.956 323.738 205.394 314.356 206.519C304.975 207.644 296.106 211.415 288.788 217.388C287.851 218.175 287.507 219.467 287.924 220.618C288.346 221.769 289.445 222.534 290.669 222.534Z" fill="black"/>
<path d="M465.389 218.161L469.43 213.958C463.253 208.344 455.337 205.015 447.004 204.531C438.67 204.047 430.425 206.432 423.64 211.291L427.166 215.937V215.943C432.827 211.88 439.713 209.89 446.671 210.291C453.624 210.698 460.233 213.474 465.389 218.161Z" fill="black"/>
<path d="M426.829 409.401C414.876 415.537 401.36 417.953 388.023 416.339C374.684 414.724 362.137 409.151 351.996 400.339C351.428 399.792 350.657 399.495 349.871 399.521C349.079 399.547 348.334 399.896 347.803 400.484C347.272 401.073 347.001 401.849 347.058 402.635C347.11 403.427 347.485 404.162 348.09 404.667C361.454 416.386 378.663 422.787 396.439 422.656C407.986 422.729 419.376 419.948 429.59 414.552C431.011 413.792 431.543 412.021 430.777 410.604C430.017 409.182 428.246 408.651 426.829 409.417L426.829 409.401Z" fill="black"/>
<path d="M352.616 292.094C352.616 305.329 346.907 316.058 339.866 316.058C332.824 316.058 327.116 305.329 327.116 292.094C327.116 278.86 332.824 268.13 339.866 268.13C346.907 268.13 352.616 278.86 352.616 292.094Z" fill="black"/>
<path d="M461.309 316.055C468.35 316.055 474.059 305.325 474.059 292.09C474.059 278.856 468.35 268.132 461.309 268.132C454.267 268.132 448.559 278.861 448.559 292.09C448.564 305.32 454.272 316.055 461.309 316.055Z" fill="black"/>
<path d="M601.242 701.254L541.945 617.489C516.221 581.145 474.472 559.53 429.945 559.505H416.763V479.5C437.44 475.979 456.211 465.26 469.752 449.24C483.294 433.213 490.731 412.922 490.758 391.942V370.473V370.478C514.804 369.463 536.602 356.052 548.342 335.041C560.081 314.03 560.081 288.437 548.342 267.426C536.602 246.421 514.806 233.005 490.758 231.994V221.64C516.107 210.338 535.586 188.974 544.512 162.692C553.309 135.64 548.143 105.99 530.715 83.5042C516.642 66.4255 496.002 56.0975 473.898 55.0669C471.804 47.1919 467.887 39.9215 462.465 33.8322C453.658 23.827 440.971 16.1869 424.752 11.1709C397.189 2.47819 366.971 4.57712 343.555 16.7438C315.691 0.779789 282.8 -3.99088 251.544 3.38912C220.293 10.7746 193.013 29.7531 175.232 56.4985C166.774 69.1547 162.633 82.6918 163.68 94.1545C126.581 104.243 95.9305 140.701 90.2425 181.884C83.857 228.93 109.024 276.764 134.982 306.222C135.107 318.769 139.035 330.982 146.243 341.249C146.535 341.687 146.857 342.124 147.175 342.562C140.529 364.802 142.446 388.718 152.54 409.619C163.769 432.775 189.55 448.734 209.124 455.791V559.51L137.493 559.504C107.608 559.458 78.9357 571.327 57.837 592.494L0.847675 649.483C-0.287738 650.629 -0.282539 652.478 0.8633 653.613C2.00393 654.749 3.85289 654.738 4.98836 653.598L61.9524 596.634C81.9524 576.551 109.15 565.284 137.494 565.336H191.04C194.285 581.763 200.566 597.446 209.562 611.566C228.608 641.259 257.89 662.722 289.974 670.483H289.979C299.432 672.749 309.124 673.884 318.854 673.869C355.223 673.639 390.056 659.191 415.916 633.618C424.26 625.337 431.38 615.905 437.062 605.618C437.494 604.936 437.624 604.107 437.426 603.326C437.223 602.55 436.707 601.883 436.004 601.498C435.296 601.113 434.463 601.034 433.697 601.284C432.931 601.534 432.301 602.087 431.957 602.816C427.713 610.482 422.614 617.644 416.764 624.165V565.337H429.946C472.572 565.368 512.534 586.056 537.165 620.842L596.462 704.64H596.457C597.02 705.4 597.905 705.853 598.853 705.864C599.452 705.858 600.046 705.676 600.54 705.338C601.848 704.395 602.154 702.583 601.242 701.254ZM490.758 237.828C512.717 238.838 532.592 251.14 543.289 270.344C553.992 289.546 553.992 312.922 543.289 332.125C532.591 351.333 512.716 363.636 490.758 364.646V237.828ZM209.118 599.054C203.493 588.45 199.405 577.096 196.988 565.336H209.124L209.118 599.054ZM484.918 364.641C462.96 363.631 443.085 351.329 432.388 332.12C421.685 312.917 421.685 289.541 432.388 270.338C443.086 251.136 462.961 238.833 484.918 237.822V364.641ZM214.945 256.313C241.133 231.266 261.888 201.11 275.934 167.704C330.445 178.272 386.929 167.527 433.761 137.693C448.36 158.772 465.548 177.938 484.917 194.745V231.99C472.334 232.532 460.136 236.49 449.625 243.433C439.12 250.381 430.698 260.058 425.27 271.422C421.896 269.152 418.14 267.501 414.187 266.553C414.13 266.553 414.099 266.521 414.073 266.521C405.718 264.334 396.849 265.298 389.161 269.235C380.004 251.642 363.749 238.819 344.51 234.006C325.27 229.193 304.895 232.855 288.531 244.058C272.171 255.266 261.395 272.949 258.933 292.626H214.949L214.945 256.313ZM422.932 276.964C421.224 281.479 420 286.162 419.286 290.933C418.499 285.157 417.682 279.355 416.895 273.578C419.041 274.448 421.072 275.584 422.932 276.964ZM391.172 301.229C391.172 318.068 384.49 334.218 372.584 346.125C360.678 358.037 344.532 364.724 327.693 364.724C310.854 364.729 294.709 358.036 282.802 346.13C270.896 334.229 264.209 318.078 264.209 301.24C264.209 284.401 270.902 268.256 282.808 256.349C294.714 244.448 310.865 237.761 327.704 237.765C344.526 237.786 360.657 244.484 372.553 256.38C384.454 268.276 391.145 284.406 391.172 301.229ZM291.302 664.829C260.938 657.48 233.146 637.178 214.942 609.121V426.801C220.588 441.181 230.041 453.749 242.292 463.156C254.537 472.567 269.12 478.458 284.469 480.202C317.193 515.202 393.584 528.52 410.917 531.14V630.306C379.36 661.213 332.573 674.776 291.302 664.833V664.829ZM401.933 474.949H293.928C272.985 474.928 252.912 466.6 238.1 451.793C223.293 436.986 214.964 416.908 214.944 395.965V377.064C214.944 375.595 213.84 374.356 212.381 374.178C188.376 371.116 163.179 356.241 151.075 338.012H151.069C143.595 327.616 140.059 314.897 141.095 302.137C142.7 289.272 151.418 277.96 162.33 274.632C164.856 273.871 167.481 273.486 170.116 273.496C180.413 273.892 190.163 278.225 197.362 285.6C202.112 290.361 206.195 295.746 209.492 301.611C210.148 302.767 211.502 303.335 212.784 302.991C214.065 302.648 214.956 301.481 214.945 300.153V298.46H258.461C258.404 299.366 258.373 300.299 258.373 301.231H258.378C258.383 321.996 267.696 341.668 283.758 354.83C299.821 367.991 320.935 373.262 341.299 369.184C361.659 365.106 379.122 352.116 388.878 333.783C398.638 315.45 399.659 293.71 391.67 274.543C397.539 271.512 404.258 270.548 410.743 271.803C412.233 282.48 413.707 293.142 415.175 303.798C416.811 315.553 418.415 327.309 420.076 339.058C420.983 345.855 421.535 352.298 418.384 356.881C415.514 360.162 411.904 362.709 407.858 364.318C402.227 367.177 396.394 370.12 394.035 376.537H394.03C393.696 377.438 393.821 378.443 394.368 379.224C394.915 380.011 395.816 380.48 396.775 380.474C398.004 380.474 399.098 379.709 399.514 378.553C401.061 374.292 405.639 371.99 410.509 369.542V369.537C415.441 367.527 419.79 364.318 423.17 360.204C427.894 353.407 426.67 344.308 425.853 338.272C425.446 335.412 425.066 332.553 424.655 329.699C429.941 341.407 438.373 351.417 449.015 358.616C459.655 365.814 472.083 369.918 484.916 370.475V391.945V391.939C484.895 413.945 476.145 435.043 460.593 450.601C445.036 466.163 423.943 474.918 401.937 474.95L401.933 474.949Z" fill="black"/>
</svg>
