<svg xmlns="http://www.w3.org/2000/svg" xmlns:xlink="http://www.w3.org/1999/xlink" width="700pt" height="700pt" version="1.1" viewBox="0 0 700 700">
 <defs>
  <symbol id="w" overflow="visible">
   <path d="m7.3281-0.4375c-0.375 0.19922-0.77344 0.34375-1.1875 0.4375-0.40625 0.10156-0.83594 0.15625-1.2812 0.15625-1.3242 0-2.375-0.36719-3.1562-1.1094-0.77344-0.75-1.1562-1.7578-1.1562-3.0312 0-1.2695 0.38281-2.2734 1.1562-3.0156 0.78125-0.75 1.832-1.125 3.1562-1.125 0.44531 0 0.875 0.054688 1.2812 0.15625 0.41406 0.10547 0.8125 0.25 1.1875 0.4375v1.6562c-0.38672-0.25781-0.76562-0.44531-1.1406-0.5625-0.36719-0.125-0.75-0.1875-1.1562-0.1875-0.73047 0-1.3086 0.23438-1.7344 0.70312-0.41797 0.46875-0.625 1.1172-0.625 1.9375 0 0.82422 0.20703 1.4766 0.625 1.9531 0.42578 0.46875 1.0039 0.70312 1.7344 0.70312 0.40625 0 0.78906-0.0625 1.1562-0.1875 0.375-0.125 0.75391-0.31641 1.1406-0.57812z"/>
  </symbol>
  <symbol id="d" overflow="visible">
   <path d="m5.3594-4.3594c-0.16797-0.070313-0.33594-0.125-0.5-0.15625-0.16797-0.039063-0.33594-0.0625-0.5-0.0625-0.49219 0-0.87109 0.15625-1.1406 0.46875-0.26172 0.3125-0.39062 0.76562-0.39062 1.3594v2.75h-1.9062v-5.9844h1.9062v0.98438c0.25-0.39453 0.53125-0.67969 0.84375-0.85938 0.32031-0.17578 0.70703-0.26562 1.1562-0.26562 0.0625 0 0.12891 0.007812 0.20312 0.015625 0.070312 0 0.17969 0.011719 0.32812 0.03125z"/>
  </symbol>
  <symbol id="a" overflow="visible">
   <path d="m6.8906-3v0.53125h-4.4688c0.039063 0.44922 0.20312 0.78906 0.48438 1.0156 0.28125 0.23047 0.66406 0.34375 1.1562 0.34375 0.40625 0 0.81641-0.054687 1.2344-0.17188 0.42578-0.125 0.86328-0.3125 1.3125-0.5625v1.4844c-0.46094 0.16797-0.91406 0.29297-1.3594 0.375-0.44922 0.09375-0.90234 0.14062-1.3594 0.14062-1.0859 0-1.9297-0.27344-2.5312-0.82812-0.59375-0.55078-0.89062-1.3203-0.89062-2.3125 0-0.97656 0.28906-1.7422 0.875-2.2969 0.59375-0.5625 1.4062-0.84375 2.4375-0.84375 0.94531 0 1.7031 0.28906 2.2656 0.85938 0.5625 0.5625 0.84375 1.3203 0.84375 2.2656zm-1.9688-0.64062c0-0.36328-0.10938-0.65625-0.32812-0.875-0.21094-0.22656-0.48047-0.34375-0.8125-0.34375-0.375 0-0.67969 0.10547-0.90625 0.3125-0.23047 0.21094-0.375 0.51172-0.4375 0.90625z"/>
  </symbol>
  <symbol id="o" overflow="visible">
   <path d="m3.5938-2.6875c-0.39844 0-0.69922 0.070312-0.90625 0.20312-0.19922 0.13672-0.29688 0.33594-0.29688 0.59375 0 0.24219 0.082031 0.43359 0.25 0.57812 0.16406 0.13672 0.39062 0.20312 0.67188 0.20312 0.36328 0 0.66406-0.12891 0.90625-0.39062 0.25-0.25781 0.375-0.58203 0.375-0.96875v-0.21875zm2.9219-0.71875v3.4062h-1.9219v-0.89062c-0.26172 0.36719-0.55469 0.63281-0.875 0.79688-0.3125 0.16406-0.69922 0.25-1.1562 0.25-0.625 0-1.1328-0.17578-1.5156-0.53125-0.38672-0.36328-0.57812-0.83594-0.57812-1.4219 0-0.69531 0.23828-1.207 0.71875-1.5312 0.48828-0.33203 1.25-0.5 2.2812-0.5h1.125v-0.15625c0-0.30078-0.12109-0.51953-0.35938-0.65625-0.24219-0.14453-0.60938-0.21875-1.1094-0.21875-0.41797 0-0.80469 0.042969-1.1562 0.125-0.34375 0.085937-0.66797 0.21094-0.96875 0.375v-1.4688c0.40625-0.09375 0.8125-0.16406 1.2188-0.21875 0.41406-0.050781 0.83203-0.078125 1.25-0.078125 1.0703 0 1.8477 0.21484 2.3281 0.64062 0.47656 0.42969 0.71875 1.1211 0.71875 2.0781z"/>
  </symbol>
  <symbol id="c" overflow="visible">
   <path d="m3-7.6875v1.7031h1.9844v1.375h-1.9844v2.5312c0 0.28125 0.054688 0.46875 0.17188 0.5625 0.11328 0.09375 0.33203 0.14062 0.65625 0.14062h0.98438v1.375h-1.6406c-0.75 0-1.2891-0.15625-1.6094-0.46875-0.3125-0.3125-0.46875-0.84766-0.46875-1.6094v-2.5312h-0.95312v-1.375h0.95312v-1.7031z"/>
  </symbol>
  <symbol id="n" overflow="visible">
   <path d="m4.9844-5.1094v-3.2031h1.9219v8.3125h-1.9219v-0.85938c-0.26172 0.34375-0.55469 0.60156-0.875 0.76562-0.3125 0.16406-0.67969 0.25-1.0938 0.25-0.74219 0-1.3516-0.28906-1.8281-0.875-0.46875-0.59375-0.70312-1.3477-0.70312-2.2656 0-0.92578 0.23438-1.6797 0.70312-2.2656 0.47656-0.58203 1.0859-0.875 1.8281-0.875 0.41406 0 0.78125 0.085938 1.0938 0.25 0.32031 0.16797 0.61328 0.42188 0.875 0.76562zm-1.25 3.875c0.40625 0 0.71094-0.14453 0.92188-0.4375 0.21875-0.30078 0.32812-0.73828 0.32812-1.3125 0-0.57031-0.10938-1.0039-0.32812-1.2969-0.21094-0.30078-0.51562-0.45312-0.92188-0.45312s-0.71875 0.15234-0.9375 0.45312c-0.21875 0.29297-0.32812 0.72656-0.32812 1.2969 0 0.57422 0.10938 1.0117 0.32812 1.3125 0.21875 0.29297 0.53125 0.4375 0.9375 0.4375z"/>
  </symbol>
  <symbol id="m" overflow="visible">
   <path d="m4.1094-1.2344c0.40625 0 0.71094-0.14453 0.92188-0.4375 0.21875-0.30078 0.32812-0.73828 0.32812-1.3125 0-0.57031-0.10938-1.0039-0.32812-1.2969-0.21094-0.30078-0.51562-0.45312-0.92188-0.45312-0.41797 0-0.73438 0.15234-0.95312 0.45312-0.21875 0.30469-0.32812 0.73438-0.32812 1.2969s0.10938 0.99609 0.32812 1.2969c0.21875 0.30469 0.53516 0.45312 0.95312 0.45312zm-1.2812-3.875c0.25781-0.34375 0.55078-0.59766 0.875-0.76562 0.32031-0.16406 0.69141-0.25 1.1094-0.25 0.73828 0 1.3438 0.29297 1.8125 0.875 0.47656 0.58594 0.71875 1.3398 0.71875 2.2656 0 0.91797-0.24219 1.6719-0.71875 2.2656-0.46875 0.58594-1.0742 0.875-1.8125 0.875-0.41797 0-0.78906-0.085938-1.1094-0.25-0.32422-0.16406-0.61719-0.42188-0.875-0.76562v0.85938h-1.9062v-8.3125h1.9062z"/>
  </symbol>
  <symbol id="l" overflow="visible">
   <path d="m0.14062-5.9844h1.9062l1.6094 4.0625 1.3594-4.0625h1.9219l-2.5156 6.5469c-0.26172 0.66406-0.55859 1.1289-0.89062 1.3906-0.33594 0.26953-0.77734 0.40625-1.3281 0.40625h-1.1094v-1.25h0.59375c0.32031 0 0.55469-0.054687 0.70312-0.15625 0.15625-0.10547 0.27344-0.29297 0.35938-0.5625l0.046875-0.15625z"/>
  </symbol>
  <symbol id="k" overflow="visible">
   <path d="m1-7.9688h2.0625v2.9062l2.9688-2.9062h2.375l-3.8281 3.7656 4.2344 4.2031h-2.5781l-3.1719-3.1406v3.1406h-2.0625z"/>
  </symbol>
  <symbol id="b" overflow="visible">
   <path d="m3.7656-4.7656c-0.42969 0-0.75 0.15625-0.96875 0.46875-0.21875 0.30469-0.32812 0.74219-0.32812 1.3125 0 0.57422 0.10938 1.0117 0.32812 1.3125 0.21875 0.30469 0.53906 0.45312 0.96875 0.45312 0.41406 0 0.73438-0.14844 0.95312-0.45312 0.21875-0.30078 0.32812-0.73828 0.32812-1.3125 0-0.57031-0.10938-1.0078-0.32812-1.3125-0.21875-0.3125-0.53906-0.46875-0.95312-0.46875zm0-1.3594c1.0312 0 1.832 0.28125 2.4062 0.84375 0.58203 0.55469 0.875 1.3203 0.875 2.2969 0 0.98047-0.29297 1.75-0.875 2.3125-0.57422 0.55469-1.375 0.82812-2.4062 0.82812s-1.8398-0.27344-2.4219-0.82812c-0.58594-0.5625-0.875-1.332-0.875-2.3125 0-0.97656 0.28906-1.7422 0.875-2.2969 0.58203-0.5625 1.3906-0.84375 2.4219-0.84375z"/>
  </symbol>
  <symbol id="e" overflow="visible">
   <path d="m6.4688-4.9844c0.23828-0.375 0.52344-0.65625 0.85938-0.84375 0.33203-0.19531 0.69531-0.29688 1.0938-0.29688 0.6875 0 1.207 0.21484 1.5625 0.64062 0.36328 0.41797 0.54688 1.0312 0.54688 1.8438v3.6406h-1.9219v-3.125-0.14062c0.007813-0.050781 0.015625-0.125 0.015625-0.21875 0-0.41406-0.0625-0.71875-0.1875-0.90625-0.125-0.19531-0.32812-0.29688-0.60938-0.29688-0.36719 0-0.64844 0.15234-0.84375 0.45312-0.19922 0.30469-0.29688 0.73438-0.29688 1.2969v2.9375h-1.9219v-3.125c0-0.65625-0.058594-1.0781-0.17188-1.2656-0.11719-0.19531-0.32031-0.29688-0.60938-0.29688-0.375 0-0.66406 0.15234-0.85938 0.45312-0.19922 0.30469-0.29688 0.73438-0.29688 1.2969v2.9375h-1.9219v-5.9844h1.9219v0.875c0.23828-0.33203 0.50781-0.58203 0.8125-0.75 0.30078-0.17578 0.63281-0.26562 1-0.26562 0.41406 0 0.78125 0.10156 1.0938 0.29688 0.32031 0.19922 0.56641 0.48047 0.73438 0.84375z"/>
  </symbol>
  <symbol id="v" overflow="visible">
   <path d="m0.92188-8.3125h1.9062v4.5312l2.2031-2.2031h2.2188l-2.9219 2.75 3.1562 3.2344h-2.3125l-2.3438-2.5v2.5h-1.9062z"/>
  </symbol>
  <symbol id="j" overflow="visible">
   <path d="m0.92188-5.9844h1.9062v5.9844h-1.9062zm0-2.3281h1.9062v1.5625h-1.9062z"/>
  </symbol>
  <symbol id="i" overflow="visible">
   <path d="m1-7.9688h2.2969l2.9062 5.4688v-5.4688h1.9531v7.9688h-2.2969l-2.9062-5.4688v5.4688h-1.9531z"/>
  </symbol>
  <symbol id="h" overflow="visible">
   <path d="m6.9375-3.6406v3.6406h-1.9219v-2.7812c0-0.51953-0.015625-0.87891-0.046875-1.0781-0.023438-0.19531-0.058594-0.33594-0.10938-0.42188-0.074219-0.125-0.17969-0.22266-0.3125-0.29688-0.125-0.070313-0.27344-0.10938-0.4375-0.10938-0.39844 0-0.71094 0.15625-0.9375 0.46875-0.23047 0.30469-0.34375 0.73047-0.34375 1.2812v2.9375h-1.9062v-5.9844h1.9062v0.875c0.28906-0.34375 0.59766-0.59766 0.92188-0.76562 0.32031-0.16406 0.67969-0.25 1.0781-0.25 0.6875 0 1.207 0.21484 1.5625 0.64062 0.36328 0.41797 0.54688 1.0312 0.54688 1.8438z"/>
  </symbol>
  <symbol id="g" overflow="visible">
   <path d="m2.8281-0.85938v3.1406h-1.9062v-8.2656h1.9062v0.875c0.25781-0.34375 0.55078-0.59766 0.875-0.76562 0.32031-0.16406 0.69141-0.25 1.1094-0.25 0.73828 0 1.3438 0.29297 1.8125 0.875 0.47656 0.58594 0.71875 1.3398 0.71875 2.2656 0 0.91797-0.24219 1.6719-0.71875 2.2656-0.46875 0.58594-1.0742 0.875-1.8125 0.875-0.41797 0-0.78906-0.085938-1.1094-0.25-0.32422-0.16406-0.61719-0.42188-0.875-0.76562zm1.2812-3.875c-0.41797 0-0.73438 0.15234-0.95312 0.45312-0.21875 0.30469-0.32812 0.73438-0.32812 1.2969s0.10938 0.99609 0.32812 1.2969c0.21875 0.30469 0.53516 0.45312 0.95312 0.45312 0.40625 0 0.71094-0.14453 0.92188-0.4375 0.21875-0.30078 0.32812-0.73828 0.32812-1.3125 0-0.57031-0.10938-1.0039-0.32812-1.2969-0.21094-0.30078-0.51562-0.45312-0.92188-0.45312z"/>
  </symbol>
  <symbol id="u" overflow="visible">
   <path d="m5.5938-5.7969v1.4531c-0.40625-0.16406-0.80469-0.28906-1.1875-0.375-0.38672-0.09375-0.74609-0.14062-1.0781-0.14062-0.36719 0-0.63672 0.046875-0.8125 0.14062-0.17969 0.09375-0.26562 0.23438-0.26562 0.42188 0 0.15625 0.066406 0.27734 0.20312 0.35938 0.13281 0.074219 0.375 0.13281 0.71875 0.17188l0.34375 0.046875c0.97656 0.125 1.6328 0.33594 1.9688 0.625 0.33203 0.28125 0.5 0.72656 0.5 1.3281 0 0.63672-0.23438 1.1172-0.70312 1.4375-0.46875 0.32422-1.168 0.48438-2.0938 0.48438-0.39844 0-0.80859-0.03125-1.2344-0.09375-0.41797-0.0625-0.85156-0.15625-1.2969-0.28125v-1.4531c0.38281 0.1875 0.77344 0.32812 1.1719 0.42188 0.40625 0.09375 0.8125 0.14062 1.2188 0.14062 0.375 0 0.65625-0.050781 0.84375-0.15625 0.1875-0.10156 0.28125-0.25781 0.28125-0.46875 0-0.16406-0.070313-0.28906-0.20312-0.375-0.125-0.082031-0.38281-0.14844-0.76562-0.20312l-0.32812-0.03125c-0.85547-0.11328-1.4531-0.3125-1.7969-0.59375-0.34375-0.28906-0.51562-0.72656-0.51562-1.3125 0-0.63281 0.21875-1.1016 0.65625-1.4062 0.4375-0.3125 1.1016-0.46875 2-0.46875 0.35156 0 0.72266 0.027344 1.1094 0.078125 0.38281 0.054687 0.80469 0.13672 1.2656 0.25z"/>
  </symbol>
  <symbol id="f" overflow="visible">
   <path d="m0.85938-2.3281v-3.6562h1.9219v0.59375c0 0.33594-0.007812 0.74609-0.015625 1.2344v0.96875c0 0.48047 0.007813 0.82812 0.03125 1.0469 0.03125 0.21094 0.078125 0.35938 0.14062 0.45312 0.070312 0.125 0.17188 0.22656 0.29688 0.29688 0.125 0.0625 0.26953 0.09375 0.4375 0.09375 0.39453 0 0.70703-0.14844 0.9375-0.45312 0.22656-0.3125 0.34375-0.73828 0.34375-1.2812v-2.9531h1.9219v5.9844h-1.9219v-0.85938c-0.28125 0.34375-0.58594 0.60156-0.90625 0.76562-0.32422 0.16406-0.68359 0.25-1.0781 0.25-0.6875 0-1.2148-0.20703-1.5781-0.625-0.35547-0.42578-0.53125-1.0469-0.53125-1.8594z"/>
  </symbol>
  <symbol id="t" overflow="visible">
   <path d="m4.8594-8.3125v1.25h-1.0625c-0.27344 0-0.46094 0.054688-0.5625 0.15625-0.10547 0.09375-0.15625 0.26562-0.15625 0.51562v0.40625h1.625v1.375h-1.625v4.6094h-1.9219v-4.6094h-0.95312v-1.375h0.95312v-0.40625c0-0.65625 0.17969-1.1406 0.54688-1.4531 0.36328-0.3125 0.92578-0.46875 1.6875-0.46875z"/>
  </symbol>
  <symbol id="s" overflow="visible">
   <path d="m6.9375-3.6406v3.6406h-1.9219v-2.7812c0-0.51953-0.015625-0.87891-0.046875-1.0781-0.023438-0.19531-0.058594-0.33594-0.10938-0.42188-0.074219-0.125-0.17969-0.22266-0.3125-0.29688-0.125-0.070313-0.27344-0.10938-0.4375-0.10938-0.39844 0-0.71094 0.15625-0.9375 0.46875-0.23047 0.30469-0.34375 0.73047-0.34375 1.2812v2.9375h-1.9062v-8.3125h1.9062v3.2031c0.28906-0.34375 0.59766-0.59766 0.92188-0.76562 0.32031-0.16406 0.67969-0.25 1.0781-0.25 0.6875 0 1.207 0.21484 1.5625 0.64062 0.36328 0.41797 0.54688 1.0312 0.54688 1.8438z"/>
  </symbol>
  <symbol id="r" overflow="visible">
   <path d="m1-7.9688h3.4219c1.0078 0 1.7852 0.22656 2.3281 0.67188 0.53906 0.44922 0.8125 1.0898 0.8125 1.9219 0 0.83594-0.27344 1.4805-0.8125 1.9375-0.54297 0.44922-1.3203 0.67188-2.3281 0.67188h-1.3594v2.7656h-2.0625zm2.0625 1.4844v2.2344h1.1406c0.39453 0 0.70312-0.097656 0.92188-0.29688 0.21875-0.19531 0.32812-0.47266 0.32812-0.82812 0-0.35156-0.10938-0.625-0.32812-0.8125-0.21875-0.19531-0.52734-0.29688-0.92188-0.29688z"/>
  </symbol>
  <symbol id="q" overflow="visible">
   <path d="m0.92188-5.9844h1.9062v5.875c0 0.80078-0.19531 1.4102-0.57812 1.8281-0.38672 0.42578-0.94531 0.64062-1.6719 0.64062h-0.9375v-1.25h0.32812c0.36328 0 0.61328-0.085937 0.75-0.25 0.13281-0.16797 0.20312-0.49219 0.20312-0.96875zm0-2.3281h1.9062v1.5625h-1.9062z"/>
  </symbol>
  <symbol id="p" overflow="visible">
   <path d="m5.75-5.7969v1.5625c-0.26172-0.17578-0.52344-0.30469-0.78125-0.39062-0.26172-0.09375-0.53125-0.14062-0.8125-0.14062-0.53125 0-0.94922 0.15625-1.25 0.46875-0.29297 0.3125-0.4375 0.75-0.4375 1.3125s0.14453 1 0.4375 1.3125c0.30078 0.30469 0.71875 0.45312 1.25 0.45312 0.30078 0 0.58203-0.039062 0.84375-0.125 0.26953-0.09375 0.51953-0.22266 0.75-0.39062v1.5625c-0.30469 0.10547-0.60938 0.17969-0.92188 0.23438-0.30469 0.0625-0.60547 0.09375-0.90625 0.09375-1.0859 0-1.9336-0.27344-2.5469-0.82812-0.60547-0.55078-0.90625-1.3203-0.90625-2.3125 0-0.98828 0.30078-1.7578 0.90625-2.3125 0.61328-0.55078 1.4609-0.82812 2.5469-0.82812 0.3125 0 0.61719 0.03125 0.92188 0.09375 0.30078 0.054688 0.60156 0.13281 0.90625 0.23438z"/>
  </symbol>
 </defs>
 <g>
  <path d="m308.08 215.25c-5.5859-0.67578-11.223 0.75391-15.809 4.0078-4.5898 3.2578-7.8008 8.1055-9.0039 13.602-1.207 5.4922-0.32422 11.242 2.4805 16.121 0.60156 1.0469 1.9414 1.4062 2.9883 0.80078 1.0469-0.60156 1.4062-1.9414 0.80469-2.9883-2.2617-3.9375-2.9766-8.5742-2.0039-13.008 0.97266-4.4336 3.5664-8.3438 7.2656-10.973 3.7031-2.625 8.25-3.7773 12.758-3.2305 1.1836 0.11328 2.2422-0.73438 2.3828-1.9141 0.14453-1.1797-0.68359-2.2578-1.8594-2.4297z"/>
  <path d="m613.02 534.8c-16.957-23.797-36.879-45.332-59.281-64.094 15.664-26.383 35.504-62.934 41.32-81.637 17.105-54.664 10.871-111.78-16.691-152.77l0.003906-0.003906c-5.6094-8.2695-11.973-16.004-19.008-23.098-21.016-21.344-35.453-48.277-41.586-77.594-1.9375-9.3945-4.5391-18.641-7.7891-27.672-8.4023-23.234-22.426-44.027-40.816-60.527-19.621-17.258-42.176-26.754-65.211-27.41-18.723-0.52344-67.066 4.9453-111.23 67.508-12.863 18.242-23.582 38.215-33.949 57.531s-21.066 39.266-33.883 57.355c-11.836 16.758-25.922 32.594-39.57 47.93-26.117 29.355-53.133 59.719-65.211 97.648-8.2617 26.836-8.4453 55.508-0.52734 82.449-10.859 5.5508-21.379 11.742-31.5 18.547-0.48438 0.33594-0.81641 0.84766-0.92188 1.4258-0.10938 0.57812 0.019531 1.1758 0.35547 1.6602 0.40234 0.59375 1.0742 0.94531 1.793 0.94141 0.42578-0.007812 0.84375-0.13672 1.2031-0.37109 38.227-25.652 81.688-42.473 127.22-49.242 4.2891 39.113 31.172 74.879 69.016 91.523 16.203 7.0273 33.684 10.617 51.344 10.547 23.055-0.070312 45.746-5.7852 66.082-16.648 26.602-14.176 49.59-37.559 64.945-66.02h0.003906c56.105 25.078 104.54 64.621 140.33 114.58 0.69531 0.96875 2.0352 1.2031 3.0156 0.52344 0.99609-0.70312 1.2422-2.0781 0.54688-3.082zm-210.9-49.875c-35.461 18.879-78.992 21.176-113.62 5.9727-35.898-15.793-62.367-51.055-66.414-88.133l0.003906-0.003906c12.664-1.7461 25.43-2.6914 38.215-2.8203 1.0195-0.003906 1.8984-0.72656 2.1016-1.7305l27.344-127.57c0.085938 0.023437 0.15234 0.042969 0.21875 0.066406 9.3906 31.66 30.59 58.48 57.633 73.469 13.574 17.344 30.484 31.789 49.734 42.488l-2.4336 10.152c-0.13672 0.57812-0.03125 1.1875 0.28906 1.6875 0.32422 0.49609 0.83203 0.84375 1.418 0.96094 23.527 4.7656 46.488 11.988 68.512 21.547-14.965 27.562-37.254 50.223-63 63.918zm94.258-219.89c-5.4258 21.371-16.977 50.75-41.258 69.41-26.469 20.367-65.91 24.215-98.109 9.6016-29.859-13.52-53.484-41.848-63.195-75.754h0.003907c-0.21484-0.76172-0.82422-1.3477-1.5977-1.5312-10.559-2.2891-19.355-9.5547-23.602-19.492-2.8281-8.3438-2.3008-17.461 1.4727-25.426 3.7695-7.9648 10.492-14.152 18.738-17.25 2.918-0.94531 5.9688-1.418 9.0352-1.4023 6.4453 0.046876 12.75 1.8945 18.199 5.3359 5.4492 3.4414 9.832 8.3359 12.645 14.133 0.47266 1.0508 1.6836 1.5508 2.7578 1.1406 27.129-10.246 53.082-23.367 77.414-39.137 8.7852 0.42578 17.215 3.6094 24.086 9.1016 0.44141 0.37109 1.0195 0.55078 1.5938 0.49219 0.57812-0.058594 1.1055-0.34766 1.4688-0.80078 0.36719-0.44922 0.54297-1.0273 0.48828-1.6055-0.058594-0.57812-0.34375-1.1094-0.79688-1.4766-6.125-4.9062-13.41-8.1602-21.152-9.4492 24.551-16.418 47.254-35.438 67.727-56.723 20.789 43.914 25.766 93.668 14.086 140.83z"/>
  <path d="m460.64 193.31c-0.49219 0.32422-0.83203 0.83203-0.94531 1.4102-0.11328 0.58203 0.011719 1.1797 0.34766 1.6641s0.85156 0.8125 1.4336 0.91016 1.1758-0.039063 1.6523-0.38672c4.7461-3.1523 10.332-4.8008 16.027-4.7266 5.6953 0.074218 11.234 1.8672 15.895 5.1445 0.97656 0.70312 2.3359 0.48438 3.043-0.48438 0.71094-0.96875 0.50391-2.3281-0.45703-3.0469-5.4023-3.7969-11.824-5.875-18.426-5.9609-6.6016-0.085938-13.074 1.8242-18.57 5.4766z"/>
  <path d="m454.43 232.78-0.60547-0.33594c-0.60156-0.26953-1.1484-0.64844-1.6172-1.1172-0.42188-0.91406-0.58203-1.9258-0.46094-2.9258l0.19141-23.602c0.003906-0.58203-0.22266-1.1406-0.62891-1.5508-0.40625-0.41406-0.96094-0.64844-1.543-0.65625h-0.015625c-1.1992 0-2.1758 0.96875-2.1875 2.168l-0.19141 23.602v0.003907c-0.58984 3.3359 1.2227 6.6328 4.3555 7.918l0.53125 0.28906c5.332 3.0664 7.6797 9.5234 5.5625 15.297-2.1172 5.7734-8.0859 9.1836-14.133 8.0703-1.1875-0.21875-2.332 0.56641-2.5508 1.7539-0.21875 1.1914 0.56641 2.332 1.7539 2.5508 0.95312 0.17188 1.918 0.26172 2.8828 0.26172 5.0508 0.058594 9.8672-2.1289 13.141-5.9766 3.2734-3.8438 4.668-8.9492 3.8008-13.922-0.86719-4.9766-3.9023-9.3086-8.2852-11.82z"/>
  <path d="m474.94 211.85c-4.4531 0-8.0586 5.4688-8.0586 12.219s3.6055 12.219 8.0586 12.219 8.0625-5.4688 8.0625-12.219-3.6094-12.219-8.0625-12.219z"/>
  <path d="m410.42 228.47c4.4531 0 8.0625-5.4688 8.0625-12.219s-3.6094-12.219-8.0625-12.219-8.0586 5.4688-8.0586 12.219 3.6094 12.219 8.0586 12.219z"/>
  <path d="m437.23 296.62c-14.309-2.9805-26.617-12.027-33.723-24.801-0.58203-1.0586-1.9141-1.4453-2.9727-0.86328-1.0586 0.58203-1.4453 1.9102-0.86328 2.9727 7.7305 13.891 21.121 23.738 36.688 26.98 0.14453 0.027344 0.29297 0.042969 0.4375 0.042969 1.125 0 2.0664-0.85156 2.1797-1.9688 0.11328-1.1172-0.64062-2.1406-1.7422-2.3633z"/>
 </g>
</svg>