<svg width="703" height="573" viewBox="0 0 703 573" fill="none" xmlns="http://www.w3.org/2000/svg">
<path d="M297.32 284.444C297.799 285.46 298.82 286.106 299.945 286.111C300.378 286.111 300.805 286.012 301.19 285.819C302.649 285.132 303.273 283.397 302.586 281.939C298.935 274.679 292.982 268.84 285.649 265.335C278.321 261.83 270.029 260.866 262.091 262.59C261.32 262.752 260.643 263.22 260.222 263.887C259.8 264.554 259.669 265.366 259.852 266.132C260.039 266.897 260.529 267.559 261.206 267.96C261.888 268.361 262.701 268.465 263.461 268.257C270.102 266.819 277.034 267.627 283.164 270.554C289.289 273.486 294.274 278.371 297.32 284.444Z" fill="black"/>
<path d="M371.32 200.311C372.252 200.311 373.127 199.863 373.679 199.108C378.669 192.639 385.607 187.941 393.466 185.717C401.331 183.488 409.701 183.842 417.341 186.733C418.83 187.347 420.533 186.634 421.148 185.144C421.758 183.655 421.049 181.951 419.56 181.337C410.716 177.894 400.986 177.431 391.857 180.019C382.727 182.608 374.69 188.108 368.972 195.68C368.326 196.566 368.232 197.738 368.732 198.717C369.227 199.691 370.232 200.311 371.326 200.311L371.32 200.311Z" fill="black"/>
<path d="M475.427 186.537C481.136 182.834 487.912 181.136 494.693 181.709C501.474 182.287 507.87 185.105 512.87 189.72C514.032 190.767 515.813 190.714 516.912 189.6C518.005 188.48 518.026 186.699 516.953 185.558C511.006 179.949 503.333 176.517 495.188 175.824C487.037 175.136 478.896 177.225 472.089 181.751C471.454 182.194 471.022 182.866 470.881 183.631C470.746 184.392 470.918 185.178 471.36 185.814C472.282 187.131 474.1 187.459 475.423 186.537L475.427 186.537Z" fill="black"/>
<path d="M458.067 232.258C458.26 233.039 458.77 233.711 459.478 234.101C460.181 234.497 461.02 234.58 461.791 234.33C465.03 233.424 468.499 233.914 471.364 235.674C474.228 237.44 476.234 240.315 476.885 243.617C477.541 246.914 476.786 250.336 474.812 253.06C472.832 255.784 469.812 257.554 466.473 257.955C464.864 258.023 463.609 259.377 463.671 260.992C463.739 262.601 465.093 263.856 466.707 263.789H466.947C474.765 263.278 481.316 257.685 483.051 250.039C484.78 242.399 481.28 234.523 474.442 230.69C471.02 228.633 467.02 227.737 463.046 228.154L454.936 195.566H454.942C454.551 193.998 452.968 193.045 451.405 193.435C449.838 193.826 448.884 195.409 449.275 196.972L458.067 232.258Z" fill="black"/>
<path d="M431.707 303.538C439.588 308.381 448.713 310.803 457.958 310.506C467.203 310.209 476.155 307.204 483.707 301.866C485.01 300.913 485.296 299.09 484.348 297.788C483.395 296.485 481.572 296.199 480.27 297.147C473.671 301.814 465.849 304.439 457.77 304.699C449.692 304.959 441.713 302.84 434.827 298.605C433.468 297.746 431.666 298.147 430.801 299.512C429.942 300.871 430.348 302.673 431.707 303.538Z" fill="black"/>
<path d="M497.734 196.311C491.301 196.863 486.77 205.274 487.614 215.097C488.458 224.92 494.359 232.431 500.796 231.879C507.228 231.327 511.754 222.915 510.911 213.087C510.062 203.269 504.166 195.759 497.734 196.311Z" fill="black"/>
<path d="M412.121 207.991C405.704 208.543 401.162 216.954 402.006 226.777C402.85 236.6 408.751 244.116 415.183 243.559C421.616 243.007 426.147 234.595 425.303 224.767C424.454 214.949 418.553 207.439 412.121 207.991Z" fill="black"/>
<path d="M701.467 567.138L575.061 440.731C555.842 421.528 529.425 411.299 502.29 412.553C475.426 413.866 448.577 415.158 421.733 416.434L421.529 393.798C462.655 391.407 500.103 371.048 517.691 339.751C531.196 315.72 533.409 287.048 533.764 259.658L533.759 259.663C534.17 231.204 533.004 202.742 530.259 174.408C529.998 171.768 529.368 169.179 528.394 166.71C538.624 151.888 546.973 135.846 553.244 118.965C562.197 93.4438 562.869 67.7771 555.171 46.7464C546.186 22.1318 524.457 3.52243 501.067 0.48643C479.687 -2.25317 458.54 7.1375 441.536 14.6891L431.416 19.1787C376.728 2.5227 318.542 6.37656 271.576 29.8246C214.467 58.3512 175.91 115.486 173.342 175.398C171.154 228.335 199.623 281.507 244.216 308.018V308.023C245.44 310.2 246.826 312.289 248.357 314.263C252.919 320.362 258.935 325.211 265.857 328.383L243.633 424.309C195.977 417.809 147.466 425.539 104.193 446.523C60.917 467.512 24.813 500.815 0.406286 542.257C-0.130167 543.164 -0.13538 544.289 0.390661 545.205C0.916701 546.117 1.89066 546.674 2.94799 546.664C3.96882 546.674 4.92199 546.127 5.42719 545.237C27.3912 507.862 59.1565 477.21 97.2872 456.591C135.413 435.971 178.459 426.17 221.757 428.247C227.038 449.393 245.559 468.643 271.866 480.05C304.653 494.357 341.543 496.217 375.601 485.264C409.663 474.316 438.559 451.315 456.866 420.575C472.09 419.846 487.314 419.107 502.543 418.357V418.362C528.049 417.195 552.866 426.805 570.939 444.841L697.346 571.247V571.252C698.487 572.383 700.325 572.383 701.46 571.252C702.018 570.706 702.32 569.956 702.304 569.18C702.309 568.414 702.007 567.68 701.46 567.138L701.467 567.138ZM252.974 310.711C243.609 298.857 240.594 283.19 244.896 268.711C247.135 261.716 251.349 255.518 257.031 250.867C262.713 246.216 269.62 243.304 276.916 242.492C291.531 241.383 306.318 251.419 309.906 264.919C310.317 266.481 311.916 267.413 313.479 267.002C315.041 266.596 315.974 264.992 315.562 263.429C314.651 260.106 313.234 256.939 311.364 254.038C316.796 246.403 320.5 237.674 322.213 228.46C324.203 216.21 324.849 203.777 324.14 191.386L323.76 172.34V172.345C323.661 166.699 327.635 161.803 333.182 160.736C347.827 157.819 362.083 153.189 375.646 146.938C381.063 144.542 387.255 144.641 392.594 147.199C394.818 148.199 397.094 149.063 399.417 149.798C424.365 157.214 451.271 153.959 473.734 140.813C479.948 137.23 487.781 138.152 492.985 143.089C498.48 148.167 504.615 152.506 511.245 155.98C518.573 159.672 523.542 166.813 524.458 174.969C527.177 203.084 528.333 231.333 527.927 259.578C527.578 286.209 525.479 314.005 512.615 336.901C492.522 372.688 444.689 393.37 396.271 387.125C349.927 381.177 317.083 363.152 290.365 328.994C292.479 328.135 294.469 327 296.286 325.614C297.568 324.63 297.807 322.796 296.823 321.515C295.844 320.234 294.005 319.994 292.729 320.974C286.557 325.364 278.672 326.578 271.464 324.239C264.052 321.744 257.594 317.015 252.974 310.709L252.974 310.711ZM383.698 476.111C348.463 490.22 309.058 489.704 274.208 474.679C250.291 464.324 233.287 447.293 227.864 428.564C233.755 428.97 239.62 429.595 245.453 430.428L245.447 430.434C246.952 430.684 248.39 429.71 248.713 428.215L271.406 330.246C273.885 330.855 276.432 331.173 278.99 331.178C280.771 331.173 282.547 331.016 284.297 330.714C298.026 349.345 315.802 364.626 336.281 375.408C367.521 401.949 405.822 412.82 415.89 415.329L415.927 419.522V419.527C415.921 420.313 416.25 421.063 416.833 421.595C417.411 422.147 418.187 422.438 418.989 422.412L449.817 420.923C434 445.699 410.906 464.975 383.698 476.111Z" fill="black"/>
</svg>
