<svg width="720" height="704" viewBox="0 0 720 704" fill="none" xmlns="http://www.w3.org/2000/svg">
<path d="M432.281 327.675C433.068 327.68 433.823 327.362 434.375 326.8C444.807 315.914 450.11 301.106 448.959 286.07C448.829 284.466 447.417 283.274 445.813 283.404C444.204 283.539 443.011 284.945 443.141 286.555C444.167 299.91 439.454 313.071 430.183 322.737C429.36 323.576 429.12 324.831 429.579 325.915C430.037 326.998 431.099 327.701 432.276 327.696L432.281 327.675Z" fill="black"/>
<path d="M719.054 698.795C649.101 617.649 558.414 557.035 456.668 523.448C448.84 520.766 442.736 514.552 440.189 506.677C439.84 505.599 439.491 504.547 439.168 503.469C453.824 507.391 468.736 510.308 483.794 512.193C493.882 513.448 504.044 514.084 514.21 514.089C556.21 514.089 593.98 502.891 622.71 481.568C664.622 450.36 683.871 395.818 668.47 351.865L668.475 351.86C663.027 336.652 653.756 323.105 641.553 312.516C635.277 307.203 631.121 299.807 629.85 291.682C628.58 283.557 630.283 275.245 634.642 268.27C635.314 267.25 635.955 266.171 636.741 264.916C651.47 240.416 656.486 214.572 650.856 192.114C643.741 163.53 618.481 139.144 584.908 128.499L584.913 128.504C574.616 125.296 564.006 123.181 553.268 122.202C546.038 121.363 539.21 118.468 533.58 113.863C527.949 109.254 523.757 103.129 521.501 96.2128C516.923 82.6141 510.58 69.6661 502.632 57.7128C481.835 26.6821 449.549 5.41548 416.184 0.86881C398.877 -1.41239 381.272 0.816728 365.085 7.34281C350.143 13.8168 333.377 14.7177 317.835 9.87921C282.747 -2.06866 244.553 -1.18332 210.064 12.3896C167.075 29.9203 133.209 68.3016 119.444 115.056H119.439C115.236 129.108 104.835 140.463 91.2095 145.884C77.0269 151.317 64.7309 160.764 55.8295 173.067C43.267 191.318 38.7416 213.927 43.314 235.603C45.267 247.452 41.2254 259.499 32.5222 267.775C20.9753 279.374 12.1262 293.374 6.59554 308.78C-6.61806 346.202 0.32474 390.974 24.7102 425.65C47.1995 457.53 83.9502 480.89 125.513 489.759H125.508C160.305 496.603 196.242 494.973 230.273 485.004C230.653 490.368 231.002 495.738 231.205 501.102L231.211 501.108C231.653 511.451 223.752 520.264 213.419 520.941C144.58 526.03 77.1252 542.842 13.9385 570.638C13.225 570.951 12.6625 571.539 12.3864 572.269C12.1051 572.998 12.1312 573.805 12.4541 574.519C12.902 575.565 13.9385 576.243 15.0791 576.237C15.4802 576.237 15.876 576.144 16.2458 575.977C70.7151 552.013 128.443 536.284 187.539 529.31C216.941 599.253 289.566 649.154 365.019 650.966C366.363 650.998 367.675 650.998 369.014 650.998C433.123 650.998 497.29 616.404 534.094 561.894L534.099 561.888C602.974 596.43 664.329 644.258 714.646 702.622C715.714 703.778 717.51 703.877 718.698 702.846C719.891 701.814 720.042 700.023 719.047 698.799L719.054 698.795ZM365.148 645.128C292.522 643.409 222.574 595.691 193.614 528.664C200.354 527.935 207.088 527.263 213.854 526.768L213.86 526.773C220.334 526.325 226.386 523.372 230.714 518.534C235.048 513.695 237.318 507.357 237.048 500.872C236.969 499.049 236.844 497.221 236.756 495.398C269.079 479.21 297.407 456.044 319.688 427.576C336.256 416.446 351.953 404.07 366.647 390.554C367.845 389.487 367.949 387.643 366.876 386.445C366.324 385.82 365.527 385.461 364.688 385.45C363.985 385.466 363.303 385.721 362.766 386.179C338.964 407.149 314.236 428.471 283.985 438.767C244.788 452.153 211.125 439.674 195.204 421.355C173.589 396.449 175.808 358.558 180.152 328.314C186.454 284.975 196.542 242.267 210.297 200.689C211.068 201.6 212.318 201.944 213.448 201.564C225.959 197.314 239.531 197.408 251.979 201.824C252.286 201.939 252.614 201.996 252.942 202.001C254.354 201.996 255.567 200.98 255.812 199.585C256.052 198.194 255.26 196.824 253.932 196.34C240.359 191.512 225.563 191.371 211.901 195.934C218.141 177.46 225.125 159.231 232.844 141.246C240.766 151.308 250.5 159.792 261.547 166.272C275.052 173.741 289.135 180.122 303.661 185.346C319.031 191.356 334.901 197.538 348.901 206.434C378.131 225.371 398.584 255.204 405.713 289.294C403.203 292.445 400.609 295.533 397.838 298.424C396.724 299.544 396.713 301.346 397.812 302.481C398.37 303.054 399.14 303.377 399.942 303.382C400.713 303.382 401.448 303.065 401.984 302.507C407.151 296.976 411.963 291.117 416.391 284.981C418.984 281.569 421.641 278.038 424.38 274.715C434.24 262.725 443.427 255.934 453.287 253.278C463.818 250.418 477.964 253.658 483.36 263.981C487.241 271.418 486.454 281.481 480.996 293.819V293.814C467.746 322.877 443.078 345.169 412.834 355.418C411.637 355.793 410.824 356.903 410.819 358.158C410.491 409.24 418.538 460.032 434.652 508.518C437.788 518.127 445.267 525.7 454.835 528.966C480.163 537.356 504.898 547.466 528.862 559.211C492.315 612.904 428.498 646.534 365.142 645.132L365.148 645.128Z" fill="black"/>
<path d="M241.241 264.701C240.486 264.535 239.694 264.681 239.043 265.102C238.392 265.524 237.939 266.181 237.777 266.941L233.033 289.009C228.241 289.571 223.803 291.816 220.512 295.337C216.403 299.311 214.288 304.91 214.757 310.608C215.22 316.3 218.21 321.488 222.908 324.738C226.434 327.447 230.741 328.936 235.184 328.994C236.382 328.994 237.58 328.874 238.751 328.634C240.33 328.317 241.345 326.775 241.027 325.197C240.705 323.619 239.163 322.598 237.585 322.921C233.663 323.593 229.637 322.587 226.491 320.145C223.35 317.707 221.371 314.056 221.048 310.093C220.725 306.124 222.085 302.202 224.793 299.291C227.501 296.374 231.314 294.728 235.293 294.754C236.715 294.843 237.986 293.858 238.252 292.457L243.476 268.165C243.814 266.592 242.814 265.04 241.241 264.701Z" fill="black"/>
<path d="M301.734 364.408C289.02 378.815 269.739 385.596 250.807 382.315C249.219 382.028 247.703 383.08 247.411 384.664C247.125 386.247 248.172 387.768 249.76 388.06C253.187 388.685 256.672 388.997 260.156 388.992C277.75 388.971 294.495 381.409 306.146 368.227C306.656 367.643 306.916 366.878 306.864 366.096C306.812 365.32 306.453 364.596 305.864 364.091C305.276 363.581 304.51 363.325 303.734 363.388C302.958 363.445 302.239 363.814 301.734 364.408Z" fill="black"/>
<path d="M297.535 203.248C295.962 203.024 294.498 204.107 294.254 205.68C294.004 207.248 295.056 208.727 296.623 209.008C313.29 211.837 327.415 222.858 334.222 238.336C334.852 239.816 336.566 240.508 338.045 239.878C338.758 239.571 339.321 238.998 339.607 238.284C339.899 237.566 339.889 236.764 339.587 236.05C331.977 218.738 316.175 206.415 297.535 203.248Z" fill="black"/>
<path d="M229.135 243.035C229.135 251.394 224.994 258.175 219.885 258.175C214.775 258.175 210.635 251.394 210.635 243.035C210.635 234.67 214.775 227.889 219.885 227.889C224.994 227.889 229.135 234.671 229.135 243.035Z" fill="black"/>
<path d="M313.188 273.315C313.188 281.674 309.047 288.455 303.938 288.455C298.828 288.455 294.688 281.674 294.688 273.315C294.688 264.95 298.828 258.169 303.938 258.169C309.047 258.169 313.188 264.951 313.188 273.315Z" fill="black"/>
</svg>
